<svg width="110" height="60" viewBox="0 0 110 60" fill="none" xmlns="http://www.w3.org/2000/svg">
<path d="M53.01 31.464H52.352V36H51.19V26.2H52.352V30.764L52.982 30.568L56.272 26.2H57.616L54.34 30.414L53.752 30.876L54.466 31.436L58.05 36H56.58L53.01 31.464ZM58.3149 32.5C58.3149 31.3147 58.5762 30.4093 59.0989 29.784C59.6309 29.1493 60.3916 28.832 61.3809 28.832C61.9036 28.832 62.3562 28.9207 62.7389 29.098C63.1309 29.266 63.4529 29.5133 63.7049 29.84C63.9569 30.1573 64.1436 30.5447 64.2649 31.002C64.3862 31.45 64.4469 31.9493 64.4469 32.5C64.4469 33.6853 64.1809 34.5953 63.6489 35.23C63.1262 35.8553 62.3702 36.168 61.3809 36.168C60.8582 36.168 60.4009 36.084 60.0089 35.916C59.6262 35.7387 59.3089 35.4913 59.0569 35.174C58.8049 34.8473 58.6182 34.46 58.4969 34.012C58.3756 33.5547 58.3149 33.0507 58.3149 32.5ZM59.4769 32.5C59.4769 32.8547 59.5096 33.1953 59.5749 33.522C59.6496 33.8487 59.7616 34.1333 59.9109 34.376C60.0602 34.6187 60.2562 34.8147 60.4989 34.964C60.7416 35.1133 61.0356 35.188 61.3809 35.188C62.6502 35.1973 63.2849 34.3013 63.2849 32.5C63.2849 32.136 63.2476 31.7907 63.1729 31.464C63.1076 31.1373 63.0002 30.8527 62.8509 30.61C62.7016 30.3673 62.5056 30.176 62.2629 30.036C62.0202 29.8867 61.7262 29.812 61.3809 29.812C60.1116 29.8027 59.4769 30.6987 59.4769 32.5ZM66.2128 36V29H67.3328V35.02H69.7268V29H70.8468V35.02H73.2408V29H74.3608V36H66.2128ZM80.8894 31.856L80.9314 30.988H80.8894L80.3154 31.884L77.1654 36H76.5214V29H77.6414V33.27L77.5994 34.096H77.6554L78.2014 33.228L81.3514 29H82.0094V36H80.8894V31.856ZM85.9279 32.85H85.2839V36H84.1639V29H85.2839V32.164L85.8859 31.968L88.1259 29H89.3439L87.1739 31.814L86.5859 32.276L87.3139 32.836L89.6519 36H88.2659L85.9279 32.85Z" fill="#B0BEC5"/>
<path fill-rule="evenodd" clip-rule="evenodd" d="M20.9419 29.4405C21.0369 29.3267 21.1775 29.2609 21.3258 29.2609H38.6736C38.8219 29.2609 38.9625 29.3267 39.0575 29.4405C39.1525 29.5543 39.1921 29.7044 39.1656 29.8503L37.5134 38.9373C37.4702 39.175 37.2631 39.3478 37.0215 39.3478H22.978C22.7363 39.3478 22.5293 39.175 22.486 38.9373L20.8339 29.8503C20.8074 29.7044 20.8469 29.5543 20.9419 29.4405ZM21.9249 30.2609L23.3953 38.3478H36.6042L38.0745 30.2609H21.9249Z" fill="#B0BEC5"/>
<path fill-rule="evenodd" clip-rule="evenodd" d="M20 28.1087C20 27.8326 20.2239 27.6087 20.5 27.6087H39.5C39.7761 27.6087 40 27.8326 40 28.1087V29.7609C40 30.037 39.7761 30.2609 39.5 30.2609H20.5C20.2239 30.2609 20 30.037 20 29.7609V28.1087ZM21 28.6087V29.2609H39V28.6087H21Z" fill="#B0BEC5"/>
<path fill-rule="evenodd" clip-rule="evenodd" d="M28.2881 21.1464C28.4834 21.3417 28.4834 21.6583 28.2881 21.8536L23.3316 26.8101C23.1363 27.0053 22.8197 27.0053 22.6245 26.8101C22.4292 26.6148 22.4292 26.2982 22.6245 26.103L27.581 21.1464C27.7763 20.9512 28.0928 20.9512 28.2881 21.1464Z" fill="#B0BEC5"/>
<path fill-rule="evenodd" clip-rule="evenodd" d="M31.7114 21.1464C31.9067 20.9512 32.2232 20.9512 32.4185 21.1464L37.375 26.103C37.5703 26.2982 37.5703 26.6148 37.375 26.8101C37.1798 27.0053 36.8632 27.0053 36.6679 26.8101L31.7114 21.8536C31.5161 21.6583 31.5161 21.3417 31.7114 21.1464Z" fill="#B0BEC5"/>
<path fill-rule="evenodd" clip-rule="evenodd" d="M32.2389 30.9131C32.515 30.9131 32.7389 31.1369 32.7389 31.4131V36.3696C32.7389 36.6458 32.515 36.8696 32.2389 36.8696C31.9627 36.8696 31.7389 36.6458 31.7389 36.3696V31.4131C31.7389 31.1369 31.9627 30.9131 32.2389 30.9131Z" fill="#B0BEC5"/>
<path fill-rule="evenodd" clip-rule="evenodd" d="M35.5432 30.9131C35.8194 30.9131 36.0432 31.1369 36.0432 31.4131V36.3696C36.0432 36.6458 35.8194 36.8696 35.5432 36.8696C35.2671 36.8696 35.0432 36.6458 35.0432 36.3696V31.4131C35.0432 31.1369 35.2671 30.9131 35.5432 30.9131Z" fill="#B0BEC5"/>
<path fill-rule="evenodd" clip-rule="evenodd" d="M27.7606 30.9131C28.0368 30.9131 28.2606 31.1369 28.2606 31.4131V36.3696C28.2606 36.6458 28.0368 36.8696 27.7606 36.8696C27.4845 36.8696 27.2606 36.6458 27.2606 36.3696V31.4131C27.2606 31.1369 27.4845 30.9131 27.7606 30.9131Z" fill="#B0BEC5"/>
<path fill-rule="evenodd" clip-rule="evenodd" d="M24.4563 30.9131C24.7324 30.9131 24.9563 31.1369 24.9563 31.4131V36.3696C24.9563 36.6458 24.7324 36.8696 24.4563 36.8696C24.1802 36.8696 23.9563 36.6458 23.9563 36.3696V31.4131C23.9563 31.1369 24.1802 30.9131 24.4563 30.9131Z" fill="#B0BEC5"/>
</svg>
