<svg width="131" height="60" viewBox="0 0 131 60" fill="none" xmlns="http://www.w3.org/2000/svg">
<path d="M58.974 37.806H58.176L57.966 36H51.092L50.882 37.806H50.07V34.964H51.064C51.1387 34.8613 51.2507 34.6233 51.4 34.25C51.5587 33.8673 51.7127 33.326 51.862 32.626C52.0207 31.9167 52.1607 31.0347 52.282 29.98C52.4033 28.916 52.464 27.656 52.464 26.2H57.7V34.964H58.974V37.806ZM56.538 34.964V27.236H53.556C53.528 28.2627 53.472 29.1867 53.388 30.008C53.3133 30.8293 53.22 31.5573 53.108 32.192C52.996 32.8173 52.87 33.3587 52.73 33.816C52.59 34.2733 52.4453 34.656 52.296 34.964H56.538ZM59.7231 32.5C59.7231 31.3147 59.9844 30.4093 60.5071 29.784C61.0391 29.1493 61.7998 28.832 62.7891 28.832C63.3118 28.832 63.7644 28.9207 64.1471 29.098C64.5391 29.266 64.8611 29.5133 65.1131 29.84C65.3651 30.1573 65.5518 30.5447 65.6731 31.002C65.7944 31.45 65.8551 31.9493 65.8551 32.5C65.8551 33.6853 65.5891 34.5953 65.0571 35.23C64.5344 35.8553 63.7784 36.168 62.7891 36.168C62.2664 36.168 61.8091 36.084 61.4171 35.916C61.0344 35.7387 60.7171 35.4913 60.4651 35.174C60.2131 34.8473 60.0264 34.46 59.9051 34.012C59.7838 33.5547 59.7231 33.0507 59.7231 32.5ZM60.8851 32.5C60.8851 32.8547 60.9178 33.1953 60.9831 33.522C61.0578 33.8487 61.1698 34.1333 61.3191 34.376C61.4684 34.6187 61.6644 34.8147 61.9071 34.964C62.1498 35.1133 62.4438 35.188 62.7891 35.188C64.0584 35.1973 64.6931 34.3013 64.6931 32.5C64.6931 32.136 64.6558 31.7907 64.5811 31.464C64.5158 31.1373 64.4084 30.8527 64.2591 30.61C64.1098 30.3673 63.9138 30.176 63.6711 30.036C63.4284 29.8867 63.1344 29.812 62.7891 29.812C61.5198 29.8027 60.8851 30.6987 60.8851 32.5ZM71.835 29.98H68.741V36H67.621V29H72.955V36H71.835V29.98ZM74.7212 32.5C74.7212 31.3147 74.9825 30.4093 75.5052 29.784C76.0372 29.1493 76.7978 28.832 77.7872 28.832C78.3098 28.832 78.7625 28.9207 79.1452 29.098C79.5372 29.266 79.8592 29.5133 80.1112 29.84C80.3632 30.1573 80.5498 30.5447 80.6712 31.002C80.7925 31.45 80.8532 31.9493 80.8532 32.5C80.8532 33.6853 80.5872 34.5953 80.0552 35.23C79.5325 35.8553 78.7765 36.168 77.7872 36.168C77.2645 36.168 76.8072 36.084 76.4152 35.916C76.0325 35.7387 75.7152 35.4913 75.4632 35.174C75.2112 34.8473 75.0245 34.46 74.9032 34.012C74.7818 33.5547 74.7212 33.0507 74.7212 32.5ZM75.8832 32.5C75.8832 32.8547 75.9158 33.1953 75.9812 33.522C76.0558 33.8487 76.1678 34.1333 76.3172 34.376C76.4665 34.6187 76.6625 34.8147 76.9052 34.964C77.1478 35.1133 77.4418 35.188 77.7872 35.188C79.0565 35.1973 79.6912 34.3013 79.6912 32.5C79.6912 32.136 79.6538 31.7907 79.5792 31.464C79.5138 31.1373 79.4065 30.8527 79.2572 30.61C79.1078 30.3673 78.9118 30.176 78.6692 30.036C78.4265 29.8867 78.1325 29.812 77.7872 29.812C76.5178 29.8027 75.8832 30.6987 75.8832 32.5ZM88.401 31.842L88.485 30.512H88.415L87.911 31.59L86.217 34.334H85.825L84.061 31.59L83.599 30.512H83.543L83.655 31.828V36H82.619V29H83.725L85.685 32.136L86.091 32.948H86.119L86.539 32.108L88.373 29H89.493V36H88.401V31.842ZM91.2505 32.5C91.2505 31.3147 91.5118 30.4093 92.0345 29.784C92.5665 29.1493 93.3271 28.832 94.3165 28.832C94.8391 28.832 95.2918 28.9207 95.6745 29.098C96.0665 29.266 96.3885 29.5133 96.6405 29.84C96.8925 30.1573 97.0791 30.5447 97.2005 31.002C97.3218 31.45 97.3825 31.9493 97.3825 32.5C97.3825 33.6853 97.1165 34.5953 96.5845 35.23C96.0618 35.8553 95.3058 36.168 94.3165 36.168C93.7938 36.168 93.3365 36.084 92.9445 35.916C92.5618 35.7387 92.2445 35.4913 91.9925 35.174C91.7405 34.8473 91.5538 34.46 91.4325 34.012C91.3111 33.5547 91.2505 33.0507 91.2505 32.5ZM92.4125 32.5C92.4125 32.8547 92.4451 33.1953 92.5105 33.522C92.5851 33.8487 92.6971 34.1333 92.8465 34.376C92.9958 34.6187 93.1918 34.8147 93.4345 34.964C93.6771 35.1133 93.9711 35.188 94.3165 35.188C95.5858 35.1973 96.2205 34.3013 96.2205 32.5C96.2205 32.136 96.1831 31.7907 96.1085 31.464C96.0431 31.1373 95.9358 30.8527 95.7865 30.61C95.6371 30.3673 95.4411 30.176 95.1985 30.036C94.9558 29.8867 94.6618 29.812 94.3165 29.812C93.0471 29.8027 92.4125 30.6987 92.4125 32.5ZM103.236 29.98H100.268V36H99.1483V29H103.236V29.98ZM104.204 29.518C104.559 29.3033 104.97 29.1447 105.436 29.042C105.912 28.9393 106.407 28.888 106.92 28.888C107.406 28.888 107.793 28.9533 108.082 29.084C108.381 29.2147 108.605 29.3873 108.754 29.602C108.913 29.8073 109.016 30.036 109.062 30.288C109.118 30.54 109.146 30.792 109.146 31.044C109.146 31.604 109.132 32.15 109.104 32.682C109.076 33.214 109.062 33.718 109.062 34.194C109.062 34.5393 109.076 34.866 109.104 35.174C109.132 35.482 109.184 35.7667 109.258 36.028H108.432L108.138 35.048H108.068C107.984 35.1787 107.877 35.3093 107.746 35.44C107.625 35.5613 107.476 35.6733 107.298 35.776C107.121 35.8693 106.916 35.9487 106.682 36.014C106.449 36.0793 106.183 36.112 105.884 36.112C105.586 36.112 105.306 36.0653 105.044 35.972C104.792 35.8787 104.573 35.748 104.386 35.58C104.2 35.4027 104.05 35.1927 103.938 34.95C103.836 34.7073 103.784 34.432 103.784 34.124C103.784 33.7133 103.868 33.3727 104.036 33.102C104.204 32.822 104.438 32.6027 104.736 32.444C105.044 32.276 105.408 32.1593 105.828 32.094C106.258 32.0193 106.729 31.982 107.242 31.982C107.373 31.982 107.499 31.982 107.62 31.982C107.751 31.982 107.882 31.9913 108.012 32.01C108.04 31.73 108.054 31.478 108.054 31.254C108.054 30.7407 107.952 30.3813 107.746 30.176C107.541 29.9707 107.168 29.868 106.626 29.868C106.468 29.868 106.295 29.882 106.108 29.91C105.931 29.9287 105.744 29.9613 105.548 30.008C105.362 30.0453 105.18 30.0967 105.002 30.162C104.834 30.218 104.685 30.2833 104.554 30.358L104.204 29.518ZM106.192 35.132C106.454 35.132 106.687 35.0993 106.892 35.034C107.098 34.9593 107.275 34.8707 107.424 34.768C107.574 34.656 107.695 34.5347 107.788 34.404C107.891 34.2733 107.966 34.1473 108.012 34.026V32.864C107.882 32.8547 107.746 32.85 107.606 32.85C107.476 32.8407 107.345 32.836 107.214 32.836C106.925 32.836 106.64 32.8547 106.36 32.892C106.09 32.92 105.847 32.9807 105.632 33.074C105.427 33.158 105.259 33.2793 105.128 33.438C105.007 33.5873 104.946 33.7787 104.946 34.012C104.946 34.3387 105.063 34.6093 105.296 34.824C105.53 35.0293 105.828 35.132 106.192 35.132Z" fill="#B0BEC5"/>
<path fill-rule="evenodd" clip-rule="evenodd" d="M30 21C25.0296 21 21 25.0296 21 30C21 34.9704 25.0296 39 30 39C34.9704 39 39 34.9704 39 30C39 25.0296 34.9704 21 30 21ZM20 30C20 24.4773 24.4773 20 30 20C35.5227 20 40 24.4773 40 30C40 35.5227 35.5227 40 30 40C24.4773 40 20 35.5227 20 30Z" fill="#B0BEC5"/>
<path fill-rule="evenodd" clip-rule="evenodd" d="M30 25.75C28.8452 25.75 27.9091 26.6868 27.9091 27.8409C27.9091 28.1171 27.6853 28.3409 27.4091 28.3409C27.133 28.3409 26.9091 28.1171 26.9091 27.8409C26.9091 26.1347 28.2927 24.75 30 24.75C31.7064 24.75 33.0909 26.1346 33.0909 27.8409C33.0909 29.3787 31.9687 30.6527 30.5 30.8916V33.0227C30.5 33.2989 30.2762 33.5227 30 33.5227C29.7239 33.5227 29.5 33.2989 29.5 33.0227V30.4318C29.5 30.1557 29.7239 29.9318 30 29.9318C31.1543 29.9318 32.0909 28.9965 32.0909 27.8409C32.0909 26.6869 31.1541 25.75 30 25.75Z" fill="#B0BEC5"/>
<path fill-rule="evenodd" clip-rule="evenodd" d="M30 35.25C30.0378 35.25 30.0682 35.2196 30.0682 35.1818C30.0682 35.144 30.0378 35.1136 30 35.1136C29.9622 35.1136 29.9318 35.144 29.9318 35.1818C29.9318 35.2196 29.9622 35.25 30 35.25ZM29.0682 35.1818C29.0682 34.6673 29.4855 34.25 30 34.25C30.5145 34.25 30.9318 34.6673 30.9318 35.1818C30.9318 35.6963 30.5145 36.1136 30 36.1136C29.4855 36.1136 29.0682 35.6963 29.0682 35.1818Z" fill="#B0BEC5"/>
</svg>
