<svg width="20" height="20" viewBox="0 0 20 20" fill="none" xmlns="http://www.w3.org/2000/svg">
<path fill-rule="evenodd" clip-rule="evenodd" d="M3.66669 9.5C3.94283 9.5 4.16669 9.72386 4.16669 10V10.7917C4.16669 11.0678 3.94283 11.2917 3.66669 11.2917C3.39054 11.2917 3.16669 11.0678 3.16669 10.7917V10C3.16669 9.72386 3.39054 9.5 3.66669 9.5Z" fill="#FF8A65"/>
<path fill-rule="evenodd" clip-rule="evenodd" d="M15.5417 9.5C15.8178 9.5 16.0417 9.72386 16.0417 10V10.7917C16.0417 11.0678 15.8178 11.2917 15.5417 11.2917C15.2655 11.2917 15.0417 11.0678 15.0417 10.7917V10C15.0417 9.72386 15.2655 9.5 15.5417 9.5Z" fill="#FF8A65"/>
<path fill-rule="evenodd" clip-rule="evenodd" d="M10 0C10.2761 0 10.5 0.223858 10.5 0.5V2.08333C10.5 2.35948 10.2761 2.58333 10 2.58333C9.72386 2.58333 9.5 2.35948 9.5 2.08333V0.5C9.5 0.223858 9.72386 0 10 0Z" fill="#FF8A65"/>
<path fill-rule="evenodd" clip-rule="evenodd" d="M7.125 6.04199C7.125 5.76585 7.34886 5.54199 7.625 5.54199H11.5833C11.8595 5.54199 12.0833 5.76585 12.0833 6.04199C12.0833 6.31813 11.8595 6.54199 11.5833 6.54199H7.625C7.34886 6.54199 7.125 6.31813 7.125 6.04199Z" fill="#FF8A65"/>
<path fill-rule="evenodd" clip-rule="evenodd" d="M7.125 8.41699C7.125 8.14085 7.34886 7.91699 7.625 7.91699H11.5833C11.8595 7.91699 12.0833 8.14085 12.0833 8.41699C12.0833 8.69313 11.8595 8.91699 11.5833 8.91699H7.625C7.34886 8.91699 7.125 8.69313 7.125 8.41699Z" fill="#FF8A65"/>
<path fill-rule="evenodd" clip-rule="evenodd" d="M7.125 10.792C7.125 10.5158 7.34886 10.292 7.625 10.292H11.5833C11.8595 10.292 12.0833 10.5158 12.0833 10.792C12.0833 11.0681 11.8595 11.292 11.5833 11.292H7.625C7.34886 11.292 7.125 11.0681 7.125 10.792Z" fill="#FF8A65"/>
<path fill-rule="evenodd" clip-rule="evenodd" d="M7.125 13.167C7.125 12.8908 7.34886 12.667 7.625 12.667H11.5833C11.8595 12.667 12.0833 12.8908 12.0833 13.167C12.0833 13.4431 11.8595 13.667 11.5833 13.667H7.625C7.34886 13.667 7.125 13.4431 7.125 13.167Z" fill="#FF8A65"/>
<path fill-rule="evenodd" clip-rule="evenodd" d="M7.125 15.542C7.125 15.2658 7.34886 15.042 7.625 15.042H11.5833C11.8595 15.042 12.0833 15.2658 12.0833 15.542C12.0833 15.8181 11.8595 16.042 11.5833 16.042H7.625C7.34886 16.042 7.125 15.8181 7.125 15.542Z" fill="#FF8A65"/>
<path fill-rule="evenodd" clip-rule="evenodd" d="M0 18.7083C0 18.4321 0.223858 18.2083 0.5 18.2083H18.7083C18.9845 18.2083 19.2083 18.4321 19.2083 18.7083C19.2083 18.9844 18.9845 19.2083 18.7083 19.2083H0.5C0.223858 19.2083 0 18.9844 0 18.7083Z" fill="white"/>
<path fill-rule="evenodd" clip-rule="evenodd" d="M5.54169 3.66675C5.54169 3.39061 5.76554 3.16675 6.04169 3.16675H13.1667C13.4428 3.16675 13.6667 3.39061 13.6667 3.66675V18.7084C13.6667 18.9846 13.4428 19.2084 13.1667 19.2084H6.04169C5.76554 19.2084 5.54169 18.9846 5.54169 18.7084V3.66675ZM6.54169 4.16675V18.2084H12.6667V4.16675H6.54169Z" fill="white"/>
<path fill-rule="evenodd" clip-rule="evenodd" d="M14.25 10.7917C14.25 10.5156 14.4739 10.2917 14.75 10.2917H17.9167C18.1928 10.2917 18.4167 10.5156 18.4167 10.7917V18.7084C18.4167 18.9846 18.1928 19.2084 17.9167 19.2084H14.75C14.4739 19.2084 14.25 18.9846 14.25 18.7084V10.7917ZM15.25 11.2917V18.2084H17.4167V11.2917H15.25Z" fill="white"/>
<path fill-rule="evenodd" clip-rule="evenodd" d="M0.791687 10.7917C0.791687 10.5156 1.01554 10.2917 1.29169 10.2917H4.45835C4.7345 10.2917 4.95835 10.5156 4.95835 10.7917V18.7084C4.95835 18.9846 4.7345 19.2084 4.45835 19.2084H1.29169C1.01554 19.2084 0.791687 18.9846 0.791687 18.7084V10.7917ZM1.79169 11.2917V18.2084H3.95835V11.2917H1.79169Z" fill="white"/>
<path fill-rule="evenodd" clip-rule="evenodd" d="M7.91669 2.08325C7.91669 1.80711 8.14054 1.58325 8.41669 1.58325H10.7917C11.0678 1.58325 11.2917 1.80711 11.2917 2.08325V3.66659C11.2917 3.94273 11.0678 4.16659 10.7917 4.16659H8.41669C8.14054 4.16659 7.91669 3.94273 7.91669 3.66659V2.08325ZM8.91669 2.58325V3.16659H10.2917V2.58325H8.91669Z" fill="white"/>
</svg>
