<svg width="20" height="20" viewBox="0 0 20 20" fill="none" xmlns="http://www.w3.org/2000/svg">
<path fill-rule="evenodd" clip-rule="evenodd" d="M1.73913 3C1.33127 3 1 3.33127 1 3.73913V12.8261C1 13.2339 1.33127 13.5652 1.73913 13.5652H8.34783C8.62397 13.5652 8.84783 13.7891 8.84783 14.0652C8.84783 14.3414 8.62397 14.5652 8.34783 14.5652H1.73913C0.778988 14.5652 0 13.7862 0 12.8261V3.73913C0 2.77899 0.778988 2 1.73913 2H16.6087C17.5688 2 18.3478 2.77899 18.3478 3.73913V7.45652C18.3478 7.73266 18.124 7.95652 17.8478 7.95652C17.5717 7.95652 17.3478 7.73266 17.3478 7.45652V3.73913C17.3478 3.33127 17.0166 3 16.6087 3H1.73913Z" fill="white"/>
<path fill-rule="evenodd" clip-rule="evenodd" d="M0.471208 2.54895C0.643874 2.33345 0.958547 2.29872 1.17405 2.47139L9.17411 8.8813L17.1745 2.4964C17.3904 2.32415 17.705 2.35948 17.8772 2.57531C18.0495 2.79114 18.0141 3.10575 17.7983 3.278L9.48538 9.9123C9.30266 10.0581 9.04329 10.0579 8.86085 9.9117L0.548767 3.25179C0.333265 3.07912 0.298541 2.76445 0.471208 2.54895Z" fill="white"/>
<path fill-rule="evenodd" clip-rule="evenodd" d="M14.9565 10.8206C14.7456 10.4696 14.4907 10.183 14.2018 9.96211C13.627 9.52264 12.9492 9.36854 12.3046 9.4602C11.0146 9.64364 9.91306 10.7937 9.91306 12.4436C9.91306 13.1989 10.2581 13.9632 10.704 14.6479C11.1564 15.3424 11.7509 16.0127 12.3318 16.5917C12.9148 17.1727 13.4959 17.6734 13.9303 18.0283C14.1478 18.206 14.3295 18.348 14.4573 18.4459C14.5213 18.4948 14.5718 18.5328 14.6067 18.5589L14.6471 18.5888L14.658 18.5968L14.6611 18.599L14.662 18.5997L14.6623 18.5999C14.6624 18.6 14.6624 18.6 14.9565 18.1956L14.6624 18.6C14.8378 18.7275 15.0753 18.7275 15.2506 18.6L14.9565 18.1956C15.2506 18.6 15.2507 18.6 15.2508 18.5999L15.2511 18.5997L15.252 18.599L15.255 18.5968L15.2659 18.5888L15.3063 18.5589C15.3413 18.5328 15.3918 18.4948 15.4557 18.4459C15.5836 18.348 15.7653 18.206 15.9828 18.0283C16.4172 17.6734 16.9983 17.1727 17.5812 16.5917C18.1622 16.0127 18.7567 15.3424 19.2091 14.6479C19.655 13.9632 20 13.1989 20 12.4436C20 10.7937 18.8985 9.64364 17.6084 9.4602C16.9639 9.36854 16.286 9.52264 15.7113 9.96211C15.4224 10.183 15.1675 10.4696 14.9565 10.8206ZM14.9565 17.5679C14.8486 17.484 14.7152 17.3782 14.563 17.2539C14.1454 16.9128 13.5907 16.4344 13.0378 15.8834C12.4828 15.3303 11.9415 14.7155 11.5419 14.1021C11.1359 13.4787 10.9131 12.9121 10.9131 12.4436C10.9131 11.2691 11.6702 10.5605 12.4454 10.4502C12.8334 10.3951 13.2398 10.4854 13.5944 10.7565C13.9501 11.0285 14.285 11.5076 14.4704 12.2788C14.5244 12.5035 14.7254 12.6619 14.9565 12.6619C15.1876 12.6619 15.3886 12.5035 15.4427 12.2788C15.6281 11.5076 15.9629 11.0285 16.3187 10.7565C16.6732 10.4854 17.0796 10.3951 17.4677 10.4502C18.2429 10.5605 19 11.2691 19 12.4436C19 12.9121 18.7771 13.4787 18.3711 14.1021C17.9716 14.7155 17.4302 15.3303 16.8753 15.8834C16.3224 16.4344 15.7676 16.9128 15.3501 17.2539C15.1979 17.3782 15.0644 17.484 14.9565 17.5679Z" fill="#FF8A65"/>
</svg>
