<svg width="20" height="20" viewBox="0 0 20 20" fill="none" xmlns="http://www.w3.org/2000/svg">
<path fill-rule="evenodd" clip-rule="evenodd" d="M3 0C1.34315 0 0 1.34315 0 3V17C0 18.6569 1.34315 20 3 20H17C18.6569 20 20 18.6569 20 17V3C20 1.34315 18.6569 0 17 0H3ZM10.6075 12.2338V19.9788H13.725V12.2325H16.325L16.7125 9.2125H13.725V7.2875C13.725 6.4125 13.9688 5.8175 15.2188 5.8175H16.8188V3.1175C16.5425 3.08 15.5938 3 14.49 3C12.185 3 10.6075 4.405 10.6075 6.9875V9.21625H8V12.2338H10.6075Z" fill="#546E7A"/>
</svg>
