<svg width="20" height="20" viewBox="0 0 20 20" fill="none" xmlns="http://www.w3.org/2000/svg">
<path fill-rule="evenodd" clip-rule="evenodd" d="M3 0C1.34315 0 0 1.34315 0 3V17C0 18.6569 1.34315 20 3 20H17C18.6569 20 20 18.6569 20 17V3C20 1.34315 18.6569 0 17 0H3ZM10.1215 11.1995V9.14235H15.9038C15.9567 9.44061 16 9.74241 16 10.1362C16 13.5656 13.6572 16 10.1215 16C6.73722 16 4 13.3192 4 9.99941C4 6.67964 6.73602 3.99882 10.1239 4C11.7751 4 13.1581 4.58945 14.2249 5.56793L12.5628 7.13587C12.1082 6.70675 11.3121 6.20925 10.1215 6.20925C8.03247 6.20925 6.33073 7.90687 6.33073 9.99941C6.33073 12.092 8.03608 13.7896 10.1251 13.7896C12.5472 13.7896 13.4576 12.0837 13.5971 11.1995H10.1215Z" fill="#546E7A"/>
</svg>
