<svg width="17" height="17" viewBox="0 0 17 17" fill="none" xmlns="http://www.w3.org/2000/svg">
<path fill-rule="evenodd" clip-rule="evenodd" d="M15.884 0.302092C15.9846 0.396596 16.0417 0.528481 16.0417 0.666505V15.7082C16.0417 15.9722 15.8364 16.1907 15.5728 16.2072L2.90618 16.9989C2.63057 17.0161 2.39319 16.8066 2.37596 16.531C2.35873 16.2554 2.56819 16.018 2.8438 16.0008L15.0417 15.2384V1.19873L2.90618 1.9572C2.63057 1.97442 2.39319 1.76497 2.37596 1.48936C2.35873 1.21376 2.56819 0.976372 2.8438 0.959147L15.5105 0.167479C15.6482 0.158869 15.7834 0.207587 15.884 0.302092Z" fill="white"/>
<path fill-rule="evenodd" clip-rule="evenodd" d="M0.207645 0.260886C0.338029 0.166911 0.50564 0.141342 0.658114 0.192166C0.658114 0.192166 2.82894 0.915776 3.03311 0.983833C3.23728 1.05189 3.375 1.24296 3.375 1.45818V16.4998C3.375 16.6606 3.29774 16.8115 3.16736 16.9055C3.03697 16.9994 2.86936 17.025 2.71689 16.9742L0.341886 16.1825C0.137715 16.1145 0 15.9234 0 15.7082V0.666508C0 0.505786 0.0772606 0.354862 0.207645 0.260886ZM1 1.36022V15.3478L2.375 15.8061V1.81855L1 1.36022Z" fill="white"/>
</svg>
