<svg width="20" height="20" viewBox="0 0 20 20" fill="none" xmlns="http://www.w3.org/2000/svg">
<path fill-rule="evenodd" clip-rule="evenodd" d="M10.4895 3.45459V15.6819H9.4895V3.45459H10.4895Z" fill="white"/>
<path fill-rule="evenodd" clip-rule="evenodd" d="M3.30432 0.5C3.30432 0.223858 3.52818 0 3.80432 0H16.1956C16.4718 0 16.6956 0.223858 16.6956 0.5V3.95455C16.6956 4.23069 16.4718 4.45455 16.1956 4.45455H3.80432C3.52818 4.45455 3.30432 4.23069 3.30432 3.95455V0.5ZM4.30432 1V3.45455H15.6956V1H4.30432Z" fill="white"/>
<path fill-rule="evenodd" clip-rule="evenodd" d="M2.47827 10C2.47827 9.72386 2.70213 9.5 2.97827 9.5H17.0217C17.2979 9.5 17.5217 9.72386 17.5217 10V15.6818H16.5217V10.5H3.47827V15.6818H2.47827V10Z" fill="white"/>
<path fill-rule="evenodd" clip-rule="evenodd" d="M7.43481 15.1819C7.43481 14.9057 7.65867 14.6819 7.93481 14.6819H12.0652C12.3414 14.6819 12.5652 14.9057 12.5652 15.1819V19.5001C12.5652 19.7762 12.3414 20.0001 12.0652 20.0001H7.93481C7.65867 20.0001 7.43481 19.7762 7.43481 19.5001V15.1819ZM8.43481 15.6819V19.0001H11.5652V15.6819H8.43481Z" fill="#FF8A65"/>
<path fill-rule="evenodd" clip-rule="evenodd" d="M0 15.1819C0 14.9057 0.223858 14.6819 0.5 14.6819H4.63043C4.90658 14.6819 5.13043 14.9057 5.13043 15.1819V19.5001C5.13043 19.7762 4.90658 20.0001 4.63043 20.0001H0.5C0.223858 20.0001 0 19.7762 0 19.5001V15.1819ZM1 15.6819V19.0001H4.13043V15.6819H1Z" fill="#FF8A65"/>
<path fill-rule="evenodd" clip-rule="evenodd" d="M14.8696 15.1819C14.8696 14.9057 15.0934 14.6819 15.3696 14.6819H19.5C19.7761 14.6819 20 14.9057 20 15.1819V19.5001C20 19.7762 19.7761 20.0001 19.5 20.0001H15.3696C15.0934 20.0001 14.8696 19.7762 14.8696 19.5001V15.1819ZM15.8696 15.6819V19.0001H19V15.6819H15.8696Z" fill="#FF8A65"/>
</svg>
