<svg width="20" height="20" viewBox="0 0 20 20" fill="none" xmlns="http://www.w3.org/2000/svg">
<path fill-rule="evenodd" clip-rule="evenodd" d="M3 0C1.34315 0 0 1.34315 0 3V17C0 18.6569 1.34315 20 3 20H17C18.6569 20 20 18.6569 20 17V3C20 1.34315 18.6569 0 17 0H3ZM14.5855 6.54275C15.0842 6.48275 15.5568 6.35 15.9993 6.155H16C15.67 6.65 15.2515 7.08275 14.7715 7.43C14.776 7.53575 14.779 7.6415 14.779 7.74875C14.779 11.0022 12.3025 14.7522 7.774 14.7522C6.3835 14.7522 5.08975 14.3443 4 13.6468C4.19275 13.6693 4.3885 13.6805 4.58725 13.6805C5.74 13.6805 6.802 13.2875 7.645 12.6275C6.56725 12.6073 5.65825 11.8955 5.34475 10.9175C5.4955 10.946 5.65 10.961 5.8075 10.961C6.03175 10.961 6.24925 10.931 6.45625 10.8755C5.329 10.649 4.4815 9.653 4.4815 8.4605V8.4305C4.813 8.61425 5.19325 8.72525 5.59675 8.738C4.93675 8.29625 4.50175 7.544 4.50175 6.689C4.50175 6.23675 4.62175 5.81375 4.83475 5.4515C6.049 6.9395 7.86325 7.919 9.90925 8.0225C9.868 7.8425 9.8455 7.6535 9.8455 7.46C9.8455 6.101 10.948 5 12.307 5C13.0165 5 13.6555 5.2985 14.104 5.777C14.665 5.66675 15.1923 5.462 15.6678 5.18075C15.484 5.75525 15.0932 6.2375 14.5855 6.54275Z" fill="#546E7A"/>
</svg>
