<svg width="10" height="6" viewBox="0 0 10 6" fill="none" xmlns="http://www.w3.org/2000/svg">
<path fill-rule="evenodd" clip-rule="evenodd" d="M0.871651 0.165522C0.686922 -0.0397331 0.370777 -0.0563723 0.165522 0.128357C-0.0397331 0.313087 -0.0563723 0.629232 0.128357 0.834487L4.62363 5.82924C4.63092 5.83754 4.63852 5.84566 4.64644 5.85357C4.74333 5.95061 4.87142 5.99997 5 6.00001C5.07382 6.00003 5.1478 5.98381 5.21613 5.95103C5.26598 5.92716 5.31257 5.89464 5.35357 5.85357C5.36149 5.84566 5.36909 5.83754 5.37637 5.82924L9.87165 0.834487C10.0564 0.629232 10.0397 0.313087 9.83449 0.128357C9.62923 -0.0563723 9.31309 -0.0397331 9.12836 0.165522L5 4.75258L0.871651 0.165522Z" fill="#B0BEC5"/>
</svg>
