<svg width="359" height="40" viewBox="0 0 359 40" fill="none" xmlns="http://www.w3.org/2000/svg">
<path fill-rule="evenodd" clip-rule="evenodd" d="M0 8C0 6.34315 1.34315 5 3 5H27C28.6569 5 30 6.34315 30 8V32C30 33.6569 28.6569 35 27 35H3C1.34315 35 0 33.6569 0 32V8Z" fill="#DBE1E7"/>
<path fill-rule="evenodd" clip-rule="evenodd" d="M7.66372 28.0037L6.03131 10.0301H23.9687L22.3346 28.0009L14.989 30L7.66372 28.0037Z" fill="#E44D26"/>
<path fill-rule="evenodd" clip-rule="evenodd" d="M15 28.472L20.9355 26.8566L22.332 11.4997H15V28.472Z" fill="#F16529"/>
<path fill-rule="evenodd" clip-rule="evenodd" d="M15 18.1659H12.0285L11.8233 15.9085H15V13.7041H14.9922H9.36917L9.42292 14.2955L9.97484 20.3702H15V18.1659Z" fill="#EBEBEB"/>
<path fill-rule="evenodd" clip-rule="evenodd" d="M15 23.8909L14.9902 23.8935L12.4892 23.2306L12.3294 21.4725H11.1141H10.0752L10.3898 24.9337L14.9897 26.1872L15 26.1844V23.8909Z" fill="#EBEBEB"/>
<path fill-rule="evenodd" clip-rule="evenodd" d="M14.9922 18.1659V20.3702H17.7574L17.4968 23.2292L14.9922 23.8928V26.1862L19.5958 24.9337L19.6296 24.5613L20.1573 18.7578L20.2121 18.1659H19.6069H14.9922Z" fill="white"/>
<path fill-rule="evenodd" clip-rule="evenodd" d="M14.9922 13.7041V15.0733V15.9032V15.9085H20.4092H20.4164L20.4614 15.4131L20.5637 14.2955L20.6174 13.7041H14.9922Z" fill="white"/>
<path d="M47.056 19.506H42.352V24H41.19V14.2H42.352V18.47H47.056V14.2H48.218V24H47.056V19.506ZM56.9243 15.236H53.8723V24H52.7103V15.236H49.6582V14.2H56.9243V15.236ZM65.8939 17.42L66.0339 15.95H65.9639L65.4319 17.294L62.8839 21.718H62.5339L59.8319 17.28L59.3279 15.95H59.2579L59.4539 17.406V24H58.3619V14.2H59.2299L62.2959 19.212L62.7579 20.304H62.7859L63.2199 19.184L66.1459 14.2H67.0559V24H65.8939V17.42ZM75.2321 24H69.4361V14.2H70.5981V22.964H75.2321V24ZM78.4605 23.188C79.1045 23.188 79.6365 23.0013 80.0565 22.628C80.4765 22.2547 80.6865 21.7133 80.6865 21.004C80.6865 20.3227 80.4765 19.814 80.0565 19.478C79.6458 19.142 79.0765 18.974 78.3485 18.974L77.1725 19.044V14.2H81.5405V15.236H78.2225V18.022L78.8245 17.994C79.7485 18.0033 80.4765 18.26 81.0085 18.764C81.5405 19.268 81.8065 19.9913 81.8065 20.934C81.8065 21.4567 81.7178 21.9233 81.5405 22.334C81.3632 22.7353 81.1205 23.0713 80.8125 23.342C80.5138 23.6127 80.1592 23.818 79.7485 23.958C79.3378 24.098 78.8992 24.168 78.4325 24.168C78.0125 24.168 77.6578 24.1447 77.3685 24.098C77.0792 24.0513 76.8085 23.9813 76.5565 23.888L76.8505 22.936C77.0652 23.02 77.2938 23.0853 77.5365 23.132C77.7885 23.1693 78.0965 23.188 78.4605 23.188ZM93.9203 15.236H90.8683V24H89.7063V15.236H86.6543V14.2H93.9203V15.236ZM98.565 23.44C98.285 23.664 97.9303 23.8413 97.501 23.972C97.081 24.1027 96.633 24.168 96.157 24.168C95.625 24.168 95.163 24.084 94.771 23.916C94.379 23.7387 94.057 23.4913 93.805 23.174C93.553 22.8473 93.3663 22.46 93.245 22.012C93.1236 21.564 93.063 21.06 93.063 20.5C93.063 19.3053 93.329 18.3953 93.861 17.77C94.393 17.1447 95.1536 16.832 96.143 16.832C96.4603 16.832 96.7776 16.8693 97.095 16.944C97.4123 17.0093 97.697 17.14 97.949 17.336C98.201 17.532 98.4063 17.812 98.565 18.176C98.7236 18.5307 98.803 19.002 98.803 19.59C98.803 19.898 98.775 20.2387 98.719 20.612H94.225C94.225 21.0227 94.267 21.3867 94.351 21.704C94.435 22.0213 94.5656 22.292 94.743 22.516C94.9203 22.7307 95.149 22.8987 95.429 23.02C95.7183 23.132 96.0683 23.188 96.479 23.188C96.7963 23.188 97.1136 23.132 97.431 23.02C97.7483 22.908 97.9863 22.7773 98.145 22.628L98.565 23.44ZM96.157 17.812C95.6063 17.812 95.163 17.9567 94.827 18.246C94.5003 18.5353 94.3043 19.03 94.239 19.73H97.711C97.711 19.0207 97.5756 18.526 97.305 18.246C97.0343 17.9567 96.6516 17.812 96.157 17.812ZM104.666 24V20.038C104.666 19.6647 104.648 19.3427 104.61 19.072C104.582 18.792 104.522 18.5587 104.428 18.372C104.335 18.1853 104.2 18.0453 104.022 17.952C103.854 17.8587 103.63 17.812 103.35 17.812C102.921 17.812 102.562 17.9427 102.272 18.204C101.992 18.4653 101.796 18.792 101.684 19.184V24H100.564V17H101.348L101.558 17.854H101.614C101.866 17.5553 102.156 17.3127 102.482 17.126C102.818 16.93 103.252 16.832 103.784 16.832C104.232 16.832 104.596 16.9207 104.876 17.098C105.166 17.266 105.39 17.5647 105.548 17.994C105.763 17.63 106.057 17.3453 106.43 17.14C106.813 16.9347 107.242 16.832 107.718 16.832C108.11 16.832 108.442 16.8787 108.712 16.972C108.983 17.056 109.207 17.21 109.384 17.434C109.562 17.658 109.688 17.9613 109.762 18.344C109.846 18.7267 109.888 19.212 109.888 19.8V24H108.768V19.786C108.768 19.45 108.75 19.1607 108.712 18.918C108.684 18.666 108.619 18.4607 108.516 18.302C108.423 18.134 108.288 18.0127 108.11 17.938C107.942 17.854 107.718 17.812 107.438 17.812C106.972 17.812 106.608 17.9427 106.346 18.204C106.085 18.4653 105.898 18.8387 105.786 19.324V24H104.666ZM111.926 17H112.696L112.906 17.84H112.962C113.176 17.5133 113.452 17.266 113.788 17.098C114.133 16.9207 114.525 16.832 114.964 16.832C115.897 16.832 116.592 17.1073 117.05 17.658C117.507 18.2087 117.736 19.1093 117.736 20.36C117.736 20.948 117.656 21.48 117.498 21.956C117.348 22.4227 117.134 22.8193 116.854 23.146C116.574 23.4727 116.233 23.7247 115.832 23.902C115.44 24.0793 115.001 24.168 114.516 24.168C114.17 24.168 113.895 24.1447 113.69 24.098C113.494 24.0607 113.279 23.9907 113.046 23.888V26.8H111.926V17ZM114.754 17.812C114.278 17.812 113.9 17.938 113.62 18.19C113.349 18.4327 113.158 18.806 113.046 19.31V22.782C113.214 22.9127 113.405 23.0153 113.62 23.09C113.834 23.1553 114.119 23.188 114.474 23.188C115.118 23.188 115.626 22.95 116 22.474C116.382 21.9887 116.574 21.2793 116.574 20.346C116.574 19.9633 116.541 19.618 116.476 19.31C116.41 18.9927 116.303 18.7267 116.154 18.512C116.014 18.288 115.827 18.1153 115.594 17.994C115.37 17.8727 115.09 17.812 114.754 17.812ZM120.746 22.278C120.746 22.6047 120.802 22.838 120.914 22.978C121.026 23.118 121.185 23.188 121.39 23.188C121.511 23.188 121.642 23.1787 121.782 23.16C121.922 23.1413 122.081 23.0993 122.258 23.034L122.384 23.916C122.235 23.9907 122.025 24.0513 121.754 24.098C121.493 24.1447 121.264 24.168 121.068 24.168C120.648 24.168 120.303 24.0513 120.032 23.818C119.761 23.5753 119.626 23.1693 119.626 22.6V14.2H120.746V22.278ZM123.476 17.518C123.83 17.3033 124.241 17.1447 124.708 17.042C125.184 16.9393 125.678 16.888 126.192 16.888C126.677 16.888 127.064 16.9533 127.354 17.084C127.652 17.2147 127.876 17.3873 128.026 17.602C128.184 17.8073 128.287 18.036 128.334 18.288C128.39 18.54 128.418 18.792 128.418 19.044C128.418 19.604 128.404 20.15 128.376 20.682C128.348 21.214 128.334 21.718 128.334 22.194C128.334 22.5393 128.348 22.866 128.376 23.174C128.404 23.482 128.455 23.7667 128.53 24.028H127.704L127.41 23.048H127.34C127.256 23.1787 127.148 23.3093 127.018 23.44C126.896 23.5613 126.747 23.6733 126.57 23.776C126.392 23.8693 126.187 23.9487 125.954 24.014C125.72 24.0793 125.454 24.112 125.156 24.112C124.857 24.112 124.577 24.0653 124.316 23.972C124.064 23.8787 123.844 23.748 123.658 23.58C123.471 23.4027 123.322 23.1927 123.21 22.95C123.107 22.7073 123.056 22.432 123.056 22.124C123.056 21.7133 123.14 21.3727 123.308 21.102C123.476 20.822 123.709 20.6027 124.008 20.444C124.316 20.276 124.68 20.1593 125.1 20.094C125.529 20.0193 126 19.982 126.514 19.982C126.644 19.982 126.77 19.982 126.892 19.982C127.022 19.982 127.153 19.9913 127.284 20.01C127.312 19.73 127.326 19.478 127.326 19.254C127.326 18.7407 127.223 18.3813 127.018 18.176C126.812 17.9707 126.439 17.868 125.898 17.868C125.739 17.868 125.566 17.882 125.38 17.91C125.202 17.9287 125.016 17.9613 124.82 18.008C124.633 18.0453 124.451 18.0967 124.274 18.162C124.106 18.218 123.956 18.2833 123.826 18.358L123.476 17.518ZM125.464 23.132C125.725 23.132 125.958 23.0993 126.164 23.034C126.369 22.9593 126.546 22.8707 126.696 22.768C126.845 22.656 126.966 22.5347 127.06 22.404C127.162 22.2733 127.237 22.1473 127.284 22.026V20.864C127.153 20.8547 127.018 20.85 126.878 20.85C126.747 20.8407 126.616 20.836 126.486 20.836C126.196 20.836 125.912 20.8547 125.632 20.892C125.361 20.92 125.118 20.9807 124.904 21.074C124.698 21.158 124.53 21.2793 124.4 21.438C124.278 21.5873 124.218 21.7787 124.218 22.012C124.218 22.3387 124.334 22.6093 124.568 22.824C124.801 23.0293 125.1 23.132 125.464 23.132ZM129.609 17H130.701V15.614L131.821 15.292V17H133.725V17.98H131.821V21.858C131.821 22.3433 131.882 22.6887 132.003 22.894C132.124 23.09 132.33 23.188 132.619 23.188C132.862 23.188 133.067 23.1647 133.235 23.118C133.403 23.062 133.59 22.992 133.795 22.908L134.047 23.762C133.795 23.8833 133.52 23.9813 133.221 24.056C132.922 24.1307 132.6 24.168 132.255 24.168C131.686 24.168 131.284 24.0093 131.051 23.692C130.818 23.3653 130.701 22.824 130.701 22.068V17.98H129.609V17ZM140.237 23.44C139.957 23.664 139.602 23.8413 139.173 23.972C138.753 24.1027 138.305 24.168 137.829 24.168C137.297 24.168 136.835 24.084 136.443 23.916C136.051 23.7387 135.729 23.4913 135.477 23.174C135.225 22.8473 135.038 22.46 134.917 22.012C134.795 21.564 134.735 21.06 134.735 20.5C134.735 19.3053 135.001 18.3953 135.533 17.77C136.065 17.1447 136.825 16.832 137.815 16.832C138.132 16.832 138.449 16.8693 138.767 16.944C139.084 17.0093 139.369 17.14 139.621 17.336C139.873 17.532 140.078 17.812 140.237 18.176C140.395 18.5307 140.475 19.002 140.475 19.59C140.475 19.898 140.447 20.2387 140.391 20.612H135.897C135.897 21.0227 135.939 21.3867 136.023 21.704C136.107 22.0213 136.237 22.292 136.415 22.516C136.592 22.7307 136.821 22.8987 137.101 23.02C137.39 23.132 137.74 23.188 138.151 23.188C138.468 23.188 138.785 23.132 139.103 23.02C139.42 22.908 139.658 22.7773 139.817 22.628L140.237 23.44ZM137.829 17.812C137.278 17.812 136.835 17.9567 136.499 18.246C136.172 18.5353 135.976 19.03 135.911 19.73H139.383C139.383 19.0207 139.247 18.526 138.977 18.246C138.706 17.9567 138.323 17.812 137.829 17.812Z" fill="#243238"/>
</svg>
