<svg width="120" height="20" viewBox="0 0 120 20" fill="none" xmlns="http://www.w3.org/2000/svg">
<path opacity="0.01" fill-rule="evenodd" clip-rule="evenodd" d="M100 0H120V20H100V0Z" fill="#D8D8D8"/>
<path d="M110.232 16.3117L110 16.1897L109.768 16.3117L104.484 19.0865L105.493 13.2103L105.537 12.951L105.349 12.7675L101.075 8.60651L106.982 7.74923L107.242 7.71148L107.358 7.47589L110 2.12877L112.642 7.47589L112.758 7.71148L113.018 7.74923L118.925 8.60651L114.651 12.7675L114.463 12.951L114.507 13.2103L115.516 19.0865L110.232 16.3117Z" fill="white" fill-opacity="0.01" stroke="#B0BEC5"/>
<path opacity="0.01" fill-rule="evenodd" clip-rule="evenodd" d="M75 0H95V20H75V0Z" fill="#D8D8D8"/>
<path fill-rule="evenodd" clip-rule="evenodd" d="M85 16.7544L78.8197 20L80 13.1257L75 8.25735L81.9098 7.25441L85 1L88.0902 7.25441L95 8.25735L90 13.1257L91.1803 20L85 16.7544Z" fill="#FFAB00"/>
<path opacity="0.01" fill-rule="evenodd" clip-rule="evenodd" d="M50 0H70V20H50V0Z" fill="#D8D8D8"/>
<path fill-rule="evenodd" clip-rule="evenodd" d="M60 16.7544L53.8197 20L55 13.1257L50 8.25735L56.9098 7.25441L60 1L63.0902 7.25441L70 8.25735L65 13.1257L66.1803 20L60 16.7544Z" fill="#FFAB00"/>
<path opacity="0.01" fill-rule="evenodd" clip-rule="evenodd" d="M25 0H45V20H25V0Z" fill="#D8D8D8"/>
<path fill-rule="evenodd" clip-rule="evenodd" d="M35 16.7544L28.8197 20L30 13.1257L25 8.25735L31.9098 7.25441L35 1L38.0902 7.25441L45 8.25735L40 13.1257L41.1803 20L35 16.7544Z" fill="#FFAB00"/>
<path opacity="0.01" fill-rule="evenodd" clip-rule="evenodd" d="M0 0H20V20H0V0Z" fill="#D8D8D8"/>
<path fill-rule="evenodd" clip-rule="evenodd" d="M10 16.7544L3.81966 20L5 13.1257L0 8.25735L6.90983 7.25441L10 1L13.0902 7.25441L20 8.25735L15 13.1257L16.1803 20L10 16.7544Z" fill="#FFAB00"/>
</svg>
