<svg width="6" height="10" viewBox="0 0 6 10" fill="none" xmlns="http://www.w3.org/2000/svg">
<path fill-rule="evenodd" clip-rule="evenodd" d="M5.83448 0.871651C6.03973 0.686922 6.05637 0.370777 5.87164 0.165522C5.68691 -0.0397331 5.37077 -0.0563723 5.16551 0.128357L0.171082 4.62335C0.161873 4.63141 0.152898 4.63986 0.14418 4.64871C0.0486231 4.74532 3.33786e-05 4.87241 -8.58307e-06 5C-3.33786e-05 5.07481 0.0166349 5.1498 0.0503139 5.2189C0.073606 5.26679 0.104931 5.31161 0.14418 5.35129C0.152898 5.36014 0.161873 5.36859 0.171082 5.37665L5.16551 9.87164C5.37077 10.0564 5.68691 10.0397 5.87164 9.83448C6.05637 9.62922 6.03973 9.31308 5.83448 9.12835L1.24742 5L5.83448 0.871651Z" fill="#243238"/>
</svg>
