<svg width="112" height="60" viewBox="0 0 112 60" fill="none" xmlns="http://www.w3.org/2000/svg">
<path d="M55.852 33.284H52.24L51.26 36H50.112L53.822 26.046H54.354L58.078 36H56.86L55.852 33.284ZM52.618 32.276H55.502L54.41 29.294L54.06 27.81H54.046L53.696 29.322L52.618 32.276ZM61.0315 32.85H60.3875V36H59.2675V29H60.3875V32.164L60.9895 31.968L63.2295 29H64.4475L62.2775 31.814L61.6895 32.276L62.4175 32.836L64.7555 36H63.3695L61.0315 32.85ZM65.841 29.518C66.1957 29.3033 66.6063 29.1447 67.073 29.042C67.549 28.9393 68.0437 28.888 68.557 28.888C69.0423 28.888 69.4297 28.9533 69.719 29.084C70.0177 29.2147 70.2417 29.3873 70.391 29.602C70.5497 29.8073 70.6523 30.036 70.699 30.288C70.755 30.54 70.783 30.792 70.783 31.044C70.783 31.604 70.769 32.15 70.741 32.682C70.713 33.214 70.699 33.718 70.699 34.194C70.699 34.5393 70.713 34.866 70.741 35.174C70.769 35.482 70.8203 35.7667 70.895 36.028H70.069L69.775 35.048H69.705C69.621 35.1787 69.5137 35.3093 69.383 35.44C69.2617 35.5613 69.1123 35.6733 68.935 35.776C68.7577 35.8693 68.5523 35.9487 68.319 36.014C68.0857 36.0793 67.8197 36.112 67.521 36.112C67.2223 36.112 66.9423 36.0653 66.681 35.972C66.429 35.8787 66.2097 35.748 66.023 35.58C65.8363 35.4027 65.687 35.1927 65.575 34.95C65.4723 34.7073 65.421 34.432 65.421 34.124C65.421 33.7133 65.505 33.3727 65.673 33.102C65.841 32.822 66.0743 32.6027 66.373 32.444C66.681 32.276 67.045 32.1593 67.465 32.094C67.8943 32.0193 68.3657 31.982 68.879 31.982C69.0097 31.982 69.1357 31.982 69.257 31.982C69.3877 31.982 69.5183 31.9913 69.649 32.01C69.677 31.73 69.691 31.478 69.691 31.254C69.691 30.7407 69.5883 30.3813 69.383 30.176C69.1777 29.9707 68.8043 29.868 68.263 29.868C68.1043 29.868 67.9317 29.882 67.745 29.91C67.5677 29.9287 67.381 29.9613 67.185 30.008C66.9983 30.0453 66.8163 30.0967 66.639 30.162C66.471 30.218 66.3217 30.2833 66.191 30.358L65.841 29.518ZM67.829 35.132C68.0903 35.132 68.3237 35.0993 68.529 35.034C68.7343 34.9593 68.9117 34.8707 69.061 34.768C69.2103 34.656 69.3317 34.5347 69.425 34.404C69.5277 34.2733 69.6023 34.1473 69.649 34.026V32.864C69.5183 32.8547 69.383 32.85 69.243 32.85C69.1123 32.8407 68.9817 32.836 68.851 32.836C68.5617 32.836 68.277 32.8547 67.997 32.892C67.7263 32.92 67.4837 32.9807 67.269 33.074C67.0637 33.158 66.8957 33.2793 66.765 33.438C66.6437 33.5873 66.583 33.7787 66.583 34.012C66.583 34.3387 66.6997 34.6093 66.933 34.824C67.1663 35.0293 67.465 35.132 67.829 35.132ZM74.9563 33.536L75.3483 34.88H75.4183L75.7263 33.522L77.0843 29H78.2183L76.1463 35.286C75.9876 35.7433 75.829 36.1867 75.6703 36.616C75.521 37.0453 75.353 37.428 75.1663 37.764C74.9796 38.1 74.7696 38.366 74.5363 38.562C74.303 38.7673 74.0323 38.87 73.7243 38.87C73.3883 38.87 73.113 38.8233 72.8983 38.73L73.0943 37.764C73.2156 37.8107 73.3323 37.834 73.4443 37.834C73.7056 37.834 73.9576 37.694 74.2003 37.414C74.443 37.1433 74.6436 36.672 74.8023 36L71.9883 29H73.2763L74.9563 33.536ZM83.7038 32.906H80.5398V36H79.4198V29H80.5398V31.926H83.7038V29H84.8238V36H83.7038V32.906ZM91.4463 29.98H89.2483V36H88.1283V29.98H85.9303V29H91.4463V29.98Z" fill="#B0BEC5"/>
<path fill-rule="evenodd" clip-rule="evenodd" d="M20 30C20 24.4766 24.4766 20 30 20C35.5235 20 40.0001 24.4766 40.0001 30C40.0001 32.7366 38.8986 35.2173 37.1184 37.0219C36.9472 37.1954 36.6758 37.2202 36.476 37.0805C35.9979 36.7435 35.286 36.4299 34.4051 36.0892C33.9099 35.8976 33.3731 35.7035 32.8155 35.5019C32.3786 35.3439 31.929 35.1813 31.4766 35.0117C31.2815 34.9385 31.1522 34.752 31.1522 34.5435V32.4783C31.1522 32.266 31.2863 32.0771 31.486 32.0068C31.4901 32.0052 31.4914 32.0047 31.4994 32.001C31.5245 31.9897 31.5454 31.9797 31.5851 31.9549C31.6813 31.8967 31.775 31.8295 31.8922 31.6882C32.1175 31.4254 32.3914 30.9242 32.3914 30C32.3914 29.7427 32.5858 29.5307 32.8359 29.5031C32.8363 29.5023 32.8367 29.5015 32.8372 29.5007C32.871 29.4393 32.9031 29.3218 32.9031 29.174C32.9031 29.0261 32.871 28.9086 32.8372 28.8472C32.8367 28.8464 32.8363 28.8456 32.8359 28.8448C32.5858 28.8172 32.3914 28.6052 32.3914 28.3479C32.3914 28.2418 32.4246 28.128 32.4391 28.0785L32.4408 28.0726C32.4601 28.0063 32.4862 27.9249 32.5144 27.8365L32.52 27.8192C32.5809 27.6288 32.6548 27.3965 32.7204 27.1342C32.8553 26.5971 32.9314 26.026 32.8193 25.5778C32.7715 25.3864 32.5819 25.1677 32.1552 24.988C31.7197 24.8009 31.1979 24.7157 30.6196 24.7174C30.0413 24.7157 29.5195 24.8009 29.084 24.988C28.6573 25.1677 28.4677 25.3864 28.4199 25.5778C28.3552 25.8367 28.0985 25.9992 27.8368 25.9468C27.4314 25.8658 27.3502 25.9741 27.3339 25.9959C27.3336 25.9963 27.3333 25.9967 27.3331 25.997C27.2741 26.0748 27.222 26.2638 27.2461 26.6087C27.2676 26.9396 27.3488 27.2846 27.4307 27.5931C27.4576 27.6946 27.4841 27.7892 27.508 27.8741C27.52 27.9168 27.5313 27.9571 27.5416 27.9946C27.5572 28.0512 27.5721 28.108 27.5826 28.1532L27.5827 28.1536C27.5905 28.1875 27.6087 28.2668 27.6087 28.3479C27.6087 28.6052 27.4142 28.8172 27.1642 28.8448C27.1638 28.8456 27.1633 28.8464 27.1629 28.8472C27.1291 28.9086 27.097 29.0261 27.097 29.174C27.097 29.3218 27.1291 29.4393 27.1629 29.5007C27.1633 29.5015 27.1638 29.5023 27.1642 29.5031C27.4142 29.5307 27.6087 29.7427 27.6087 30C27.6087 30.9242 27.8826 31.4254 28.1079 31.6882C28.225 31.8295 28.3188 31.8967 28.415 31.9549C28.4547 31.9797 28.4756 31.9897 28.5007 32.001C28.5087 32.0047 28.51 32.0052 28.5142 32.0068L28.5146 32.007C28.5143 32.0068 28.5139 32.0067 28.5138 32.0067C28.5145 32.0069 28.5107 32.0056 28.5107 32.0056L28.5085 32.0048L28.5073 32.0044L28.5067 32.0042C28.5063 32.0041 28.506 32.004 28.3479 32.4783H28.8479V34.5435C28.8479 34.7514 28.7192 34.9376 28.5248 35.0112C28.1145 35.1664 27.6898 35.3203 27.2658 35.474C26.7335 35.6669 26.2021 35.8595 25.7015 36.0538C24.8038 36.4019 24.0404 36.7369 23.5312 37.0918C23.3317 37.2299 23.0618 37.2047 22.8912 37.0322C21.105 35.2259 20 32.7418 20 30ZM27.8479 32.7789C27.712 32.6888 27.521 32.536 27.3487 32.339C26.9967 31.9285 26.6835 31.2964 26.6203 30.354C26.4719 30.2551 26.3614 30.1183 26.2869 29.9831C26.1502 29.7347 26.097 29.4392 26.097 29.174C26.097 28.9087 26.1502 28.6132 26.2869 28.3648C26.3442 28.2607 26.4229 28.1557 26.5238 28.0678C26.5051 28.0011 26.4849 27.9278 26.4641 27.8495C26.3782 27.5253 26.2786 27.0873 26.2485 26.6783C26.221 26.2834 26.2463 25.7756 26.5359 25.3933C26.794 25.0525 27.1766 24.9094 27.6231 24.9191C27.8647 24.5184 28.2743 24.2439 28.696 24.0664C29.2414 23.8404 29.9588 23.7191 30.6196 23.7174C31.2804 23.7191 31.9978 23.8404 32.5433 24.0664C33.0975 24.2997 33.6308 24.7006 33.7895 25.3353C33.9641 26.0337 33.8337 26.8067 33.6903 27.3777C33.6226 27.6466 33.5467 27.8909 33.4873 28.0775C33.5829 28.1634 33.6579 28.2645 33.7132 28.3648C33.8499 28.6132 33.9031 28.9087 33.9031 29.174C33.9031 29.4392 33.8499 29.7347 33.7132 29.9831C33.6387 30.1183 33.5282 30.2551 33.3798 30.354C33.3165 31.2964 33.0033 31.9285 32.6514 32.339C32.4791 32.536 32.288 32.6888 32.1522 32.7789V34.1961C32.4884 34.3202 32.8235 34.4414 33.1531 34.5606C33.714 34.7634 34.259 34.9605 34.766 35.1566C35.4875 35.4359 36.1558 35.7258 36.6807 36.029C38.122 34.4331 39.0001 32.3192 39.0001 30C39.0001 25.0289 34.9712 21 30 21C25.0289 21 21 25.0289 21 30C21 32.3244 21.8814 34.442 23.3285 36.0398C23.8851 35.7181 24.5961 35.4101 25.3398 35.1215C25.8526 34.9226 26.392 34.7271 26.9272 34.5331C27.2375 34.4206 27.5464 34.3087 27.8479 34.1968V32.7789ZM26.6124 28.3983C26.6124 28.3983 26.6122 28.3972 26.6119 28.3953L26.6124 28.3983ZM28.5146 32.007C28.5151 32.0072 28.5155 32.0073 28.5152 32.0072L28.5146 32.007Z" fill="#B0BEC5"/>
<path fill-rule="evenodd" clip-rule="evenodd" d="M37.1177 37.0217C35.3045 38.8602 32.7854 40 30.0002 40C27.2193 40 24.7038 38.8637 22.8915 37.0322L23.6023 36.3289C25.2347 37.9785 27.4974 39 30.0002 39C32.5068 39 34.7725 37.9754 36.4057 36.3195L37.1177 37.0217Z" fill="#B0BEC5"/>
</svg>
