<svg width="300" height="134" viewBox="0 0 300 134" fill="none" xmlns="http://www.w3.org/2000/svg">
<path d="M0 3C0 1.34314 1.34315 0 3 0H297C298.657 0 300 1.34315 300 3V134H0V3Z" fill="url(#paint0_linear)"/>
<path fill-rule="evenodd" clip-rule="evenodd" d="M175.13 80.8044C175.13 80.5283 175.354 80.3044 175.63 80.3044H186.37C186.646 80.3044 186.87 80.5283 186.87 80.8044C186.87 81.0806 186.646 81.3044 186.37 81.3044H175.63C175.354 81.3044 175.13 81.0806 175.13 80.8044Z" fill="#243238"/>
<path fill-rule="evenodd" clip-rule="evenodd" d="M177.709 77.2001C177.803 77.0742 177.951 77.0001 178.109 77.0001H183.891C184.049 77.0001 184.197 77.0742 184.291 77.2001L186.77 80.5045C186.911 80.6928 186.902 80.954 186.747 81.1319L181.378 87.3284L181 87.0009L180.622 87.3284L175.253 81.1319C175.098 80.954 175.089 80.6928 175.23 80.5045L177.709 77.2001ZM181 86.2375L185.728 80.7818L183.641 78.0001H178.359L176.272 80.7818L181 86.2375Z" fill="#243238"/>
<path fill-rule="evenodd" clip-rule="evenodd" d="M182.565 94.0219C182.565 93.7457 182.789 93.5219 183.065 93.5219H188.022C188.298 93.5219 188.522 93.7457 188.522 94.0219V96.5001C188.522 96.7763 188.298 97.0001 188.022 97.0001H183.065C182.789 97.0001 182.565 96.7763 182.565 96.5001V94.0219ZM183.565 94.5219V96.0001H187.522V94.5219H183.565Z" fill="#243238"/>
<path fill-rule="evenodd" clip-rule="evenodd" d="M190.669 82.348C190.67 82.3482 190.671 82.3484 190.5 82.8184L190.671 82.3484C190.868 82.4202 191 82.6081 191 82.8184V89.4784C191 89.6109 190.947 89.7379 190.854 89.8317C190.517 90.1687 189.69 90.9893 188.948 91.725C188.577 92.0929 188.227 92.4397 187.969 92.6946L187.696 92.9657V94.0218C187.696 94.298 187.472 94.5218 187.196 94.5218C186.92 94.5218 186.696 94.298 186.696 94.0218V92.7571C186.696 92.6236 186.749 92.4957 186.844 92.4018L187.266 91.9841C187.523 91.7293 187.873 91.3825 188.244 91.0148C188.894 90.3705 189.608 89.6623 190 89.2711V83.3697C189.947 83.4024 189.888 83.4479 189.826 83.5116C189.455 83.8948 188.935 84.9704 188.935 87.8262C188.935 87.9588 188.882 88.086 188.788 88.1797L186.336 90.6324C186.178 90.79 185.935 90.8243 185.74 90.7163C185.545 90.6084 185.445 90.3844 185.495 90.1671L186.063 87.6888L186.064 87.6842C186.171 87.2374 185.996 87.0892 185.952 87.0668C185.923 87.0516 185.884 87.0442 185.829 87.0634C185.772 87.0833 185.676 87.1417 185.577 87.296C185.341 87.6621 185.043 88.4229 184.791 89.1444C184.669 89.4954 184.564 89.8179 184.489 90.0565C184.452 90.1751 184.422 90.2708 184.402 90.338L184.391 90.3716V94.0218C184.391 94.298 184.167 94.5218 183.891 94.5218C183.615 94.5218 183.391 94.298 183.391 94.0218V90.2978C183.391 90.2497 183.398 90.2017 183.412 90.1555L183.414 90.1477L183.421 90.1264L183.445 90.046C183.466 89.9774 183.497 89.8771 183.536 89.7552C183.612 89.5129 183.721 89.1764 183.847 88.8154C184.092 88.113 184.425 87.2377 184.735 86.7554C185.133 86.1384 185.814 85.8697 186.412 86.1784C186.988 86.4762 187.214 87.1743 187.037 87.9145L186.858 88.6957L187.936 87.6182C187.96 84.8563 188.464 83.4803 189.109 82.8153C189.453 82.4602 189.822 82.3249 190.127 82.2939C190.27 82.2815 190.416 82.292 190.492 82.3041C190.537 82.3118 190.584 82.3226 190.607 82.3287C190.622 82.3327 190.638 82.3376 190.646 82.34L190.66 82.3446L190.666 82.3466L190.668 82.3476L190.669 82.348Z" fill="#243238"/>
<path fill-rule="evenodd" clip-rule="evenodd" d="M173.478 94.0219C173.478 93.7457 173.702 93.5219 173.978 93.5219H178.935C179.211 93.5219 179.435 93.7457 179.435 94.0219V96.5001C179.435 96.7763 179.211 97.0001 178.935 97.0001H173.978C173.702 97.0001 173.478 96.7763 173.478 96.5001V94.0219ZM174.478 94.5219V96.0001H178.435V94.5219H174.478Z" fill="#243238"/>
<path fill-rule="evenodd" clip-rule="evenodd" d="M172 83.3697V89.2479C172.461 89.6552 173.186 90.3757 173.819 91.0195C174.181 91.3886 174.519 91.7373 174.764 91.9927C174.888 92.1205 174.988 92.2255 175.058 92.2983L175.138 92.3827L175.166 92.412C175.255 92.505 175.304 92.6288 175.304 92.7571V94.0218C175.304 94.298 175.08 94.5218 174.804 94.5218C174.528 94.5218 174.304 94.298 174.304 94.0218V92.9574C174.238 92.8877 174.149 92.7955 174.044 92.6861C173.799 92.4317 173.465 92.0868 173.105 91.7203C172.385 90.9869 171.579 90.1864 171.184 89.8661C171.068 89.7712 171 89.6288 171 89.4784V82.8184C171 82.6081 171.132 82.4202 171.329 82.3484L171.5 82.8184C171.329 82.3484 171.33 82.3482 171.331 82.348L171.332 82.3476L171.334 82.3466L171.34 82.3446L171.354 82.34C171.362 82.3376 171.378 82.3327 171.393 82.3287C171.416 82.3226 171.463 82.3118 171.508 82.3041C171.584 82.292 171.73 82.2815 171.873 82.2939C172.178 82.3249 172.547 82.4602 172.892 82.8153C173.536 83.4803 174.04 84.8563 174.064 87.6182L175.142 88.6957L174.963 87.9145C174.786 87.1743 175.012 86.4762 175.588 86.1784C176.186 85.8697 176.867 86.1381 177.264 86.7551C177.574 87.2374 177.908 88.113 178.153 88.8154C178.279 89.1764 178.388 89.5129 178.465 89.7552C178.503 89.8771 178.534 89.9774 178.555 90.046L178.579 90.1264L178.586 90.1477L178.588 90.1549C178.602 90.2011 178.609 90.2497 178.609 90.2978V94.0218C178.609 94.298 178.385 94.5218 178.109 94.5218C177.833 94.5218 177.609 94.298 177.609 94.0218V90.3716L177.599 90.338C177.578 90.2708 177.548 90.1751 177.511 90.0565C177.436 89.8179 177.331 89.4954 177.209 89.1444C176.957 88.4229 176.659 87.6621 176.423 87.296C176.324 87.1417 176.228 87.0833 176.171 87.0634C176.116 87.0442 176.077 87.0516 176.048 87.0668C176.004 87.0892 175.829 87.2374 175.936 87.6842L175.937 87.6888L176.505 90.1671C176.555 90.3844 176.455 90.6084 176.26 90.7163C176.065 90.8243 175.822 90.79 175.664 90.6324L173.212 88.1797C173.118 88.086 173.065 87.9588 173.065 87.8262C173.065 84.9704 172.545 83.8948 172.174 83.5116C172.112 83.4479 172.053 83.4024 172 83.3697Z" fill="#243238"/>
<path fill-rule="evenodd" clip-rule="evenodd" d="M177.991 77.0142C178.259 76.9492 178.53 77.114 178.595 77.3824L179.39 80.6654L181.474 86.8411C181.562 87.1027 181.422 87.3864 181.16 87.4747C180.898 87.563 180.615 87.4224 180.526 87.1608L178.435 80.9643C178.431 80.9505 178.427 80.9364 178.423 80.9222L177.623 77.6178C177.558 77.3495 177.723 77.0792 177.991 77.0142Z" fill="#243238"/>
<path fill-rule="evenodd" clip-rule="evenodd" d="M184.013 77.015C184.28 77.082 184.443 77.3535 184.376 77.6214L183.55 80.9257C183.547 80.9373 183.544 80.9488 183.54 80.9602L181.509 87.1567C181.423 87.4191 181.14 87.5621 180.878 87.4761C180.616 87.39 180.473 87.1076 180.559 86.8452L182.584 80.6658L183.406 77.3789C183.473 77.111 183.745 76.9481 184.013 77.015Z" fill="#243238"/>
<path d="M206.048 86.148H202.016V90H201.02V81.6H202.016V85.26H206.048V81.6H207.044V90H206.048V86.148ZM209.19 84H210.15V90H209.19V84ZM208.986 82.176C208.986 81.992 209.047 81.836 209.167 81.708C209.295 81.572 209.454 81.504 209.646 81.504C209.839 81.504 210.002 81.572 210.138 81.708C210.275 81.836 210.342 81.992 210.342 82.176C210.342 82.36 210.275 82.512 210.138 82.632C210.002 82.752 209.839 82.812 209.646 82.812C209.454 82.812 209.295 82.752 209.167 82.632C209.047 82.512 208.986 82.36 208.986 82.176ZM216.793 90.276C216.793 91.052 216.585 91.624 216.169 91.992C215.761 92.36 215.153 92.544 214.345 92.544C213.865 92.544 213.477 92.512 213.181 92.448C212.893 92.392 212.645 92.316 212.437 92.22L212.689 91.404C212.873 91.476 213.077 91.544 213.301 91.608C213.525 91.672 213.817 91.704 214.177 91.704C214.513 91.704 214.785 91.672 214.993 91.608C215.209 91.552 215.381 91.452 215.509 91.308C215.637 91.172 215.725 90.992 215.773 90.768C215.821 90.552 215.845 90.292 215.845 89.988V89.412H215.797C215.637 89.644 215.433 89.824 215.185 89.952C214.937 90.072 214.613 90.132 214.213 90.132C213.405 90.132 212.809 89.88 212.425 89.376C212.049 88.872 211.861 88.088 211.861 87.024C211.861 86 212.105 85.224 212.593 84.696C213.081 84.16 213.801 83.892 214.753 83.892C215.209 83.892 215.597 83.928 215.917 84C216.245 84.072 216.537 84.156 216.793 84.252V90.276ZM214.381 89.292C214.789 89.292 215.109 89.192 215.341 88.992C215.573 88.784 215.737 88.464 215.833 88.032V84.96C215.513 84.808 215.105 84.732 214.609 84.732C214.065 84.732 213.637 84.916 213.325 85.284C213.013 85.652 212.857 86.228 212.857 87.012C212.857 87.348 212.885 87.656 212.941 87.936C212.997 88.216 213.085 88.456 213.205 88.656C213.325 88.856 213.481 89.012 213.673 89.124C213.865 89.236 214.101 89.292 214.381 89.292ZM222.495 90V86.58C222.495 86.268 222.475 85.996 222.435 85.764C222.403 85.524 222.339 85.328 222.243 85.176C222.147 85.016 222.015 84.896 221.847 84.816C221.687 84.736 221.475 84.696 221.211 84.696C220.835 84.696 220.495 84.82 220.191 85.068C219.887 85.308 219.691 85.62 219.603 86.004V90H218.643V81.6H219.603V84.672H219.651C219.859 84.424 220.107 84.228 220.395 84.084C220.691 83.932 221.055 83.856 221.487 83.856C221.823 83.856 222.115 83.896 222.363 83.976C222.611 84.048 222.815 84.18 222.975 84.372C223.143 84.564 223.263 84.824 223.335 85.152C223.415 85.472 223.455 85.88 223.455 86.376V90H222.495ZM235.928 92.052C235.736 92.108 235.548 92.144 235.364 92.16C235.18 92.184 234.996 92.196 234.812 92.196C234.412 92.196 234.02 92.152 233.636 92.064C233.26 91.984 232.892 91.892 232.532 91.788C232.18 91.692 231.84 91.6 231.512 91.512C231.184 91.432 230.872 91.392 230.576 91.392C230.384 91.392 230.2 91.416 230.024 91.464V90.588C230.136 90.564 230.244 90.544 230.348 90.528C230.452 90.512 230.56 90.504 230.672 90.504C231.008 90.504 231.34 90.544 231.668 90.624C232.004 90.712 232.344 90.804 232.688 90.9C233.032 91.004 233.384 91.096 233.744 91.176C234.104 91.264 234.484 91.308 234.884 91.308C235.236 91.308 235.584 91.268 235.928 91.188V92.052ZM228.152 85.8C228.152 84.4 228.448 83.328 229.04 82.584C229.632 81.832 230.476 81.456 231.572 81.456C232.164 81.456 232.676 81.56 233.108 81.768C233.54 81.976 233.896 82.272 234.176 82.656C234.464 83.032 234.676 83.488 234.812 84.024C234.948 84.552 235.016 85.144 235.016 85.8C235.016 87.2 234.716 88.276 234.116 89.028C233.524 89.772 232.676 90.144 231.572 90.144C230.988 90.144 230.48 90.04 230.048 89.832C229.624 89.624 229.268 89.332 228.98 88.956C228.7 88.572 228.492 88.116 228.356 87.588C228.22 87.052 228.152 86.456 228.152 85.8ZM229.208 85.8C229.208 86.264 229.252 86.704 229.34 87.12C229.436 87.536 229.58 87.904 229.772 88.224C229.964 88.536 230.208 88.788 230.504 88.98C230.808 89.164 231.164 89.256 231.572 89.256C232.316 89.256 232.9 88.976 233.324 88.416C233.748 87.848 233.96 86.976 233.96 85.8C233.96 85.344 233.912 84.908 233.816 84.492C233.728 84.068 233.584 83.7 233.384 83.388C233.192 83.068 232.944 82.816 232.64 82.632C232.344 82.44 231.988 82.344 231.572 82.344C230.836 82.344 230.256 82.628 229.832 83.196C229.416 83.756 229.208 84.624 229.208 85.8ZM237.472 84V87.42C237.472 87.732 237.488 88.008 237.52 88.248C237.56 88.48 237.624 88.676 237.712 88.836C237.8 88.988 237.92 89.104 238.072 89.184C238.224 89.264 238.416 89.304 238.648 89.304C238.864 89.304 239.056 89.272 239.224 89.208C239.392 89.136 239.54 89.04 239.668 88.92C239.804 88.8 239.92 88.664 240.016 88.512C240.12 88.352 240.204 88.184 240.268 88.008V84H241.228V88.296C241.228 88.584 241.236 88.884 241.252 89.196C241.276 89.5 241.312 89.768 241.36 90H240.7L240.46 89.052H240.4C240.216 89.364 239.968 89.624 239.656 89.832C239.344 90.04 238.948 90.144 238.468 90.144C238.148 90.144 237.864 90.104 237.616 90.024C237.376 89.952 237.172 89.82 237.004 89.628C236.844 89.436 236.72 89.18 236.632 88.86C236.552 88.532 236.512 88.12 236.512 87.624V84H237.472ZM242.98 84.444C243.284 84.26 243.636 84.124 244.036 84.036C244.444 83.948 244.868 83.904 245.308 83.904C245.724 83.904 246.056 83.96 246.304 84.072C246.56 84.184 246.752 84.332 246.88 84.516C247.016 84.692 247.104 84.888 247.144 85.104C247.192 85.32 247.216 85.536 247.216 85.752C247.216 86.232 247.204 86.7 247.18 87.156C247.156 87.612 247.144 88.044 247.144 88.452C247.144 88.748 247.156 89.028 247.18 89.292C247.204 89.556 247.248 89.8 247.312 90.024H246.604L246.352 89.184H246.292C246.22 89.296 246.128 89.408 246.016 89.52C245.912 89.624 245.784 89.72 245.632 89.808C245.48 89.888 245.304 89.956 245.104 90.012C244.904 90.068 244.676 90.096 244.42 90.096C244.164 90.096 243.924 90.056 243.7 89.976C243.484 89.896 243.296 89.784 243.136 89.64C242.976 89.488 242.848 89.308 242.752 89.1C242.664 88.892 242.62 88.656 242.62 88.392C242.62 88.04 242.692 87.748 242.836 87.516C242.98 87.276 243.18 87.088 243.436 86.952C243.7 86.808 244.012 86.708 244.372 86.652C244.74 86.588 245.144 86.556 245.584 86.556C245.696 86.556 245.804 86.556 245.908 86.556C246.02 86.556 246.132 86.564 246.244 86.58C246.268 86.34 246.28 86.124 246.28 85.932C246.28 85.492 246.192 85.184 246.016 85.008C245.84 84.832 245.52 84.744 245.056 84.744C244.92 84.744 244.772 84.756 244.612 84.78C244.46 84.796 244.3 84.824 244.132 84.864C243.972 84.896 243.816 84.94 243.664 84.996C243.52 85.044 243.392 85.1 243.28 85.164L242.98 84.444ZM244.684 89.256C244.908 89.256 245.108 89.228 245.284 89.172C245.46 89.108 245.612 89.032 245.74 88.944C245.868 88.848 245.972 88.744 246.052 88.632C246.14 88.52 246.204 88.412 246.244 88.308V87.312C246.132 87.304 246.016 87.3 245.896 87.3C245.784 87.292 245.672 87.288 245.56 87.288C245.312 87.288 245.068 87.304 244.828 87.336C244.596 87.36 244.388 87.412 244.204 87.492C244.028 87.564 243.884 87.668 243.772 87.804C243.668 87.932 243.616 88.096 243.616 88.296C243.616 88.576 243.716 88.808 243.916 88.992C244.116 89.168 244.372 89.256 244.684 89.256ZM250.097 88.524C250.097 88.804 250.145 89.004 250.241 89.124C250.337 89.244 250.473 89.304 250.649 89.304C250.753 89.304 250.865 89.296 250.985 89.28C251.105 89.264 251.241 89.228 251.393 89.172L251.501 89.928C251.373 89.992 251.193 90.044 250.961 90.084C250.737 90.124 250.541 90.144 250.373 90.144C250.013 90.144 249.717 90.044 249.485 89.844C249.253 89.636 249.137 89.288 249.137 88.8V81.6H250.097V88.524ZM252.737 84H253.697V90H252.737V84ZM252.533 82.176C252.533 81.992 252.593 81.836 252.713 81.708C252.841 81.572 253.001 81.504 253.193 81.504C253.385 81.504 253.549 81.572 253.685 81.708C253.821 81.836 253.889 81.992 253.889 82.176C253.889 82.36 253.821 82.512 253.685 82.632C253.549 82.752 253.385 82.812 253.193 82.812C253.001 82.812 252.841 82.752 252.713 82.632C252.593 82.512 252.533 82.36 252.533 82.176ZM254.952 84H255.888V82.812L256.848 82.536V84H258.48V84.84H256.848V88.164C256.848 88.58 256.9 88.876 257.004 89.052C257.108 89.22 257.284 89.304 257.532 89.304C257.74 89.304 257.916 89.284 258.06 89.244C258.204 89.196 258.364 89.136 258.54 89.064L258.756 89.796C258.54 89.9 258.304 89.984 258.048 90.048C257.792 90.112 257.516 90.144 257.22 90.144C256.732 90.144 256.388 90.008 256.188 89.736C255.988 89.456 255.888 88.992 255.888 88.344V84.84H254.952V84ZM261.575 87.888L261.911 89.04H261.971L262.235 87.876L263.399 84H264.371L262.595 89.388C262.459 89.78 262.323 90.16 262.187 90.528C262.059 90.896 261.915 91.224 261.755 91.512C261.595 91.8 261.415 92.028 261.215 92.196C261.015 92.372 260.783 92.46 260.519 92.46C260.231 92.46 259.995 92.42 259.811 92.34L259.979 91.512C260.083 91.552 260.183 91.572 260.279 91.572C260.503 91.572 260.719 91.452 260.927 91.212C261.135 90.98 261.307 90.576 261.443 90L259.031 84H260.135L261.575 87.888ZM201.02 99.684C201.324 99.612 201.652 99.564 202.004 99.54C202.356 99.516 202.704 99.504 203.048 99.504C203.416 99.504 203.788 99.54 204.164 99.612C204.548 99.684 204.896 99.816 205.208 100.008C205.52 100.2 205.772 100.464 205.964 100.8C206.164 101.136 206.264 101.564 206.264 102.084C206.264 102.596 206.172 103.028 205.988 103.38C205.804 103.732 205.56 104.02 205.256 104.244C204.952 104.46 204.604 104.616 204.212 104.712C203.82 104.808 203.416 104.856 203 104.856C202.96 104.856 202.892 104.856 202.796 104.856C202.708 104.856 202.612 104.856 202.508 104.856C202.412 104.848 202.316 104.84 202.22 104.832C202.124 104.824 202.056 104.816 202.016 104.808V108H201.02V99.684ZM203.072 100.368C202.864 100.368 202.664 100.372 202.472 100.38C202.28 100.388 202.128 100.408 202.016 100.44V103.92C202.056 103.936 202.12 103.948 202.208 103.956C202.296 103.956 202.388 103.96 202.484 103.968C202.58 103.968 202.672 103.968 202.76 103.968C202.848 103.968 202.912 103.968 202.952 103.968C203.224 103.968 203.492 103.944 203.756 103.896C204.028 103.84 204.272 103.744 204.488 103.608C204.704 103.472 204.876 103.28 205.004 103.032C205.14 102.784 205.208 102.468 205.208 102.084C205.208 101.756 205.144 101.484 205.016 101.268C204.896 101.044 204.732 100.868 204.524 100.74C204.324 100.604 204.096 100.508 203.84 100.452C203.584 100.396 203.328 100.368 203.072 100.368ZM210.037 102.924C209.797 102.844 209.569 102.804 209.353 102.804C209.009 102.804 208.737 102.9 208.537 103.092C208.337 103.276 208.213 103.512 208.165 103.8V108H207.205V102H207.877L208.057 102.732H208.105C208.257 102.46 208.437 102.252 208.645 102.108C208.861 101.956 209.133 101.88 209.461 101.88C209.693 101.88 209.953 101.92 210.241 102L210.037 102.924ZM210.947 105C210.947 103.984 211.171 103.208 211.619 102.672C212.075 102.128 212.727 101.856 213.575 101.856C214.023 101.856 214.411 101.932 214.739 102.084C215.075 102.228 215.351 102.44 215.567 102.72C215.783 102.992 215.943 103.324 216.047 103.716C216.151 104.1 216.203 104.528 216.203 105C216.203 106.016 215.975 106.796 215.519 107.34C215.071 107.876 214.423 108.144 213.575 108.144C213.127 108.144 212.735 108.072 212.399 107.928C212.071 107.776 211.799 107.564 211.583 107.292C211.367 107.012 211.207 106.68 211.103 106.296C210.999 105.904 210.947 105.472 210.947 105ZM211.943 105C211.943 105.304 211.971 105.596 212.027 105.876C212.091 106.156 212.187 106.4 212.315 106.608C212.443 106.816 212.611 106.984 212.819 107.112C213.027 107.24 213.279 107.304 213.575 107.304C214.663 107.312 215.207 106.544 215.207 105C215.207 104.688 215.175 104.392 215.111 104.112C215.055 103.832 214.963 103.588 214.835 103.38C214.707 103.172 214.539 103.008 214.331 102.888C214.123 102.76 213.871 102.696 213.575 102.696C212.487 102.688 211.943 103.456 211.943 105ZM222.325 105.936C222.325 106.344 222.329 106.716 222.337 107.052C222.345 107.38 222.381 107.704 222.445 108.024H221.797L221.557 107.172H221.509C221.349 107.452 221.117 107.684 220.813 107.868C220.509 108.052 220.153 108.144 219.745 108.144C218.945 108.144 218.349 107.892 217.957 107.388C217.573 106.884 217.381 106.096 217.381 105.024C217.381 104 217.621 103.224 218.101 102.696C218.589 102.16 219.257 101.892 220.105 101.892C220.401 101.892 220.633 101.908 220.801 101.94C220.977 101.972 221.165 102.024 221.365 102.096V99.6H222.325V105.936ZM219.901 107.304C220.309 107.304 220.633 107.2 220.873 106.992C221.113 106.776 221.277 106.452 221.365 106.02V103.044C221.221 102.932 221.057 102.852 220.873 102.804C220.689 102.756 220.445 102.732 220.141 102.732C219.589 102.732 219.157 102.916 218.845 103.284C218.533 103.644 218.377 104.224 218.377 105.024C218.377 105.352 218.401 105.656 218.449 105.936C218.505 106.216 218.593 106.456 218.713 106.656C218.833 106.856 218.989 107.016 219.181 107.136C219.381 107.248 219.621 107.304 219.901 107.304ZM225.038 102V105.42C225.038 105.732 225.054 106.008 225.086 106.248C225.126 106.48 225.19 106.676 225.278 106.836C225.366 106.988 225.486 107.104 225.638 107.184C225.79 107.264 225.982 107.304 226.214 107.304C226.43 107.304 226.622 107.272 226.79 107.208C226.958 107.136 227.106 107.04 227.234 106.92C227.37 106.8 227.486 106.664 227.582 106.512C227.686 106.352 227.77 106.184 227.834 106.008V102H228.794V106.296C228.794 106.584 228.802 106.884 228.818 107.196C228.842 107.5 228.878 107.768 228.926 108H228.266L228.026 107.052H227.966C227.782 107.364 227.534 107.624 227.222 107.832C226.91 108.04 226.514 108.144 226.034 108.144C225.714 108.144 225.43 108.104 225.182 108.024C224.942 107.952 224.738 107.82 224.57 107.628C224.41 107.436 224.286 107.18 224.198 106.86C224.118 106.532 224.078 106.12 224.078 105.624V102H225.038ZM234.735 107.604C234.495 107.78 234.211 107.912 233.883 108C233.555 108.096 233.211 108.144 232.851 108.144C232.387 108.144 231.995 108.072 231.675 107.928C231.355 107.776 231.091 107.564 230.883 107.292C230.683 107.012 230.535 106.68 230.439 106.296C230.351 105.904 230.307 105.472 230.307 105C230.307 103.984 230.531 103.208 230.979 102.672C231.427 102.128 232.071 101.856 232.911 101.856C233.295 101.856 233.619 101.888 233.883 101.952C234.155 102.008 234.399 102.092 234.615 102.204L234.339 103.032C234.155 102.928 233.951 102.848 233.727 102.792C233.503 102.728 233.263 102.696 233.007 102.696C231.871 102.696 231.303 103.464 231.303 105C231.303 105.304 231.331 105.596 231.387 105.876C231.451 106.148 231.551 106.392 231.687 106.608C231.831 106.816 232.015 106.984 232.239 107.112C232.471 107.24 232.755 107.304 233.091 107.304C233.379 107.304 233.635 107.26 233.859 107.172C234.091 107.084 234.279 106.984 234.423 106.872L234.735 107.604ZM235.265 102H236.201V100.812L237.161 100.536V102H238.793V102.84H237.161V106.164C237.161 106.58 237.213 106.876 237.317 107.052C237.421 107.22 237.597 107.304 237.845 107.304C238.053 107.304 238.229 107.284 238.373 107.244C238.517 107.196 238.677 107.136 238.853 107.064L239.069 107.796C238.853 107.9 238.617 107.984 238.361 108.048C238.105 108.112 237.829 108.144 237.533 108.144C237.045 108.144 236.701 108.008 236.501 107.736C236.301 107.456 236.201 106.992 236.201 106.344V102.84H235.265V102ZM242.763 106.368C242.763 106.128 242.691 105.94 242.547 105.804C242.403 105.668 242.223 105.556 242.007 105.468C241.799 105.372 241.567 105.284 241.311 105.204C241.063 105.116 240.831 105.008 240.615 104.88C240.407 104.744 240.231 104.572 240.087 104.364C239.943 104.156 239.871 103.876 239.871 103.524C239.871 102.948 240.035 102.528 240.363 102.264C240.691 101.992 241.147 101.856 241.731 101.856C242.163 101.856 242.523 101.896 242.811 101.976C243.107 102.048 243.363 102.136 243.579 102.24L243.351 103.032C243.167 102.944 242.943 102.868 242.679 102.804C242.423 102.732 242.147 102.696 241.851 102.696C241.499 102.696 241.239 102.756 241.071 102.876C240.911 102.996 240.831 103.204 240.831 103.5C240.831 103.708 240.903 103.872 241.047 103.992C241.191 104.104 241.367 104.208 241.575 104.304C241.791 104.392 242.023 104.48 242.271 104.568C242.527 104.656 242.759 104.772 242.967 104.916C243.183 105.06 243.363 105.244 243.507 105.468C243.651 105.684 243.723 105.972 243.723 106.332C243.723 106.588 243.679 106.828 243.591 107.052C243.511 107.276 243.383 107.468 243.207 107.628C243.031 107.788 242.811 107.912 242.547 108C242.291 108.096 241.987 108.144 241.635 108.144C241.179 108.144 240.791 108.1 240.471 108.012C240.151 107.924 239.883 107.82 239.667 107.7L239.955 106.884C240.139 106.988 240.379 107.084 240.675 107.172C240.971 107.26 241.271 107.304 241.575 107.304C241.919 107.304 242.203 107.236 242.427 107.1C242.651 106.964 242.763 106.72 242.763 106.368Z" fill="#243238"/>
<path fill-rule="evenodd" clip-rule="evenodd" d="M172.133 20.9524C171.481 20.9524 170.952 21.4812 170.952 22.1325V28.7578C170.952 29.4091 171.481 29.9379 172.133 29.9379H179.586C179.849 29.9379 180.062 30.1511 180.062 30.4141C180.062 30.6771 179.849 30.8903 179.586 30.8903H172.133C170.955 30.8903 170 29.935 170 28.7578V22.1325C170 20.9552 170.955 20 172.133 20H182.899C184.076 20 185.031 20.9552 185.031 22.1325V25.4451C185.031 25.7081 184.818 25.9213 184.555 25.9213C184.292 25.9213 184.079 25.7081 184.079 25.4451V22.1325C184.079 21.4812 183.55 20.9524 182.899 20.9524H172.133Z" fill="black"/>
<path fill-rule="evenodd" clip-rule="evenodd" d="M170 22.9606C170 22.6976 170.213 22.4844 170.476 22.4844H184.555C184.818 22.4844 185.031 22.6976 185.031 22.9606C185.031 23.2236 184.818 23.4368 184.555 23.4368H170.476C170.213 23.4368 170 23.2236 170 22.9606Z" fill="black"/>
<path fill-rule="evenodd" clip-rule="evenodd" d="M172.484 24.6169C172.484 24.3539 172.698 24.1407 172.961 24.1407H177.101C177.364 24.1407 177.578 24.3539 177.578 24.6169C177.578 24.8799 177.364 25.0931 177.101 25.0931H172.961C172.698 25.0931 172.484 24.8799 172.484 24.6169Z" fill="black"/>
<path fill-rule="evenodd" clip-rule="evenodd" d="M180.766 24.6169C180.766 24.3539 180.979 24.1407 181.242 24.1407H182.899C183.162 24.1407 183.375 24.3539 183.375 24.6169C183.375 24.8799 183.162 25.0931 182.899 25.0931H181.242C180.979 25.0931 180.766 24.8799 180.766 24.6169Z" fill="black"/>
<path fill-rule="evenodd" clip-rule="evenodd" d="M172.484 26.2732C172.484 26.0103 172.698 25.7971 172.961 25.7971H175.445C175.708 25.7971 175.921 26.0103 175.921 26.2732C175.921 26.5362 175.708 26.7494 175.445 26.7494H172.961C172.698 26.7494 172.484 26.5362 172.484 26.2732Z" fill="black"/>
<path fill-rule="evenodd" clip-rule="evenodd" d="M180.766 32.8985C180.766 32.6355 180.979 32.4223 181.242 32.4223H189.524C189.787 32.4223 190 32.6355 190 32.8985V39.5238C190 39.7868 189.787 40 189.524 40H181.242C180.979 40 180.766 39.7868 180.766 39.5238V32.8985ZM181.718 33.3747V39.0476H189.048V33.3747H181.718Z" fill="black"/>
<path fill-rule="evenodd" clip-rule="evenodd" d="M185.383 35.735C185.646 35.735 185.859 35.9482 185.859 36.2112V37.8675C185.859 38.1305 185.646 38.3437 185.383 38.3437C185.12 38.3437 184.907 38.1305 184.907 37.8675V36.2112C184.907 35.9482 185.12 35.735 185.383 35.735Z" fill="black"/>
<path fill-rule="evenodd" clip-rule="evenodd" d="M185.383 29.234C184.274 29.234 183.375 30.1331 183.375 31.2422V32.8986C183.375 33.1616 183.162 33.3748 182.899 33.3748C182.636 33.3748 182.422 33.1616 182.422 32.8986V31.2422C182.422 29.6069 183.749 28.2816 185.383 28.2816C187.018 28.2816 188.344 29.607 188.344 31.2422V32.8986C188.344 33.1616 188.13 33.3748 187.867 33.3748C187.605 33.3748 187.391 33.1616 187.391 32.8986V31.2422C187.391 30.133 186.492 29.234 185.383 29.234Z" fill="black"/>
<path fill-rule="evenodd" clip-rule="evenodd" d="M185.383 35.8593C185.417 35.8593 185.445 35.8316 185.445 35.7972C185.445 35.7627 185.417 35.735 185.383 35.735C185.349 35.735 185.321 35.7627 185.321 35.7972C185.321 35.8316 185.349 35.8593 185.383 35.8593ZM184.493 35.7972C184.493 35.3056 184.891 34.9069 185.383 34.9069C185.875 34.9069 186.273 35.3056 186.273 35.7972C186.273 36.2887 185.875 36.6874 185.383 36.6874C184.891 36.6874 184.493 36.2887 184.493 35.7972Z" fill="black"/>
<path d="M204.812 30.864C204.812 30.528 204.712 30.256 204.512 30.048C204.312 29.832 204.06 29.644 203.756 29.484C203.46 29.316 203.136 29.16 202.784 29.016C202.432 28.872 202.104 28.7 201.8 28.5C201.504 28.292 201.256 28.04 201.056 27.744C200.856 27.44 200.756 27.056 200.756 26.592C200.756 25.936 200.984 25.416 201.44 25.032C201.896 24.648 202.544 24.456 203.384 24.456C203.872 24.456 204.316 24.492 204.716 24.564C205.116 24.636 205.428 24.728 205.652 24.84L205.352 25.716C205.168 25.628 204.896 25.544 204.536 25.464C204.184 25.384 203.784 25.344 203.336 25.344C202.808 25.344 202.412 25.464 202.148 25.704C201.884 25.936 201.752 26.212 201.752 26.532C201.752 26.844 201.852 27.104 202.052 27.312C202.252 27.52 202.5 27.708 202.796 27.876C203.1 28.036 203.428 28.196 203.78 28.356C204.132 28.516 204.456 28.704 204.752 28.92C205.056 29.128 205.308 29.38 205.508 29.676C205.708 29.972 205.808 30.34 205.808 30.78C205.808 31.14 205.744 31.464 205.616 31.752C205.488 32.04 205.3 32.288 205.052 32.496C204.804 32.704 204.504 32.864 204.152 32.976C203.8 33.088 203.4 33.144 202.952 33.144C202.352 33.144 201.856 33.096 201.464 33C201.072 32.912 200.768 32.812 200.552 32.7L200.888 31.8C201.072 31.904 201.344 32.008 201.704 32.112C202.064 32.208 202.468 32.256 202.916 32.256C203.18 32.256 203.428 32.232 203.66 32.184C203.892 32.128 204.092 32.044 204.26 31.932C204.428 31.812 204.56 31.664 204.656 31.488C204.76 31.312 204.812 31.104 204.812 30.864ZM211.679 32.52C211.439 32.712 211.135 32.864 210.767 32.976C210.407 33.088 210.023 33.144 209.615 33.144C209.159 33.144 208.763 33.072 208.427 32.928C208.091 32.776 207.815 32.564 207.599 32.292C207.383 32.012 207.223 31.68 207.119 31.296C207.015 30.912 206.963 30.48 206.963 30C206.963 28.976 207.191 28.196 207.647 27.66C208.103 27.124 208.755 26.856 209.603 26.856C209.875 26.856 210.147 26.888 210.419 26.952C210.691 27.008 210.935 27.12 211.151 27.288C211.367 27.456 211.543 27.696 211.679 28.008C211.815 28.312 211.883 28.716 211.883 29.22C211.883 29.484 211.859 29.776 211.811 30.096H207.959C207.959 30.448 207.995 30.76 208.067 31.032C208.139 31.304 208.251 31.536 208.403 31.728C208.555 31.912 208.751 32.056 208.991 32.16C209.239 32.256 209.539 32.304 209.891 32.304C210.163 32.304 210.435 32.256 210.707 32.16C210.979 32.064 211.183 31.952 211.319 31.824L211.679 32.52ZM209.615 27.696C209.143 27.696 208.763 27.82 208.475 28.068C208.195 28.316 208.027 28.74 207.971 29.34H210.947C210.947 28.732 210.831 28.308 210.599 28.068C210.367 27.82 210.039 27.696 209.615 27.696ZM217.356 32.604C217.116 32.78 216.832 32.912 216.504 33C216.176 33.096 215.832 33.144 215.472 33.144C215.008 33.144 214.616 33.072 214.296 32.928C213.976 32.776 213.712 32.564 213.504 32.292C213.304 32.012 213.156 31.68 213.06 31.296C212.972 30.904 212.928 30.472 212.928 30C212.928 28.984 213.152 28.208 213.6 27.672C214.048 27.128 214.692 26.856 215.532 26.856C215.916 26.856 216.24 26.888 216.504 26.952C216.776 27.008 217.02 27.092 217.236 27.204L216.96 28.032C216.776 27.928 216.572 27.848 216.348 27.792C216.124 27.728 215.884 27.696 215.628 27.696C214.492 27.696 213.924 28.464 213.924 30C213.924 30.304 213.952 30.596 214.008 30.876C214.072 31.148 214.172 31.392 214.308 31.608C214.452 31.816 214.636 31.984 214.86 32.112C215.092 32.24 215.376 32.304 215.712 32.304C216 32.304 216.256 32.26 216.48 32.172C216.712 32.084 216.9 31.984 217.044 31.872L217.356 32.604ZM219.542 27V30.42C219.542 30.732 219.558 31.008 219.59 31.248C219.63 31.48 219.694 31.676 219.782 31.836C219.87 31.988 219.99 32.104 220.142 32.184C220.294 32.264 220.486 32.304 220.718 32.304C220.934 32.304 221.126 32.272 221.294 32.208C221.462 32.136 221.61 32.04 221.738 31.92C221.874 31.8 221.99 31.664 222.086 31.512C222.19 31.352 222.274 31.184 222.338 31.008V27H223.298V31.296C223.298 31.584 223.306 31.884 223.322 32.196C223.346 32.5 223.382 32.768 223.43 33H222.77L222.53 32.052H222.47C222.286 32.364 222.038 32.624 221.726 32.832C221.414 33.04 221.018 33.144 220.538 33.144C220.218 33.144 219.934 33.104 219.686 33.024C219.446 32.952 219.242 32.82 219.074 32.628C218.914 32.436 218.79 32.18 218.702 31.86C218.622 31.532 218.582 31.12 218.582 30.624V27H219.542ZM227.979 27.924C227.739 27.844 227.511 27.804 227.295 27.804C226.951 27.804 226.679 27.9 226.479 28.092C226.279 28.276 226.155 28.512 226.107 28.8V33H225.147V27H225.819L225.999 27.732H226.047C226.199 27.46 226.379 27.252 226.587 27.108C226.803 26.956 227.075 26.88 227.403 26.88C227.635 26.88 227.895 26.92 228.183 27L227.979 27.924ZM233.605 32.52C233.365 32.712 233.061 32.864 232.693 32.976C232.333 33.088 231.949 33.144 231.541 33.144C231.085 33.144 230.689 33.072 230.353 32.928C230.017 32.776 229.741 32.564 229.525 32.292C229.309 32.012 229.149 31.68 229.045 31.296C228.941 30.912 228.889 30.48 228.889 30C228.889 28.976 229.117 28.196 229.573 27.66C230.029 27.124 230.681 26.856 231.529 26.856C231.801 26.856 232.073 26.888 232.345 26.952C232.617 27.008 232.861 27.12 233.077 27.288C233.293 27.456 233.469 27.696 233.605 28.008C233.741 28.312 233.809 28.716 233.809 29.22C233.809 29.484 233.785 29.776 233.737 30.096H229.885C229.885 30.448 229.921 30.76 229.993 31.032C230.065 31.304 230.177 31.536 230.329 31.728C230.481 31.912 230.677 32.056 230.917 32.16C231.165 32.256 231.465 32.304 231.817 32.304C232.089 32.304 232.361 32.256 232.633 32.16C232.905 32.064 233.109 31.952 233.245 31.824L233.605 32.52ZM231.541 27.696C231.069 27.696 230.689 27.82 230.401 28.068C230.121 28.316 229.953 28.74 229.897 29.34H232.873C232.873 28.732 232.757 28.308 232.525 28.068C232.293 27.82 231.965 27.696 231.541 27.696ZM201.02 42.684C201.324 42.612 201.652 42.564 202.004 42.54C202.356 42.516 202.704 42.504 203.048 42.504C203.416 42.504 203.788 42.54 204.164 42.612C204.548 42.684 204.896 42.816 205.208 43.008C205.52 43.2 205.772 43.464 205.964 43.8C206.164 44.136 206.264 44.564 206.264 45.084C206.264 45.596 206.172 46.028 205.988 46.38C205.804 46.732 205.56 47.02 205.256 47.244C204.952 47.46 204.604 47.616 204.212 47.712C203.82 47.808 203.416 47.856 203 47.856C202.96 47.856 202.892 47.856 202.796 47.856C202.708 47.856 202.612 47.856 202.508 47.856C202.412 47.848 202.316 47.84 202.22 47.832C202.124 47.824 202.056 47.816 202.016 47.808V51H201.02V42.684ZM203.072 43.368C202.864 43.368 202.664 43.372 202.472 43.38C202.28 43.388 202.128 43.408 202.016 43.44V46.92C202.056 46.936 202.12 46.948 202.208 46.956C202.296 46.956 202.388 46.96 202.484 46.968C202.58 46.968 202.672 46.968 202.76 46.968C202.848 46.968 202.912 46.968 202.952 46.968C203.224 46.968 203.492 46.944 203.756 46.896C204.028 46.84 204.272 46.744 204.488 46.608C204.704 46.472 204.876 46.28 205.004 46.032C205.14 45.784 205.208 45.468 205.208 45.084C205.208 44.756 205.144 44.484 205.016 44.268C204.896 44.044 204.732 43.868 204.524 43.74C204.324 43.604 204.096 43.508 203.84 43.452C203.584 43.396 203.328 43.368 203.072 43.368ZM207.109 45.444C207.413 45.26 207.765 45.124 208.165 45.036C208.573 44.948 208.997 44.904 209.437 44.904C209.853 44.904 210.185 44.96 210.433 45.072C210.689 45.184 210.881 45.332 211.009 45.516C211.145 45.692 211.233 45.888 211.273 46.104C211.321 46.32 211.345 46.536 211.345 46.752C211.345 47.232 211.333 47.7 211.309 48.156C211.285 48.612 211.273 49.044 211.273 49.452C211.273 49.748 211.285 50.028 211.309 50.292C211.333 50.556 211.377 50.8 211.441 51.024H210.733L210.481 50.184H210.421C210.349 50.296 210.257 50.408 210.145 50.52C210.041 50.624 209.913 50.72 209.761 50.808C209.609 50.888 209.433 50.956 209.233 51.012C209.033 51.068 208.805 51.096 208.549 51.096C208.293 51.096 208.053 51.056 207.829 50.976C207.613 50.896 207.425 50.784 207.265 50.64C207.105 50.488 206.977 50.308 206.881 50.1C206.793 49.892 206.749 49.656 206.749 49.392C206.749 49.04 206.821 48.748 206.965 48.516C207.109 48.276 207.309 48.088 207.565 47.952C207.829 47.808 208.141 47.708 208.501 47.652C208.869 47.588 209.273 47.556 209.713 47.556C209.825 47.556 209.933 47.556 210.037 47.556C210.149 47.556 210.261 47.564 210.373 47.58C210.397 47.34 210.409 47.124 210.409 46.932C210.409 46.492 210.321 46.184 210.145 46.008C209.969 45.832 209.649 45.744 209.185 45.744C209.049 45.744 208.901 45.756 208.741 45.78C208.589 45.796 208.429 45.824 208.261 45.864C208.101 45.896 207.945 45.94 207.793 45.996C207.649 46.044 207.521 46.1 207.409 46.164L207.109 45.444ZM208.813 50.256C209.037 50.256 209.237 50.228 209.413 50.172C209.589 50.108 209.741 50.032 209.869 49.944C209.997 49.848 210.101 49.744 210.181 49.632C210.269 49.52 210.333 49.412 210.373 49.308V48.312C210.261 48.304 210.145 48.3 210.025 48.3C209.913 48.292 209.801 48.288 209.689 48.288C209.441 48.288 209.197 48.304 208.957 48.336C208.725 48.36 208.517 48.412 208.333 48.492C208.157 48.564 208.013 48.668 207.901 48.804C207.797 48.932 207.745 49.096 207.745 49.296C207.745 49.576 207.845 49.808 208.045 49.992C208.245 50.168 208.501 50.256 208.813 50.256ZM214.922 48.888L215.258 50.04H215.318L215.582 48.876L216.746 45H217.718L215.942 50.388C215.806 50.78 215.67 51.16 215.534 51.528C215.406 51.896 215.262 52.224 215.102 52.512C214.942 52.8 214.762 53.028 214.562 53.196C214.362 53.372 214.13 53.46 213.866 53.46C213.578 53.46 213.342 53.42 213.158 53.34L213.326 52.512C213.43 52.552 213.53 52.572 213.626 52.572C213.85 52.572 214.066 52.452 214.274 52.212C214.482 51.98 214.654 51.576 214.79 51L212.378 45H213.482L214.922 48.888ZM222.264 51V47.604C222.264 47.284 222.248 47.008 222.216 46.776C222.192 46.536 222.14 46.336 222.06 46.176C221.98 46.016 221.864 45.896 221.712 45.816C221.568 45.736 221.376 45.696 221.136 45.696C220.768 45.696 220.46 45.808 220.212 46.032C219.972 46.256 219.804 46.536 219.708 46.872V51H218.748V45H219.42L219.6 45.732H219.648C219.864 45.476 220.112 45.268 220.392 45.108C220.68 44.94 221.052 44.856 221.508 44.856C221.892 44.856 222.204 44.932 222.444 45.084C222.692 45.228 222.884 45.484 223.02 45.852C223.204 45.54 223.456 45.296 223.776 45.12C224.104 44.944 224.472 44.856 224.88 44.856C225.216 44.856 225.5 44.896 225.732 44.976C225.964 45.048 226.156 45.18 226.308 45.372C226.46 45.564 226.568 45.824 226.632 46.152C226.704 46.48 226.74 46.896 226.74 47.4V51H225.78V47.388C225.78 47.1 225.764 46.852 225.732 46.644C225.708 46.428 225.652 46.252 225.564 46.116C225.484 45.972 225.368 45.868 225.216 45.804C225.072 45.732 224.88 45.696 224.64 45.696C224.24 45.696 223.928 45.808 223.704 46.032C223.48 46.256 223.32 46.576 223.224 46.992V51H222.264ZM232.867 50.52C232.626 50.712 232.323 50.864 231.954 50.976C231.594 51.088 231.21 51.144 230.803 51.144C230.346 51.144 229.951 51.072 229.615 50.928C229.279 50.776 229.002 50.564 228.786 50.292C228.57 50.012 228.41 49.68 228.306 49.296C228.203 48.912 228.15 48.48 228.15 48C228.15 46.976 228.379 46.196 228.834 45.66C229.29 45.124 229.943 44.856 230.79 44.856C231.062 44.856 231.334 44.888 231.607 44.952C231.879 45.008 232.122 45.12 232.339 45.288C232.555 45.456 232.73 45.696 232.867 46.008C233.003 46.312 233.07 46.716 233.07 47.22C233.07 47.484 233.046 47.776 232.999 48.096H229.146C229.146 48.448 229.183 48.76 229.255 49.032C229.326 49.304 229.438 49.536 229.59 49.728C229.743 49.912 229.938 50.056 230.178 50.16C230.427 50.256 230.726 50.304 231.079 50.304C231.351 50.304 231.623 50.256 231.895 50.16C232.166 50.064 232.37 49.952 232.507 49.824L232.867 50.52ZM230.803 45.696C230.331 45.696 229.951 45.82 229.662 46.068C229.383 46.316 229.215 46.74 229.159 47.34H232.135C232.135 46.732 232.018 46.308 231.786 46.068C231.554 45.82 231.227 45.696 230.803 45.696ZM238.432 51V47.58C238.432 46.956 238.34 46.488 238.156 46.176C237.98 45.856 237.652 45.696 237.172 45.696C236.748 45.696 236.396 45.812 236.116 46.044C235.844 46.268 235.652 46.552 235.54 46.896V51H234.58V45H235.252L235.432 45.732H235.48C235.672 45.476 235.928 45.268 236.248 45.108C236.576 44.94 236.964 44.856 237.412 44.856C237.74 44.856 238.028 44.896 238.276 44.976C238.524 45.048 238.728 45.18 238.888 45.372C239.056 45.564 239.18 45.824 239.26 46.152C239.348 46.472 239.392 46.88 239.392 47.376V51H238.432ZM240.351 45H241.287V43.812L242.247 43.536V45H243.879V45.84H242.247V49.164C242.247 49.58 242.299 49.876 242.403 50.052C242.507 50.22 242.683 50.304 242.931 50.304C243.139 50.304 243.315 50.284 243.459 50.244C243.603 50.196 243.763 50.136 243.939 50.064L244.155 50.796C243.939 50.9 243.703 50.984 243.447 51.048C243.191 51.112 242.915 51.144 242.619 51.144C242.131 51.144 241.787 51.008 241.587 50.736C241.387 50.456 241.287 49.992 241.287 49.344V45.84H240.351V45Z" fill="#243238"/>
<path fill-rule="evenodd" clip-rule="evenodd" d="M20 89.2033C20 88.9412 20.2132 88.7287 20.4762 88.7287H23.7888C24.0518 88.7287 24.265 88.9412 24.265 89.2033V95.8423C24.265 96.1044 24.0518 96.3169 23.7888 96.3169H20.4762C20.2132 96.3169 20 96.1044 20 95.8423V89.2033ZM20.9524 89.678V95.3676H23.3126V89.678H20.9524Z" fill="black"/>
<path fill-rule="evenodd" clip-rule="evenodd" d="M38.4399 91.2155C38.9367 91.3767 39.3931 91.7039 39.8605 92.1699C39.9688 92.2778 40.0184 92.431 39.9938 92.5816C39.9693 92.7322 39.8737 92.8619 39.7368 92.9301C38.0539 93.7688 36.739 94.4658 35.6714 95.0318C35.1684 95.2984 34.7204 95.5359 34.3145 95.7455C33.0563 96.3951 32.1531 96.8045 31.2663 96.9471C30.3902 97.0821 29.5205 96.9545 28.3823 96.6173C27.7377 96.4255 26.9828 96.1643 26.0466 95.8403C25.353 95.6003 24.5598 95.3259 23.6382 95.0197C23.3887 94.9368 23.2539 94.668 23.3371 94.4193C23.4202 94.1706 23.6899 94.0362 23.9394 94.1191C24.8746 94.4299 25.6739 94.7065 26.3679 94.9467C27.2932 95.267 28.0312 95.5224 28.6545 95.7075C29.7289 96.0282 30.3862 96.1327 31.1146 96.0098C31.8324 95.8944 32.6114 95.5556 33.8765 94.9025C34.2775 94.6954 34.7224 94.4596 35.2233 94.1941C36.1542 93.7006 37.2789 93.1044 38.6765 92.3991C38.4838 92.2608 38.3094 92.1715 38.145 92.1182C37.8312 92.0089 37.5727 92.0196 37.1816 92.1331L33.5172 93.3449C33.2676 93.4275 32.9981 93.2927 32.9153 93.0439C32.8325 92.795 32.9677 92.5264 33.2173 92.4439L36.8894 91.2295C36.8958 91.2274 36.9023 91.2254 36.9088 91.2235C37.4204 91.0819 37.962 91.0679 38.4399 91.2155Z" fill="black"/>
<path fill-rule="evenodd" clip-rule="evenodd" d="M23.3125 90.029C23.3125 89.7668 23.5257 89.5543 23.7887 89.5543H26.2732C28.2249 89.5543 29.6279 90.6765 30.1927 91.2054H32.4843C33.3797 91.2054 33.9506 91.8039 33.9506 92.5056C33.9506 93.2073 33.3797 93.8058 32.4843 93.8058H27.9295C27.6665 93.8058 27.4533 93.5933 27.4533 93.3311C27.4533 93.0689 27.6665 92.8564 27.9295 92.8564H32.4843C32.7119 92.8564 32.8367 92.7873 32.9005 92.7274C32.9669 92.6651 32.9982 92.5852 32.9982 92.5056C32.9982 92.4259 32.9669 92.346 32.9005 92.2837C32.8367 92.2238 32.7119 92.1547 32.4843 92.1547H29.9999C29.8736 92.1547 29.7525 92.1047 29.6632 92.0157C29.2687 91.6225 28.022 90.5037 26.2732 90.5037H23.7887C23.5257 90.5037 23.3125 90.2911 23.3125 90.029Z" fill="black"/>
<path fill-rule="evenodd" clip-rule="evenodd" d="M31.5942 80.9481C31.5942 79.318 32.9197 77.9968 34.5549 77.9968C36.1901 77.9968 37.5156 79.318 37.5156 80.9481C37.5156 82.5782 36.1901 83.8994 34.5549 83.8994C32.9197 83.8994 31.5942 82.5782 31.5942 80.9481ZM34.5549 78.9462C33.4456 78.9462 32.5466 79.8424 32.5466 80.9481C32.5466 82.0538 33.4456 82.95 34.5549 82.95C35.6642 82.95 36.5632 82.0538 36.5632 80.9481C36.5632 79.8424 35.6642 78.9462 34.5549 78.9462Z" fill="black"/>
<path fill-rule="evenodd" clip-rule="evenodd" d="M27.4536 86.7268C27.4536 85.0968 28.779 83.7756 30.4143 83.7756C32.0495 83.7756 33.3749 85.0968 33.3749 86.7268C33.3749 88.3569 32.0495 89.6781 30.4143 89.6781C28.779 89.6781 27.4536 88.3569 27.4536 86.7268ZM30.4143 84.7249C29.305 84.7249 28.406 85.6211 28.406 86.7268C28.406 87.8326 29.305 88.7288 30.4143 88.7288C31.5235 88.7288 32.4226 87.8326 32.4226 86.7268C32.4226 85.6211 31.5235 84.7249 30.4143 84.7249Z" fill="black"/>
<path fill-rule="evenodd" clip-rule="evenodd" d="M30.4142 85.4265C30.6772 85.4265 30.8904 85.6391 30.8904 85.9012V87.5523C30.8904 87.8144 30.6772 88.027 30.4142 88.027C30.1512 88.027 29.938 87.8144 29.938 87.5523V85.9012C29.938 85.6391 30.1512 85.4265 30.4142 85.4265Z" fill="black"/>
<path fill-rule="evenodd" clip-rule="evenodd" d="M34.5553 79.6478C34.8183 79.6478 35.0315 79.8603 35.0315 80.1225V81.7736C35.0315 82.0357 34.8183 82.2482 34.5553 82.2482C34.2923 82.2482 34.0791 82.0357 34.0791 81.7736V80.1225C34.0791 79.8603 34.2923 79.6478 34.5553 79.6478Z" fill="black"/>
<path d="M51.296 89.112H52.976V83.304L53.096 82.596L52.616 83.16L51.296 84.108L50.84 83.496L53.48 81.456H53.912V89.112H55.556V90H51.296V89.112ZM62.8271 87.42H61.4111V90H60.4751V87.42H56.7791V87.024L60.7631 81.468H61.4111V86.58H62.8271V87.42ZM60.4751 83.964L60.5951 82.98H60.5591L60.1391 83.796L58.4471 86.088L57.8711 86.676L58.7111 86.58H60.4751V83.964ZM67.2973 81.6C67.4493 81.576 67.6173 81.56 67.8013 81.552C67.9933 81.536 68.1893 81.528 68.3893 81.528C68.5973 81.52 68.7973 81.516 68.9893 81.516C69.1893 81.508 69.3733 81.504 69.5413 81.504C70.2133 81.504 70.7933 81.608 71.2813 81.816C71.7773 82.024 72.1853 82.316 72.5053 82.692C72.8253 83.06 73.0613 83.504 73.2133 84.024C73.3733 84.544 73.4533 85.116 73.4533 85.74C73.4533 86.308 73.3773 86.856 73.2253 87.384C73.0813 87.904 72.8493 88.368 72.5293 88.776C72.2093 89.176 71.7933 89.5 71.2813 89.748C70.7693 89.988 70.1493 90.108 69.4213 90.108C69.2933 90.108 69.1253 90.104 68.9173 90.096C68.7173 90.096 68.5093 90.088 68.2933 90.072C68.0773 90.064 67.8773 90.056 67.6933 90.048C67.5093 90.04 67.3773 90.028 67.2973 90.012V81.6ZM69.5653 82.392C69.4613 82.392 69.3453 82.392 69.2173 82.392C69.0973 82.392 68.9773 82.396 68.8573 82.404C68.7373 82.412 68.6253 82.42 68.5213 82.428C68.4253 82.436 68.3493 82.444 68.2933 82.452V89.172C68.3333 89.18 68.4093 89.188 68.5213 89.196C68.6333 89.196 68.7493 89.2 68.8693 89.208C68.9893 89.208 69.1053 89.212 69.2173 89.22C69.3293 89.22 69.4053 89.22 69.4453 89.22C70.0053 89.22 70.4733 89.124 70.8493 88.932C71.2333 88.74 71.5373 88.484 71.7613 88.164C71.9933 87.836 72.1573 87.464 72.2533 87.048C72.3493 86.624 72.3973 86.188 72.3973 85.74C72.3973 85.348 72.3533 84.956 72.2653 84.564C72.1773 84.164 72.0253 83.804 71.8093 83.484C71.5933 83.164 71.3013 82.904 70.9333 82.704C70.5733 82.496 70.1173 82.392 69.5653 82.392ZM74.9569 84.444C75.2609 84.26 75.6129 84.124 76.0129 84.036C76.4209 83.948 76.8449 83.904 77.2849 83.904C77.7009 83.904 78.0329 83.96 78.2809 84.072C78.5369 84.184 78.7289 84.332 78.8569 84.516C78.9929 84.692 79.0809 84.888 79.1209 85.104C79.1689 85.32 79.1929 85.536 79.1929 85.752C79.1929 86.232 79.1809 86.7 79.1569 87.156C79.1329 87.612 79.1209 88.044 79.1209 88.452C79.1209 88.748 79.1329 89.028 79.1569 89.292C79.1809 89.556 79.2249 89.8 79.2889 90.024H78.5809L78.3289 89.184H78.2689C78.1969 89.296 78.1049 89.408 77.9929 89.52C77.8889 89.624 77.7609 89.72 77.6089 89.808C77.4569 89.888 77.2809 89.956 77.0809 90.012C76.8809 90.068 76.6529 90.096 76.3969 90.096C76.1409 90.096 75.9009 90.056 75.6769 89.976C75.4609 89.896 75.2729 89.784 75.1129 89.64C74.9529 89.488 74.8249 89.308 74.7289 89.1C74.6409 88.892 74.5969 88.656 74.5969 88.392C74.5969 88.04 74.6689 87.748 74.8129 87.516C74.9569 87.276 75.1569 87.088 75.4129 86.952C75.6769 86.808 75.9889 86.708 76.3489 86.652C76.7169 86.588 77.1209 86.556 77.5609 86.556C77.6729 86.556 77.7809 86.556 77.8849 86.556C77.9969 86.556 78.1089 86.564 78.2209 86.58C78.2449 86.34 78.2569 86.124 78.2569 85.932C78.2569 85.492 78.1689 85.184 77.9929 85.008C77.8169 84.832 77.4969 84.744 77.0329 84.744C76.8969 84.744 76.7489 84.756 76.5889 84.78C76.4369 84.796 76.2769 84.824 76.1089 84.864C75.9489 84.896 75.7929 84.94 75.6409 84.996C75.4969 85.044 75.3689 85.1 75.2569 85.164L74.9569 84.444ZM76.6609 89.256C76.8849 89.256 77.0849 89.228 77.2609 89.172C77.4369 89.108 77.5889 89.032 77.7169 88.944C77.8449 88.848 77.9489 88.744 78.0289 88.632C78.1169 88.52 78.1809 88.412 78.2209 88.308V87.312C78.1089 87.304 77.9929 87.3 77.8729 87.3C77.7609 87.292 77.6489 87.288 77.5369 87.288C77.2889 87.288 77.0449 87.304 76.8049 87.336C76.5729 87.36 76.3649 87.412 76.1809 87.492C76.0049 87.564 75.8609 87.668 75.7489 87.804C75.6449 87.932 75.5929 88.096 75.5929 88.296C75.5929 88.576 75.6929 88.808 75.8929 88.992C76.0929 89.168 76.3489 89.256 76.6609 89.256ZM82.77 87.888L83.106 89.04H83.166L83.43 87.876L84.594 84H85.566L83.79 89.388C83.654 89.78 83.518 90.16 83.382 90.528C83.254 90.896 83.11 91.224 82.95 91.512C82.79 91.8 82.61 92.028 82.41 92.196C82.21 92.372 81.978 92.46 81.714 92.46C81.426 92.46 81.19 92.42 81.006 92.34L81.174 91.512C81.278 91.552 81.378 91.572 81.474 91.572C81.698 91.572 81.914 91.452 82.122 91.212C82.33 90.98 82.502 90.576 82.638 90L80.226 84H81.33L82.77 87.888ZM89.2359 88.368C89.2359 88.128 89.1639 87.94 89.0199 87.804C88.8759 87.668 88.6959 87.556 88.4799 87.468C88.2719 87.372 88.0399 87.284 87.7839 87.204C87.5359 87.116 87.3039 87.008 87.0879 86.88C86.8799 86.744 86.7039 86.572 86.5599 86.364C86.4159 86.156 86.3439 85.876 86.3439 85.524C86.3439 84.948 86.5079 84.528 86.8359 84.264C87.1639 83.992 87.6199 83.856 88.2039 83.856C88.6359 83.856 88.9959 83.896 89.2839 83.976C89.5799 84.048 89.8359 84.136 90.0519 84.24L89.8239 85.032C89.6399 84.944 89.4159 84.868 89.1519 84.804C88.8959 84.732 88.6199 84.696 88.3239 84.696C87.9719 84.696 87.7119 84.756 87.5439 84.876C87.3839 84.996 87.3039 85.204 87.3039 85.5C87.3039 85.708 87.3759 85.872 87.5199 85.992C87.6639 86.104 87.8399 86.208 88.0479 86.304C88.2639 86.392 88.4959 86.48 88.7439 86.568C88.9999 86.656 89.2319 86.772 89.4399 86.916C89.6559 87.06 89.8359 87.244 89.9799 87.468C90.1239 87.684 90.1959 87.972 90.1959 88.332C90.1959 88.588 90.1519 88.828 90.0639 89.052C89.9839 89.276 89.8559 89.468 89.6799 89.628C89.5039 89.788 89.2839 89.912 89.0199 90C88.7639 90.096 88.4599 90.144 88.1079 90.144C87.6519 90.144 87.2639 90.1 86.9439 90.012C86.6239 89.924 86.3559 89.82 86.1399 89.7L86.4279 88.884C86.6119 88.988 86.8519 89.084 87.1479 89.172C87.4439 89.26 87.7439 89.304 88.0479 89.304C88.3919 89.304 88.6759 89.236 88.8999 89.1C89.1239 88.964 89.2359 88.72 89.2359 88.368ZM101.398 84.36L101.518 83.1H101.458L101.002 84.252L98.8179 88.044H98.5179L96.2019 84.24L95.7699 83.1H95.7099L95.8779 84.348V90H94.9419V81.6H95.6859L98.3139 85.896L98.7099 86.832H98.7339L99.1059 85.872L101.614 81.6H102.394V90H101.398V84.36ZM104.002 87C104.002 85.984 104.226 85.208 104.674 84.672C105.13 84.128 105.782 83.856 106.63 83.856C107.078 83.856 107.466 83.932 107.794 84.084C108.13 84.228 108.406 84.44 108.622 84.72C108.838 84.992 108.998 85.324 109.102 85.716C109.206 86.1 109.258 86.528 109.258 87C109.258 88.016 109.03 88.796 108.574 89.34C108.126 89.876 107.478 90.144 106.63 90.144C106.182 90.144 105.79 90.072 105.454 89.928C105.126 89.776 104.854 89.564 104.638 89.292C104.422 89.012 104.262 88.68 104.158 88.296C104.054 87.904 104.002 87.472 104.002 87ZM104.998 87C104.998 87.304 105.026 87.596 105.082 87.876C105.146 88.156 105.242 88.4 105.37 88.608C105.498 88.816 105.666 88.984 105.874 89.112C106.082 89.24 106.334 89.304 106.63 89.304C107.718 89.312 108.262 88.544 108.262 87C108.262 86.688 108.23 86.392 108.166 86.112C108.11 85.832 108.018 85.588 107.89 85.38C107.762 85.172 107.594 85.008 107.386 84.888C107.178 84.76 106.926 84.696 106.63 84.696C105.542 84.688 104.998 85.456 104.998 87ZM114.624 90V86.58C114.624 85.956 114.532 85.488 114.348 85.176C114.172 84.856 113.844 84.696 113.364 84.696C112.94 84.696 112.588 84.812 112.308 85.044C112.036 85.268 111.844 85.552 111.732 85.896V90H110.772V84H111.444L111.624 84.732H111.672C111.864 84.476 112.12 84.268 112.44 84.108C112.768 83.94 113.156 83.856 113.604 83.856C113.932 83.856 114.22 83.896 114.468 83.976C114.716 84.048 114.92 84.18 115.08 84.372C115.248 84.564 115.372 84.824 115.452 85.152C115.54 85.472 115.584 85.88 115.584 86.376V90H114.624ZM121.714 89.52C121.474 89.712 121.17 89.864 120.802 89.976C120.442 90.088 120.058 90.144 119.65 90.144C119.194 90.144 118.798 90.072 118.462 89.928C118.126 89.776 117.85 89.564 117.634 89.292C117.418 89.012 117.258 88.68 117.154 88.296C117.05 87.912 116.998 87.48 116.998 87C116.998 85.976 117.226 85.196 117.682 84.66C118.138 84.124 118.79 83.856 119.638 83.856C119.91 83.856 120.182 83.888 120.454 83.952C120.726 84.008 120.97 84.12 121.186 84.288C121.402 84.456 121.578 84.696 121.714 85.008C121.85 85.312 121.918 85.716 121.918 86.22C121.918 86.484 121.894 86.776 121.846 87.096H117.994C117.994 87.448 118.03 87.76 118.102 88.032C118.174 88.304 118.286 88.536 118.438 88.728C118.59 88.912 118.786 89.056 119.026 89.16C119.274 89.256 119.574 89.304 119.926 89.304C120.198 89.304 120.47 89.256 120.742 89.16C121.014 89.064 121.218 88.952 121.354 88.824L121.714 89.52ZM119.65 84.696C119.178 84.696 118.798 84.82 118.51 85.068C118.23 85.316 118.062 85.74 118.006 86.34H120.982C120.982 85.732 120.866 85.308 120.634 85.068C120.402 84.82 120.074 84.696 119.65 84.696ZM124.922 87.888L125.258 89.04H125.318L125.582 87.876L126.746 84H127.718L125.942 89.388C125.806 89.78 125.67 90.16 125.534 90.528C125.406 90.896 125.262 91.224 125.102 91.512C124.942 91.8 124.762 92.028 124.562 92.196C124.362 92.372 124.13 92.46 123.866 92.46C123.578 92.46 123.342 92.42 123.158 92.34L123.326 91.512C123.43 91.552 123.53 91.572 123.626 91.572C123.85 91.572 124.066 91.452 124.274 91.212C124.482 90.98 124.654 90.576 124.79 90L122.378 84H123.482L124.922 87.888ZM56.084 101.52C56.084 101.72 56.052 101.924 55.988 102.132C55.924 102.34 55.828 102.536 55.7 102.72C55.572 102.896 55.408 103.052 55.208 103.188C55.008 103.324 54.772 103.428 54.5 103.5V103.548C54.74 103.588 54.968 103.656 55.184 103.752C55.408 103.848 55.604 103.98 55.772 104.148C55.94 104.316 56.076 104.52 56.18 104.76C56.284 105 56.336 105.284 56.336 105.612C56.336 106.044 56.244 106.42 56.06 106.74C55.884 107.052 55.648 107.308 55.352 107.508C55.064 107.708 54.732 107.856 54.356 107.952C53.98 108.048 53.596 108.096 53.204 108.096C53.068 108.096 52.908 108.096 52.724 108.096C52.54 108.096 52.348 108.088 52.148 108.072C51.948 108.064 51.748 108.048 51.548 108.024C51.348 108.008 51.172 107.98 51.02 107.94V99.672C51.316 99.624 51.66 99.584 52.052 99.552C52.444 99.52 52.872 99.504 53.336 99.504C53.648 99.504 53.964 99.532 54.284 99.588C54.612 99.636 54.908 99.736 55.172 99.888C55.436 100.032 55.652 100.236 55.82 100.5C55.996 100.764 56.084 101.104 56.084 101.52ZM53.3 107.232C53.556 107.232 53.804 107.204 54.044 107.148C54.284 107.084 54.496 106.988 54.68 106.86C54.864 106.724 55.008 106.56 55.112 106.368C55.224 106.176 55.28 105.948 55.28 105.684C55.28 105.356 55.212 105.092 55.076 104.892C54.948 104.692 54.776 104.536 54.56 104.424C54.352 104.312 54.116 104.236 53.852 104.196C53.588 104.156 53.324 104.136 53.06 104.136H52.016V107.148C52.072 107.164 52.152 107.176 52.256 107.184C52.36 107.192 52.472 107.2 52.592 107.208C52.712 107.216 52.836 107.224 52.964 107.232C53.092 107.232 53.204 107.232 53.3 107.232ZM52.64 103.296C52.776 103.296 52.94 103.292 53.132 103.284C53.324 103.276 53.484 103.264 53.612 103.248C53.804 103.184 53.984 103.108 54.152 103.02C54.32 102.924 54.468 102.816 54.596 102.696C54.732 102.568 54.836 102.424 54.908 102.264C54.988 102.096 55.028 101.916 55.028 101.724C55.028 101.46 54.976 101.244 54.872 101.076C54.776 100.9 54.644 100.76 54.476 100.656C54.308 100.552 54.116 100.48 53.9 100.44C53.684 100.392 53.464 100.368 53.24 100.368C52.976 100.368 52.732 100.376 52.508 100.392C52.292 100.4 52.128 100.416 52.016 100.44V103.296H52.64ZM57.8358 102.444C58.1398 102.26 58.4918 102.124 58.8918 102.036C59.2998 101.948 59.7238 101.904 60.1638 101.904C60.5798 101.904 60.9118 101.96 61.1598 102.072C61.4158 102.184 61.6078 102.332 61.7358 102.516C61.8718 102.692 61.9598 102.888 61.9998 103.104C62.0478 103.32 62.0718 103.536 62.0718 103.752C62.0718 104.232 62.0598 104.7 62.0358 105.156C62.0118 105.612 61.9998 106.044 61.9998 106.452C61.9998 106.748 62.0118 107.028 62.0358 107.292C62.0598 107.556 62.1038 107.8 62.1678 108.024H61.4598L61.2078 107.184H61.1478C61.0758 107.296 60.9838 107.408 60.8718 107.52C60.7678 107.624 60.6398 107.72 60.4878 107.808C60.3358 107.888 60.1598 107.956 59.9598 108.012C59.7598 108.068 59.5318 108.096 59.2758 108.096C59.0198 108.096 58.7798 108.056 58.5558 107.976C58.3398 107.896 58.1518 107.784 57.9918 107.64C57.8318 107.488 57.7038 107.308 57.6078 107.1C57.5198 106.892 57.4758 106.656 57.4758 106.392C57.4758 106.04 57.5478 105.748 57.6918 105.516C57.8358 105.276 58.0358 105.088 58.2918 104.952C58.5558 104.808 58.8678 104.708 59.2278 104.652C59.5958 104.588 59.9998 104.556 60.4398 104.556C60.5518 104.556 60.6598 104.556 60.7638 104.556C60.8758 104.556 60.9878 104.564 61.0998 104.58C61.1238 104.34 61.1358 104.124 61.1358 103.932C61.1358 103.492 61.0478 103.184 60.8718 103.008C60.6958 102.832 60.3758 102.744 59.9118 102.744C59.7758 102.744 59.6278 102.756 59.4678 102.78C59.3158 102.796 59.1558 102.824 58.9878 102.864C58.8278 102.896 58.6718 102.94 58.5198 102.996C58.3758 103.044 58.2478 103.1 58.1358 103.164L57.8358 102.444ZM59.5398 107.256C59.7638 107.256 59.9638 107.228 60.1398 107.172C60.3158 107.108 60.4678 107.032 60.5958 106.944C60.7238 106.848 60.8278 106.744 60.9078 106.632C60.9958 106.52 61.0598 106.412 61.0998 106.308V105.312C60.9878 105.304 60.8718 105.3 60.7518 105.3C60.6398 105.292 60.5278 105.288 60.4158 105.288C60.1678 105.288 59.9238 105.304 59.6838 105.336C59.4518 105.36 59.2438 105.412 59.0598 105.492C58.8838 105.564 58.7398 105.668 58.6278 105.804C58.5238 105.932 58.4718 106.096 58.4718 106.296C58.4718 106.576 58.5718 106.808 58.7718 106.992C58.9718 107.168 59.2278 107.256 59.5398 107.256ZM67.9769 107.604C67.7369 107.78 67.4529 107.912 67.1249 108C66.7969 108.096 66.4529 108.144 66.0929 108.144C65.6289 108.144 65.2369 108.072 64.9169 107.928C64.5969 107.776 64.3329 107.564 64.1249 107.292C63.9249 107.012 63.7769 106.68 63.6809 106.296C63.5929 105.904 63.5489 105.472 63.5489 105C63.5489 103.984 63.7729 103.208 64.2209 102.672C64.6689 102.128 65.3129 101.856 66.1529 101.856C66.5369 101.856 66.8609 101.888 67.1249 101.952C67.3969 102.008 67.6409 102.092 67.8569 102.204L67.5809 103.032C67.3969 102.928 67.1929 102.848 66.9689 102.792C66.7449 102.728 66.5049 102.696 66.2489 102.696C65.1129 102.696 64.5449 103.464 64.5449 105C64.5449 105.304 64.5729 105.596 64.6289 105.876C64.6929 106.148 64.7929 106.392 64.9289 106.608C65.0729 106.816 65.2569 106.984 65.4809 107.112C65.7129 107.24 65.9969 107.304 66.3329 107.304C66.6209 107.304 66.8769 107.26 67.1009 107.172C67.3329 107.084 67.5209 106.984 67.6649 106.872L67.9769 107.604ZM70.811 105.3H70.259V108H69.299V99.6H70.259V104.712L70.751 104.544L72.611 102H73.727L71.891 104.412L71.399 104.808L71.999 105.288L74.003 108H72.815L70.811 105.3Z" fill="#243238"/>
<path fill-rule="evenodd" clip-rule="evenodd" d="M20 21.4762C20 21.2132 20.2132 21 20.4762 21H36.2112C36.4742 21 36.6874 21.2132 36.6874 21.4762V26.8592C36.6874 27.1222 36.4742 27.3354 36.2112 27.3354C35.9482 27.3354 35.735 27.1222 35.735 26.8592V21.9524H20.9524V30.9379H22.9607C23.2237 30.9379 23.4369 31.1511 23.4369 31.4141V33.5771L25.9366 31.0774C26.0259 30.9881 26.147 30.9379 26.2733 30.9379H27.1014C27.3644 30.9379 27.5776 31.1511 27.5776 31.4141C27.5776 31.6771 27.3644 31.8903 27.1014 31.8903H26.4705L23.2974 35.0634C23.1612 35.1996 22.9564 35.2404 22.7784 35.1667C22.6005 35.0929 22.4845 34.9193 22.4845 34.7267V31.8903H20.4762C20.2132 31.8903 20 31.6771 20 31.4141V21.4762Z" fill="black"/>
<path fill-rule="evenodd" clip-rule="evenodd" d="M29.1097 28.9296C29.1097 28.6666 29.3229 28.4534 29.5859 28.4534H39.5238C39.7868 28.4534 39.9999 28.6666 39.9999 28.9296V35.5548C39.9999 35.8178 39.7868 36.031 39.5238 36.031H38.3436V38.8674C38.3436 39.055 38.2336 39.225 38.0625 39.3018C37.8915 39.3787 37.6912 39.3479 37.5511 39.2234L33.9597 36.031H29.5859C29.3229 36.031 29.1097 35.8178 29.1097 35.5548V28.9296ZM30.0621 35.0786H34.1407C34.2574 35.0786 34.3699 35.1214 34.4571 35.1989L37.3913 37.807V35.5548C37.3913 35.2918 37.6045 35.0786 37.8674 35.0786H39.0476V29.4058H30.0621V35.0786Z" fill="black"/>
<path d="M55.352 26.508C55.352 26.932 55.272 27.368 55.112 27.816C54.96 28.256 54.756 28.7 54.5 29.148C54.252 29.596 53.972 30.036 53.66 30.468C53.348 30.892 53.036 31.296 52.724 31.68L52.136 32.196V32.244L52.904 32.112H55.52V33H50.744V32.652C50.92 32.468 51.132 32.24 51.38 31.968C51.628 31.696 51.884 31.396 52.148 31.068C52.42 30.732 52.684 30.38 52.94 30.012C53.204 29.636 53.44 29.256 53.648 28.872C53.864 28.488 54.036 28.108 54.164 27.732C54.292 27.356 54.356 27 54.356 26.664C54.356 26.272 54.244 25.948 54.02 25.692C53.796 25.428 53.456 25.296 53 25.296C52.696 25.296 52.4 25.36 52.112 25.488C51.824 25.608 51.576 25.748 51.368 25.908L50.972 25.224C51.252 24.984 51.584 24.796 51.968 24.66C52.352 24.524 52.764 24.456 53.204 24.456C53.548 24.456 53.852 24.508 54.116 24.612C54.38 24.708 54.604 24.848 54.788 25.032C54.972 25.216 55.112 25.436 55.208 25.692C55.304 25.94 55.352 26.212 55.352 26.508ZM62.8271 30.42H61.4111V33H60.4751V30.42H56.7791V30.024L60.7631 24.468H61.4111V29.58H62.8271V30.42ZM60.4751 26.964L60.5951 25.98H60.5591L60.1391 26.796L58.4471 29.088L57.8711 29.676L58.7111 29.58H60.4751V26.964ZM67.0141 24.456L67.7701 24.792L63.3901 34.68L62.6341 34.344L67.0141 24.456ZM68.6403 33L71.6523 25.968L72.1803 25.38L71.4723 25.488H68.0523V24.6H73.0683V24.924L69.6123 33H68.6403ZM82.8101 32.652C82.5701 32.836 82.2661 32.964 81.8981 33.036C81.5301 33.108 81.1381 33.144 80.7221 33.144C80.2181 33.144 79.7461 33.06 79.3061 32.892C78.8661 32.716 78.4821 32.452 78.1541 32.1C77.8261 31.748 77.5661 31.3 77.3741 30.756C77.1821 30.204 77.0861 29.552 77.0861 28.8C77.0861 28.016 77.1901 27.352 77.3981 26.808C77.6141 26.256 77.8941 25.808 78.2381 25.464C78.5901 25.112 78.9821 24.856 79.4141 24.696C79.8461 24.536 80.2861 24.456 80.7341 24.456C81.2141 24.456 81.6061 24.484 81.9101 24.54C82.2141 24.588 82.4741 24.656 82.6901 24.744L82.4501 25.62C82.0661 25.436 81.5181 25.344 80.8061 25.344C80.4781 25.344 80.1541 25.404 79.8341 25.524C79.5141 25.644 79.2261 25.84 78.9701 26.112C78.7221 26.384 78.5221 26.74 78.3701 27.18C78.2181 27.62 78.1421 28.16 78.1421 28.8C78.1421 29.376 78.2141 29.88 78.3581 30.312C78.5021 30.744 78.6981 31.104 78.9461 31.392C79.2021 31.68 79.4981 31.896 79.8341 32.04C80.1781 32.184 80.5501 32.256 80.9501 32.256C81.3101 32.256 81.6221 32.22 81.8861 32.148C82.1581 32.076 82.3861 31.984 82.5701 31.872L82.8101 32.652ZM84.8583 27V30.42C84.8583 30.732 84.8743 31.008 84.9063 31.248C84.9463 31.48 85.0103 31.676 85.0983 31.836C85.1863 31.988 85.3063 32.104 85.4583 32.184C85.6103 32.264 85.8023 32.304 86.0343 32.304C86.2503 32.304 86.4423 32.272 86.6103 32.208C86.7783 32.136 86.9263 32.04 87.0543 31.92C87.1903 31.8 87.3063 31.664 87.4023 31.512C87.5063 31.352 87.5903 31.184 87.6543 31.008V27H88.6143V31.296C88.6143 31.584 88.6223 31.884 88.6383 32.196C88.6623 32.5 88.6983 32.768 88.7463 33H88.0863L87.8463 32.052H87.7863C87.6023 32.364 87.3543 32.624 87.0423 32.832C86.7303 33.04 86.3343 33.144 85.8543 33.144C85.5343 33.144 85.2503 33.104 85.0023 33.024C84.7623 32.952 84.5583 32.82 84.3903 32.628C84.2303 32.436 84.1063 32.18 84.0183 31.86C83.9383 31.532 83.8983 31.12 83.8983 30.624V27H84.8583ZM93.1031 31.368C93.1031 31.128 93.0311 30.94 92.8871 30.804C92.7431 30.668 92.5631 30.556 92.3471 30.468C92.1391 30.372 91.9071 30.284 91.6511 30.204C91.4031 30.116 91.1711 30.008 90.9551 29.88C90.7471 29.744 90.5711 29.572 90.4271 29.364C90.2831 29.156 90.2111 28.876 90.2111 28.524C90.2111 27.948 90.3751 27.528 90.7031 27.264C91.0311 26.992 91.4871 26.856 92.0711 26.856C92.5031 26.856 92.8631 26.896 93.1511 26.976C93.4471 27.048 93.7031 27.136 93.9191 27.24L93.6911 28.032C93.5071 27.944 93.2831 27.868 93.0191 27.804C92.7631 27.732 92.4871 27.696 92.1911 27.696C91.8391 27.696 91.5791 27.756 91.4111 27.876C91.2511 27.996 91.1711 28.204 91.1711 28.5C91.1711 28.708 91.2431 28.872 91.3871 28.992C91.5311 29.104 91.7071 29.208 91.9151 29.304C92.1311 29.392 92.3631 29.48 92.6111 29.568C92.8671 29.656 93.0991 29.772 93.3071 29.916C93.5231 30.06 93.7031 30.244 93.8471 30.468C93.9911 30.684 94.0631 30.972 94.0631 31.332C94.0631 31.588 94.0191 31.828 93.9311 32.052C93.8511 32.276 93.7231 32.468 93.5471 32.628C93.3711 32.788 93.1511 32.912 92.8871 33C92.6311 33.096 92.3271 33.144 91.9751 33.144C91.5191 33.144 91.1311 33.1 90.8111 33.012C90.4911 32.924 90.2231 32.82 90.0071 32.7L90.2951 31.884C90.4791 31.988 90.7191 32.084 91.0151 32.172C91.3111 32.26 91.6111 32.304 91.9151 32.304C92.2591 32.304 92.5431 32.236 92.7671 32.1C92.9911 31.964 93.1031 31.72 93.1031 31.368ZM94.7218 27H95.6578V25.812L96.6178 25.536V27H98.2498V27.84H96.6178V31.164C96.6178 31.58 96.6698 31.876 96.7738 32.052C96.8778 32.22 97.0538 32.304 97.3018 32.304C97.5098 32.304 97.6858 32.284 97.8298 32.244C97.9738 32.196 98.1338 32.136 98.3098 32.064L98.5258 32.796C98.3098 32.9 98.0738 32.984 97.8178 33.048C97.5618 33.112 97.2858 33.144 96.9898 33.144C96.5018 33.144 96.1578 33.008 95.9578 32.736C95.7578 32.456 95.6578 31.992 95.6578 31.344V27.84H94.7218V27ZM99.1153 30C99.1153 28.984 99.3393 28.208 99.7873 27.672C100.243 27.128 100.895 26.856 101.743 26.856C102.191 26.856 102.579 26.932 102.907 27.084C103.243 27.228 103.519 27.44 103.735 27.72C103.951 27.992 104.111 28.324 104.215 28.716C104.319 29.1 104.371 29.528 104.371 30C104.371 31.016 104.143 31.796 103.687 32.34C103.239 32.876 102.591 33.144 101.743 33.144C101.295 33.144 100.903 33.072 100.567 32.928C100.239 32.776 99.9673 32.564 99.7513 32.292C99.5353 32.012 99.3753 31.68 99.2713 31.296C99.1673 30.904 99.1153 30.472 99.1153 30ZM100.111 30C100.111 30.304 100.139 30.596 100.195 30.876C100.259 31.156 100.355 31.4 100.483 31.608C100.611 31.816 100.779 31.984 100.987 32.112C101.195 32.24 101.447 32.304 101.743 32.304C102.831 32.312 103.375 31.544 103.375 30C103.375 29.688 103.343 29.392 103.279 29.112C103.223 28.832 103.131 28.588 103.003 28.38C102.875 28.172 102.707 28.008 102.499 27.888C102.291 27.76 102.039 27.696 101.743 27.696C100.655 27.688 100.111 28.456 100.111 30ZM109.401 33V29.604C109.401 29.284 109.385 29.008 109.353 28.776C109.329 28.536 109.277 28.336 109.197 28.176C109.117 28.016 109.001 27.896 108.849 27.816C108.705 27.736 108.513 27.696 108.273 27.696C107.905 27.696 107.597 27.808 107.349 28.032C107.109 28.256 106.941 28.536 106.845 28.872V33H105.885V27H106.557L106.737 27.732H106.785C107.001 27.476 107.249 27.268 107.529 27.108C107.817 26.94 108.189 26.856 108.645 26.856C109.029 26.856 109.341 26.932 109.581 27.084C109.829 27.228 110.021 27.484 110.157 27.852C110.341 27.54 110.593 27.296 110.913 27.12C111.241 26.944 111.609 26.856 112.017 26.856C112.353 26.856 112.637 26.896 112.869 26.976C113.101 27.048 113.293 27.18 113.445 27.372C113.597 27.564 113.705 27.824 113.769 28.152C113.841 28.48 113.877 28.896 113.877 29.4V33H112.917V29.388C112.917 29.1 112.901 28.852 112.869 28.644C112.845 28.428 112.789 28.252 112.701 28.116C112.621 27.972 112.505 27.868 112.353 27.804C112.209 27.732 112.017 27.696 111.777 27.696C111.377 27.696 111.065 27.808 110.841 28.032C110.617 28.256 110.457 28.576 110.361 28.992V33H109.401ZM120.003 32.52C119.763 32.712 119.459 32.864 119.091 32.976C118.731 33.088 118.347 33.144 117.939 33.144C117.483 33.144 117.087 33.072 116.751 32.928C116.415 32.776 116.139 32.564 115.923 32.292C115.707 32.012 115.547 31.68 115.443 31.296C115.339 30.912 115.287 30.48 115.287 30C115.287 28.976 115.515 28.196 115.971 27.66C116.427 27.124 117.079 26.856 117.927 26.856C118.199 26.856 118.471 26.888 118.743 26.952C119.015 27.008 119.259 27.12 119.475 27.288C119.691 27.456 119.867 27.696 120.003 28.008C120.139 28.312 120.207 28.716 120.207 29.22C120.207 29.484 120.183 29.776 120.135 30.096H116.283C116.283 30.448 116.319 30.76 116.391 31.032C116.463 31.304 116.575 31.536 116.727 31.728C116.879 31.912 117.075 32.056 117.315 32.16C117.563 32.256 117.863 32.304 118.215 32.304C118.487 32.304 118.759 32.256 119.031 32.16C119.303 32.064 119.507 31.952 119.643 31.824L120.003 32.52ZM117.939 27.696C117.467 27.696 117.087 27.82 116.799 28.068C116.519 28.316 116.351 28.74 116.295 29.34H119.271C119.271 28.732 119.155 28.308 118.923 28.068C118.691 27.82 118.363 27.696 117.939 27.696ZM124.549 27.924C124.309 27.844 124.081 27.804 123.865 27.804C123.521 27.804 123.249 27.9 123.049 28.092C122.849 28.276 122.725 28.512 122.677 28.8V33H121.717V27H122.389L122.569 27.732H122.617C122.769 27.46 122.949 27.252 123.157 27.108C123.373 26.956 123.645 26.88 123.973 26.88C124.205 26.88 124.465 26.92 124.753 27L124.549 27.924ZM56.396 50.652C56.156 50.836 55.852 50.964 55.484 51.036C55.116 51.108 54.724 51.144 54.308 51.144C53.804 51.144 53.332 51.06 52.892 50.892C52.452 50.716 52.068 50.452 51.74 50.1C51.412 49.748 51.152 49.3 50.96 48.756C50.768 48.204 50.672 47.552 50.672 46.8C50.672 46.016 50.776 45.352 50.984 44.808C51.2 44.256 51.48 43.808 51.824 43.464C52.176 43.112 52.568 42.856 53 42.696C53.432 42.536 53.872 42.456 54.32 42.456C54.8 42.456 55.192 42.484 55.496 42.54C55.8 42.588 56.06 42.656 56.276 42.744L56.036 43.62C55.652 43.436 55.104 43.344 54.392 43.344C54.064 43.344 53.74 43.404 53.42 43.524C53.1 43.644 52.812 43.84 52.556 44.112C52.308 44.384 52.108 44.74 51.956 45.18C51.804 45.62 51.728 46.16 51.728 46.8C51.728 47.376 51.8 47.88 51.944 48.312C52.088 48.744 52.284 49.104 52.532 49.392C52.788 49.68 53.084 49.896 53.42 50.04C53.764 50.184 54.136 50.256 54.536 50.256C54.896 50.256 55.208 50.22 55.472 50.148C55.744 50.076 55.972 49.984 56.156 49.872L56.396 50.652ZM57.4843 45.444C57.7883 45.26 58.1403 45.124 58.5403 45.036C58.9483 44.948 59.3723 44.904 59.8123 44.904C60.2283 44.904 60.5603 44.96 60.8083 45.072C61.0643 45.184 61.2563 45.332 61.3843 45.516C61.5203 45.692 61.6083 45.888 61.6483 46.104C61.6963 46.32 61.7203 46.536 61.7203 46.752C61.7203 47.232 61.7083 47.7 61.6843 48.156C61.6603 48.612 61.6483 49.044 61.6483 49.452C61.6483 49.748 61.6603 50.028 61.6843 50.292C61.7083 50.556 61.7523 50.8 61.8163 51.024H61.1083L60.8563 50.184H60.7963C60.7243 50.296 60.6323 50.408 60.5203 50.52C60.4163 50.624 60.2883 50.72 60.1363 50.808C59.9843 50.888 59.8083 50.956 59.6083 51.012C59.4083 51.068 59.1803 51.096 58.9243 51.096C58.6683 51.096 58.4283 51.056 58.2043 50.976C57.9883 50.896 57.8003 50.784 57.6403 50.64C57.4803 50.488 57.3523 50.308 57.2563 50.1C57.1683 49.892 57.1243 49.656 57.1243 49.392C57.1243 49.04 57.1963 48.748 57.3403 48.516C57.4843 48.276 57.6843 48.088 57.9403 47.952C58.2043 47.808 58.5163 47.708 58.8763 47.652C59.2443 47.588 59.6483 47.556 60.0883 47.556C60.2003 47.556 60.3083 47.556 60.4123 47.556C60.5243 47.556 60.6363 47.564 60.7483 47.58C60.7723 47.34 60.7843 47.124 60.7843 46.932C60.7843 46.492 60.6963 46.184 60.5203 46.008C60.3443 45.832 60.0243 45.744 59.5603 45.744C59.4243 45.744 59.2763 45.756 59.1163 45.78C58.9643 45.796 58.8043 45.824 58.6363 45.864C58.4763 45.896 58.3203 45.94 58.1683 45.996C58.0243 46.044 57.8963 46.1 57.7843 46.164L57.4843 45.444ZM59.1883 50.256C59.4123 50.256 59.6123 50.228 59.7883 50.172C59.9643 50.108 60.1163 50.032 60.2443 49.944C60.3723 49.848 60.4763 49.744 60.5563 49.632C60.6443 49.52 60.7083 49.412 60.7483 49.308V48.312C60.6363 48.304 60.5203 48.3 60.4003 48.3C60.2883 48.292 60.1763 48.288 60.0643 48.288C59.8163 48.288 59.5723 48.304 59.3323 48.336C59.1003 48.36 58.8923 48.412 58.7083 48.492C58.5323 48.564 58.3883 48.668 58.2763 48.804C58.1723 48.932 58.1203 49.096 58.1203 49.296C58.1203 49.576 58.2203 49.808 58.4202 49.992C58.6203 50.168 58.8763 50.256 59.1883 50.256ZM66.3654 45.924C66.1254 45.844 65.8974 45.804 65.6814 45.804C65.3374 45.804 65.0654 45.9 64.8654 46.092C64.6654 46.276 64.5414 46.512 64.4934 46.8V51H63.5334V45H64.2054L64.3854 45.732H64.4334C64.5854 45.46 64.7654 45.252 64.9734 45.108C65.1894 44.956 65.4614 44.88 65.7894 44.88C66.0214 44.88 66.2814 44.92 66.5694 45L66.3654 45.924ZM71.9915 50.52C71.7515 50.712 71.4475 50.864 71.0795 50.976C70.7195 51.088 70.3355 51.144 69.9275 51.144C69.4715 51.144 69.0755 51.072 68.7395 50.928C68.4035 50.776 68.1275 50.564 67.9115 50.292C67.6955 50.012 67.5355 49.68 67.4315 49.296C67.3275 48.912 67.2755 48.48 67.2755 48C67.2755 46.976 67.5035 46.196 67.9595 45.66C68.4155 45.124 69.0675 44.856 69.9155 44.856C70.1875 44.856 70.4595 44.888 70.7315 44.952C71.0035 45.008 71.2475 45.12 71.4635 45.288C71.6795 45.456 71.8555 45.696 71.9915 46.008C72.1275 46.312 72.1955 46.716 72.1955 47.22C72.1955 47.484 72.1715 47.776 72.1235 48.096H68.2715C68.2715 48.448 68.3075 48.76 68.3795 49.032C68.4515 49.304 68.5635 49.536 68.7155 49.728C68.8675 49.912 69.0635 50.056 69.3035 50.16C69.5515 50.256 69.8515 50.304 70.2035 50.304C70.4755 50.304 70.7475 50.256 71.0195 50.16C71.2915 50.064 71.4955 49.952 71.6315 49.824L71.9915 50.52ZM69.9275 45.696C69.4555 45.696 69.0755 45.82 68.7875 46.068C68.5075 46.316 68.3395 46.74 68.2835 47.34H71.2595C71.2595 46.732 71.1435 46.308 70.9115 46.068C70.6795 45.82 70.3515 45.696 69.9275 45.696Z" fill="#243238"/>
<defs>
<linearGradient id="paint0_linear" x1="300" y1="0" x2="0" y2="0" gradientUnits="userSpaceOnUse">
<stop stop-color="#FFFBF0"/>
<stop offset="1" stop-color="#EEFBF2"/>
</linearGradient>
</defs>
</svg>
