<svg width="124" height="60" viewBox="0 0 124 60" fill="none" xmlns="http://www.w3.org/2000/svg">
<path d="M53.01 31.464H52.352V36H51.19V26.2H52.352V30.764L52.982 30.568L56.272 26.2H57.616L54.34 30.414L53.752 30.876L54.466 31.436L58.05 36H56.58L53.01 31.464ZM58.3149 32.5C58.3149 31.3147 58.5762 30.4093 59.0989 29.784C59.6309 29.1493 60.3916 28.832 61.3809 28.832C61.9036 28.832 62.3562 28.9207 62.7389 29.098C63.1309 29.266 63.4529 29.5133 63.7049 29.84C63.9569 30.1573 64.1436 30.5447 64.2649 31.002C64.3862 31.45 64.4469 31.9493 64.4469 32.5C64.4469 33.6853 64.1809 34.5953 63.6489 35.23C63.1262 35.8553 62.3702 36.168 61.3809 36.168C60.8582 36.168 60.4009 36.084 60.0089 35.916C59.6262 35.7387 59.3089 35.4913 59.0569 35.174C58.8049 34.8473 58.6182 34.46 58.4969 34.012C58.3756 33.5547 58.3149 33.0507 58.3149 32.5ZM59.4769 32.5C59.4769 32.8547 59.5096 33.1953 59.5749 33.522C59.6496 33.8487 59.7616 34.1333 59.9109 34.376C60.0602 34.6187 60.2562 34.8147 60.4989 34.964C60.7416 35.1133 61.0356 35.188 61.3809 35.188C62.6502 35.1973 63.2849 34.3013 63.2849 32.5C63.2849 32.136 63.2476 31.7907 63.1729 31.464C63.1076 31.1373 63.0002 30.8527 62.8509 30.61C62.7016 30.3673 62.5056 30.176 62.2629 30.036C62.0202 29.8867 61.7262 29.812 61.3809 29.812C60.1116 29.8027 59.4769 30.6987 59.4769 32.5ZM69.8967 29.98H67.8667C67.8387 30.372 67.8107 30.7967 67.7827 31.254C67.7547 31.702 67.7127 32.1547 67.6567 32.612C67.6007 33.06 67.5261 33.494 67.4327 33.914C67.3394 34.3247 67.2181 34.6887 67.0687 35.006C66.9287 35.3233 66.7514 35.58 66.5367 35.776C66.3314 35.9627 66.0841 36.056 65.7947 36.056C65.6174 36.056 65.4634 36.0467 65.3327 36.028C65.2021 36.0093 65.0854 35.9767 64.9827 35.93L65.1507 34.992C65.2627 35.0293 65.3841 35.048 65.5147 35.048C65.7014 35.048 65.8694 34.9687 66.0187 34.81C66.1681 34.6513 66.2987 34.3527 66.4107 33.914C66.5227 33.466 66.6161 32.85 66.6907 32.066C66.7654 31.282 66.8167 30.26 66.8447 29H71.0167V36H69.8967V29.98ZM78.2818 35.44C78.0017 35.664 77.6471 35.8413 77.2177 35.972C76.7977 36.1027 76.3497 36.168 75.8738 36.168C75.3417 36.168 74.8798 36.084 74.4878 35.916C74.0958 35.7387 73.7737 35.4913 73.5217 35.174C73.2697 34.8473 73.0831 34.46 72.9617 34.012C72.8404 33.564 72.7797 33.06 72.7797 32.5C72.7797 31.3053 73.0458 30.3953 73.5777 29.77C74.1097 29.1447 74.8704 28.832 75.8597 28.832C76.1771 28.832 76.4944 28.8693 76.8118 28.944C77.1291 29.0093 77.4137 29.14 77.6658 29.336C77.9178 29.532 78.1231 29.812 78.2818 30.176C78.4404 30.5307 78.5197 31.002 78.5197 31.59C78.5197 31.898 78.4917 32.2387 78.4358 32.612H73.9417C73.9417 33.0227 73.9838 33.3867 74.0678 33.704C74.1517 34.0213 74.2824 34.292 74.4597 34.516C74.6371 34.7307 74.8657 34.8987 75.1457 35.02C75.4351 35.132 75.7851 35.188 76.1958 35.188C76.5131 35.188 76.8304 35.132 77.1478 35.02C77.4651 34.908 77.7031 34.7773 77.8618 34.628L78.2818 35.44ZM75.8738 29.812C75.3231 29.812 74.8798 29.9567 74.5437 30.246C74.2171 30.5353 74.0211 31.03 73.9558 31.73H77.4278C77.4278 31.0207 77.2924 30.526 77.0217 30.246C76.7511 29.9567 76.3684 29.812 75.8738 29.812ZM82.0451 32.85H81.4011V36H80.2811V29H81.4011V32.164L82.0031 31.968L84.2431 29H85.4611L83.2911 31.814L82.7031 32.276L83.4311 32.836L85.7691 36H84.3831L82.0451 32.85ZM93.2527 37.778H92.4967L92.2867 36H86.9667V29H88.0867V35.02H91.1247V29H92.2447V35.02H93.2527V37.778ZM94.8746 29H95.9946V36H94.8746V29ZM94.6366 26.872C94.6366 26.6573 94.7066 26.4753 94.8466 26.326C94.9959 26.1673 95.1826 26.088 95.4066 26.088C95.6306 26.088 95.8219 26.1673 95.9806 26.326C96.1393 26.4753 96.2186 26.6573 96.2186 26.872C96.2186 27.0867 96.1393 27.264 95.9806 27.404C95.8219 27.544 95.6306 27.614 95.4066 27.614C95.1826 27.614 94.9959 27.544 94.8466 27.404C94.7066 27.264 94.6366 27.0867 94.6366 26.872ZM101.869 33.102L100.791 33.27L98.9427 36H97.5847L99.2647 33.606L99.8247 33.088C99.3394 33.0133 98.924 32.8173 98.5787 32.5C98.2427 32.1827 98.0747 31.7533 98.0747 31.212C98.0747 30.792 98.1447 30.4327 98.2847 30.134C98.434 29.8353 98.644 29.588 98.9147 29.392C99.1854 29.196 99.5074 29.056 99.8807 28.972C100.254 28.8787 100.674 28.832 101.141 28.832C101.486 28.832 101.808 28.8553 102.107 28.902C102.405 28.9487 102.699 29 102.989 29.056V36H101.869V33.102ZM101.869 29.952C101.747 29.9053 101.612 29.8727 101.463 29.854C101.313 29.826 101.183 29.812 101.071 29.812C100.473 29.812 100.016 29.9193 99.6987 30.134C99.3907 30.3487 99.2367 30.6893 99.2367 31.156C99.2367 31.576 99.4 31.9027 99.7267 32.136C100.063 32.36 100.501 32.472 101.043 32.472C101.052 32.472 101.066 32.472 101.085 32.472C101.103 32.472 101.141 32.472 101.197 32.472C101.253 32.472 101.332 32.472 101.435 32.472C101.537 32.4627 101.682 32.4533 101.869 32.444V29.952Z" fill="#B0BEC5"/>
<path fill-rule="evenodd" clip-rule="evenodd" d="M30.9788 23.58C30.7412 23.9074 30.51 24.2809 30.4471 24.4076L29.9999 25.3009L29.5529 24.4075C29.4881 24.2773 29.2181 23.8278 29.0281 23.5885C26.5932 20.5759 21 21.9408 21 26.75C21 29.3586 22.7897 31.372 24.9538 33.2305C25.4786 33.6813 26.019 34.1177 26.549 34.5458C27.1016 34.9921 27.643 35.4294 28.1439 35.8645C28.8584 36.4854 29.5173 37.1246 30.0001 37.799C30.4831 37.1247 31.142 36.4856 31.8564 35.8648C32.357 35.43 32.898 34.993 33.4503 34.547C33.9806 34.1187 34.5213 33.682 35.0465 33.2308C37.2105 31.3723 39 29.3586 39 26.75C39 21.9495 33.4182 20.5761 30.9788 23.58ZM30.193 22.9614C33.1657 19.2794 40 20.9144 40 26.75C40 29.8468 37.8692 32.1247 35.698 33.9894C35.1579 34.4531 34.6083 34.897 34.0754 35.3274C33.5273 35.77 32.9968 36.1984 32.5124 36.6196C31.5491 37.4567 30.8172 38.2235 30.4501 38.9827L29.9998 39.914L29.5498 38.9826C29.1829 38.2232 28.4511 37.4563 27.4879 36.6193C27.0032 36.1978 26.4724 35.7691 25.9239 35.3262C25.3913 34.8961 24.8421 34.4525 24.3023 33.9891C22.131 32.1245 20 29.8468 20 26.75C20 20.9077 26.8368 19.2838 29.807 22.9614L29.8101 22.9652L29.8101 22.9653C29.8695 23.0408 29.9357 23.1334 30.0024 23.2319C30.0601 23.1467 30.1193 23.0618 30.1776 22.9815L30.185 22.9713L30.193 22.9614Z" fill="#B0BEC5"/>
</svg>
