<svg width="20" height="20" viewBox="0 0 20 20" fill="none" xmlns="http://www.w3.org/2000/svg">
<path fill-rule="evenodd" clip-rule="evenodd" d="M1.81364 4.00108C1.82805 4.00036 1.84256 4 1.85714 4H18.1429C18.1575 4 18.172 4.00037 18.1864 4.00109L10 10.5502L1.81364 4.00108ZM1.02499 4.65079C1.00866 4.71687 1 4.78599 1 4.85714V14.8095C1 15.2825 1.38414 15.6667 1.85714 15.6667H18.1429C18.6159 15.6667 19 15.2825 19 14.8095V4.85714C19 4.786 18.9913 4.7169 18.975 4.65083L10.3124 11.5809C10.1298 11.727 9.87029 11.727 9.68768 11.5809L1.02499 4.65079ZM1.85714 3C0.832075 3 0 3.83074 0 4.85714V14.8095C0 15.8348 0.831858 16.6667 1.85714 16.6667H18.1429C19.1681 16.6667 20 15.8348 20 14.8095V4.85714C20 3.83074 19.1679 3 18.1429 3H1.85714Z" fill="#B0BEC5"/>
</svg>
