<svg width="226" height="60" viewBox="0 0 226 60" fill="none" xmlns="http://www.w3.org/2000/svg">
<rect width="226" height="60" fill="#243238"/>
<path fill-rule="evenodd" clip-rule="evenodd" d="M136.757 27.0123C136.136 27.0123 135.677 27.1967 135.379 27.5669C135.08 27.9384 134.901 28.4338 134.84 29.0529H138.235C138.284 28.3967 138.183 27.8925 137.933 27.5395C137.685 27.1878 137.292 27.0123 136.757 27.0123ZM140.152 33.7004C139.786 33.9921 139.29 34.2385 138.663 34.4396C138.038 34.6393 137.371 34.7402 136.665 34.7402C135.193 34.7402 134.116 34.3119 133.435 33.4553C132.753 32.5981 132.412 31.4217 132.412 29.9281C132.412 28.3247 132.796 27.1208 133.563 26.3191C134.329 25.5168 135.406 25.1153 136.794 25.1153C137.255 25.1153 137.705 25.1772 138.144 25.2978C138.582 25.4198 138.971 25.6208 139.312 25.8991C139.653 26.18 139.927 26.5553 140.133 27.0289C140.341 27.5038 140.444 28.0936 140.444 28.797C140.444 29.053 140.428 29.3261 140.398 29.6185C140.367 29.9102 140.322 30.2134 140.261 30.53H134.785C134.822 31.2947 135.02 31.8723 135.379 32.261C135.737 32.6491 136.318 32.8451 137.121 32.8451C137.621 32.8451 138.068 32.7685 138.463 32.6166C138.859 32.464 139.16 32.3096 139.366 32.1519L140.152 33.7004ZM125.532 25.3719H126.791V23.6574L129.163 22.9834V25.3719H131.39V27.3755H129.163V30.8766C129.163 31.5072 129.227 31.9604 129.355 32.2336C129.483 32.5074 129.724 32.644 130.077 32.644C130.32 32.644 130.529 32.6191 130.706 32.5706C130.882 32.5221 131.08 32.4494 131.299 32.353L131.719 34.1747C131.39 34.3336 131.007 34.4677 130.569 34.5762C130.131 34.6847 129.687 34.7402 129.237 34.7402C128.397 34.7402 127.78 34.5245 127.384 34.0936C126.988 33.6615 126.791 32.9543 126.791 31.97V27.3755H125.532V25.3719ZM120.384 32.6798C120.859 32.6798 121.236 32.5745 121.516 32.3619C121.796 32.1494 122.003 31.9209 122.137 31.6783V30.493C121.76 30.456 121.397 30.4509 121.05 30.4745C120.703 30.4994 120.396 30.5536 120.129 30.6392C119.861 30.7234 119.648 30.846 119.489 31.0036C119.332 31.1613 119.252 31.3617 119.252 31.6043C119.252 31.9445 119.353 32.21 119.554 32.397C119.754 32.586 120.031 32.6798 120.384 32.6798ZM117.373 25.8991C117.86 25.6808 118.437 25.5079 119.107 25.3802C119.776 25.2532 120.475 25.1887 121.206 25.1887C121.838 25.1887 122.368 25.2653 122.793 25.416C123.22 25.5679 123.558 25.7849 123.806 26.0645C124.056 26.3428 124.232 26.6779 124.336 27.066C124.44 27.4553 124.492 27.8926 124.492 28.3789C124.492 28.9138 124.473 29.4506 124.436 29.9913C124.4 30.5326 124.378 31.0643 124.373 31.5864C124.366 32.1085 124.382 32.6166 124.417 33.1087C124.454 33.6008 124.546 34.0655 124.692 34.5021H122.757L122.373 33.2453H122.283C122.04 33.6219 121.702 33.9474 121.27 34.2206C120.837 34.4938 120.281 34.6304 119.599 34.6304C119.174 34.6304 118.79 34.5672 118.449 34.4396C118.109 34.3119 117.817 34.1294 117.573 33.8919C117.33 33.6557 117.142 33.3755 117.007 33.0538C116.873 32.7321 116.807 32.3696 116.807 31.97C116.807 31.4108 116.931 30.9391 117.181 30.5574C117.431 30.1738 117.79 29.8643 118.258 29.6268C118.726 29.3906 119.286 29.2266 119.937 29.1353C120.589 29.044 121.315 29.0166 122.118 29.053C122.204 28.3719 122.154 27.8836 121.973 27.5855C121.789 27.2881 121.382 27.1394 120.749 27.1394C120.275 27.1394 119.773 27.1879 119.243 27.2855C118.714 27.3819 118.279 27.5096 117.939 27.6679L117.373 25.8991ZM114.507 31.4217C114.507 31.8474 114.561 32.157 114.671 32.3529C114.781 32.547 114.957 32.644 115.2 32.644C115.346 32.644 115.489 32.6325 115.629 32.6076C115.769 32.5827 115.943 32.5291 116.15 32.4436L116.405 34.3017C116.21 34.3987 115.913 34.4976 115.511 34.5946C115.11 34.6917 114.695 34.7402 114.27 34.7402C113.576 34.7402 113.047 34.5787 112.682 34.2576C112.317 33.9346 112.134 33.4042 112.134 32.6625V21.7253H114.507V31.4217ZM106.275 27.1208C105.812 27.1208 105.451 27.237 105.189 27.4674C104.928 27.6985 104.724 28.0438 104.578 28.506V32.2974C104.748 32.4315 104.933 32.5374 105.134 32.6166C105.335 32.6951 105.599 32.7347 105.929 32.7347C106.61 32.7347 107.121 32.4947 107.461 32.0153C107.802 31.5353 107.973 30.7426 107.973 29.6357C107.973 28.8334 107.839 28.2143 107.571 27.777C107.304 27.3404 106.871 27.1208 106.275 27.1208ZM102.205 25.3719H103.938L104.213 26.4653H104.285C104.602 26.0025 104.976 25.663 105.408 25.4434C105.84 25.2257 106.366 25.1153 106.987 25.1153C108.131 25.1153 108.989 25.4778 109.56 26.2004C110.133 26.9223 110.419 28.0872 110.419 29.6906C110.419 30.4693 110.327 31.1702 110.145 31.7964C109.962 32.4225 109.692 32.9542 109.332 33.3908C108.974 33.8281 108.535 34.1625 108.018 34.3936C107.501 34.6247 106.908 34.7402 106.239 34.7402C105.862 34.7402 105.551 34.7121 105.308 34.6572C105.065 34.6036 104.821 34.5149 104.578 34.3936V38.1302H102.205V25.3719ZM92.6952 34.4855V29.5266C92.6952 28.6878 92.6159 28.0936 92.4574 27.7406C92.3002 27.3889 91.9716 27.2115 91.4718 27.2115C91.0583 27.2115 90.724 27.3244 90.4677 27.5491C90.2126 27.7732 90.0183 28.0617 89.8841 28.4147V34.4855H87.5121V25.3719H89.3549L89.6284 26.5738H89.7013C89.9812 26.1851 90.3379 25.8455 90.7694 25.5538C91.2021 25.2615 91.7588 25.1153 92.4402 25.1153C93.0237 25.1153 93.5012 25.2347 93.8725 25.4715C94.2433 25.7089 94.5328 26.1066 94.7393 26.6657C95.0192 26.1921 95.3784 25.8149 95.8163 25.5353C96.2541 25.2557 96.784 25.1153 97.404 25.1153C97.9153 25.1153 98.3506 25.1772 98.7092 25.2978C99.0684 25.4198 99.3605 25.6285 99.5855 25.9266C99.8105 26.2247 99.978 26.6223 100.087 27.1208C100.197 27.6181 100.252 28.2506 100.252 29.0166V34.4855H97.8789V29.3632C97.8789 28.6464 97.8028 28.1083 97.6507 27.7496C97.4992 27.3915 97.1611 27.2115 96.6376 27.2115C96.2119 27.2115 95.8744 27.327 95.6245 27.5581C95.3752 27.7891 95.1892 28.1057 95.0678 28.5059V34.4855H92.6952ZM82.1456 27.0123C81.5243 27.0123 81.0654 27.1967 80.7676 27.5669C80.4691 27.9384 80.2895 28.4338 80.2287 29.0529H83.6234C83.672 28.3967 83.5723 27.8925 83.3223 27.5395C83.0731 27.1878 82.6806 27.0123 82.1456 27.0123ZM85.5403 33.7004C85.1746 33.9921 84.6793 34.2385 84.0529 34.4396C83.4265 34.6393 82.7598 34.7402 82.0535 34.7402C80.5815 34.7402 79.5052 34.3119 78.8232 33.4553C78.1418 32.5981 77.8011 31.4217 77.8011 29.9281C77.8011 28.3247 78.1846 27.1208 78.951 26.3191C79.718 25.5168 80.7944 25.1153 82.182 25.1153C82.6441 25.1153 83.0948 25.1772 83.532 25.2978C83.9704 25.4198 84.3597 25.6208 84.7004 25.8991C85.0417 26.18 85.3153 26.5553 85.5217 27.0289C85.7288 27.5038 85.8324 28.0936 85.8324 28.797C85.8324 29.053 85.8164 29.3261 85.787 29.6185C85.7569 29.9102 85.7103 30.2134 85.6495 30.53H80.1737C80.2108 31.2947 80.4083 31.8723 80.7675 32.261C81.1261 32.6491 81.7071 32.8451 82.5099 32.8451C83.0091 32.8451 83.4559 32.7685 83.8522 32.6166C84.2478 32.464 84.5489 32.3096 84.7553 32.1519L85.5403 33.7004ZM78.3017 23.9498H74.5785V34.4856H72.078V23.9498H68.3356V21.7253H78.3017V23.9498Z" fill="white"/>
<path fill-rule="evenodd" clip-rule="evenodd" d="M205.621 27.5944C205.244 27.461 204.903 27.3939 204.599 27.3939C204.173 27.3939 203.818 27.5063 203.531 27.7316C203.245 27.9569 203.054 28.2448 202.956 28.5971V34.4854H200.583V25.3718H202.427L202.701 26.5731H202.774C202.981 26.1244 203.261 25.7778 203.614 25.5352C203.966 25.2927 204.38 25.1701 204.854 25.1701C205.17 25.1701 205.53 25.2378 205.931 25.3718L205.621 27.5944ZM195.217 27.0121C194.596 27.0121 194.137 27.1966 193.839 27.5668C193.541 27.9383 193.362 28.433 193.301 29.0528H196.696C196.745 28.3966 196.644 27.8924 196.394 27.5394C196.145 27.1877 195.753 27.0121 195.217 27.0121ZM198.613 33.7003C198.247 33.9913 197.751 34.2384 197.125 34.4394C196.498 34.6392 195.832 34.7401 195.125 34.7401C193.653 34.7401 192.576 34.3118 191.895 33.4552C191.213 32.5979 190.873 31.4216 190.873 29.9279C190.873 28.3245 191.256 27.1207 192.023 26.319C192.789 25.5167 193.866 25.1152 195.254 25.1152C195.716 25.1152 196.167 25.1771 196.604 25.2977C197.043 25.4196 197.432 25.6207 197.772 25.899C198.113 26.1799 198.387 26.5552 198.594 27.0288C198.801 27.5037 198.904 28.0935 198.904 28.7969C198.904 29.0528 198.889 29.326 198.858 29.6184C198.828 29.9101 198.783 30.2126 198.721 30.5299H193.246C193.282 31.2945 193.48 31.8722 193.839 32.2609C194.198 32.649 194.78 32.845 195.582 32.845C196.081 32.845 196.528 32.7684 196.923 32.6164C197.319 32.4639 197.62 32.3094 197.827 32.1518L198.613 33.7003ZM183.992 25.3718H185.251V23.6573L187.624 22.9833V25.3718H189.851V27.3754H187.624V30.8765C187.624 31.5071 187.688 31.9603 187.816 32.2335C187.944 32.5073 188.184 32.6439 188.537 32.6439C188.78 32.6439 188.99 32.619 189.166 32.5705C189.344 32.522 189.54 32.4492 189.76 32.3529L190.18 34.1746C189.851 34.3335 189.468 34.4675 189.03 34.576C188.591 34.6846 188.148 34.7401 187.697 34.7401C186.858 34.7401 186.24 34.5243 185.845 34.0935C185.449 33.6614 185.251 32.9535 185.251 31.9692V27.3754H183.992V25.3718ZM181.017 31.9692C181.017 31.7267 180.913 31.532 180.706 31.3864C180.5 31.2396 180.244 31.1069 179.94 30.9843C179.636 30.863 179.301 30.7399 178.936 30.6109C178.57 30.4833 178.237 30.3077 177.932 30.083C177.628 29.8577 177.372 29.573 177.165 29.2264C176.959 28.8799 176.855 28.433 176.855 27.886C176.855 26.9873 177.123 26.3005 177.658 25.8262C178.194 25.3526 178.966 25.1152 179.976 25.1152C180.67 25.1152 181.297 25.1886 181.857 25.3341C182.416 25.4796 182.855 25.6443 183.17 25.8262L182.641 27.5394C182.361 27.4303 182.009 27.3154 181.583 27.1928C181.157 27.0722 180.724 27.0122 180.287 27.0122C179.581 27.0122 179.228 27.2854 179.228 27.8311C179.228 28.0501 179.331 28.2256 179.539 28.3596C179.746 28.4937 180.001 28.6182 180.305 28.7337C180.609 28.8499 180.944 28.9743 181.308 29.1077C181.674 29.2405 182.009 29.4141 182.313 29.6267C182.617 29.8392 182.872 30.1156 183.079 30.4558C183.286 30.7973 183.39 31.2345 183.39 31.7682C183.39 32.6924 183.094 33.4182 182.504 33.9473C181.914 34.4745 181.028 34.7401 179.849 34.7401C179.204 34.7401 178.598 34.6571 178.033 34.4937C177.467 34.329 177.007 34.1388 176.654 33.9199L177.312 32.1518C177.591 32.3094 177.962 32.4639 178.425 32.6164C178.887 32.7684 179.362 32.845 179.849 32.845C180.201 32.845 180.485 32.7779 180.697 32.6439C180.91 32.5099 181.017 32.2858 181.017 31.9692ZM172.876 34.4854V29.3075C172.876 28.5671 172.769 28.0322 172.556 27.7035C172.343 27.3754 171.982 27.2113 171.471 27.2113C171.02 27.2113 170.64 27.3422 170.33 27.6039C170.02 27.865 169.798 28.1905 169.664 28.5792V34.4854H167.291V25.3718H169.171L169.445 26.573H169.518C169.798 26.185 170.168 25.8454 170.631 25.5537C171.094 25.2613 171.689 25.1152 172.42 25.1152C172.87 25.1152 173.271 25.1771 173.624 25.2977C173.978 25.4196 174.276 25.6207 174.519 25.899C174.762 26.1799 174.945 26.559 175.066 27.0384C175.188 27.5184 175.249 28.112 175.249 28.8154V34.4854H172.876ZM159.497 29.928C159.497 30.3282 159.533 30.6997 159.607 31.0399C159.679 31.3801 159.789 31.6775 159.935 31.9329C160.081 32.1882 160.273 32.3854 160.51 32.5246C160.747 32.665 161.031 32.7346 161.359 32.7346C161.98 32.7346 162.442 32.5099 162.746 32.0599C163.05 31.6112 163.202 30.8995 163.202 29.928C163.202 29.0899 163.062 28.412 162.782 27.8956C162.503 27.3792 162.028 27.1207 161.359 27.1207C160.775 27.1207 160.318 27.3403 159.989 27.7769C159.661 28.2141 159.497 28.9309 159.497 29.928ZM157.051 29.9279C157.051 28.3845 157.428 27.1967 158.183 26.365C158.937 25.5313 159.996 25.1152 161.359 25.1152C162.089 25.1152 162.721 25.2307 163.257 25.4618C163.792 25.6922 164.237 26.0184 164.589 26.4365C164.942 26.8571 165.207 27.3639 165.383 27.9594C165.56 28.5543 165.649 29.2099 165.649 29.9279C165.649 31.4701 165.273 32.6586 164.526 33.4903C163.778 34.3239 162.721 34.7401 161.359 34.7401C160.629 34.7401 159.996 34.6245 159.461 34.3935C158.925 34.1624 158.478 33.8369 158.118 33.4182C157.76 33.0001 157.492 32.492 157.316 31.8958C157.139 31.3016 157.051 30.6447 157.051 29.9279ZM152.854 27.8676L153.127 25.3342H153.018L152.232 27.3754L149.513 32.1333H148.71L145.844 27.3588L145.041 25.3342H144.95L145.315 27.849V34.4854H142.942V21.7252H145.224L148.637 27.558L149.238 29.0159H149.312L149.86 27.5216L153.091 21.7252H155.354V34.4854H152.854V27.8676Z" fill="white"/>
<path fill-rule="evenodd" clip-rule="evenodd" d="M39.5 33.2249C36.1981 33.2249 33.4982 30.6537 33.2895 27.4045C33.9756 27.5565 34.6709 27.6839 35.3745 27.7856C35.7425 29.7295 37.4491 31.1999 39.5 31.1999C39.9283 31.1999 40.3415 31.1354 40.7307 31.0163L40.577 28.2515L42.6918 29.7283C43.1579 29.1836 43.4868 28.5185 43.6256 27.7856C44.3291 27.6839 45.0245 27.5566 45.7106 27.4045C45.5019 30.6537 42.802 33.2249 39.5 33.2249ZM47.75 24.75H47.7495C47.6546 24.781 47.5594 24.8113 47.4641 24.8413C46.8225 25.0428 46.1707 25.2208 45.5091 25.3738C44.8526 25.5258 44.1867 25.6532 43.5125 25.7555C42.2039 25.9538 40.864 26.0568 39.5001 26.0568C38.1361 26.0568 36.7962 25.9538 35.4876 25.7555C34.8135 25.6532 34.1476 25.5258 33.4911 25.3738C32.8295 25.2208 32.1776 25.0428 31.536 24.8413C31.4407 24.8113 31.3455 24.781 31.2508 24.75H31.25C31.25 24.75 31.2501 26.9575 31.2501 27C31.2501 31.5563 34.9438 35.25 39.5001 35.25C44.0548 35.25 47.7474 31.5589 47.75 27.0047V24.75Z" fill="white"/>
<path fill-rule="evenodd" clip-rule="evenodd" d="M53.3675 37.1835L49.3065 34.3484L49.6292 40.1412C46.6769 41.9391 43.2095 42.975 39.5 42.975C35.7913 42.975 32.3244 41.9395 29.3725 40.1422L29.6952 34.3471L25.6325 37.1835C24.2342 35.7692 23.05 34.1427 22.1342 32.3558C22.3582 31.4595 22.6488 30.5898 23.0022 29.7528C23.3319 28.9719 23.716 28.2198 24.1487 27.5002C23.809 26.7297 23.5257 25.9288 23.3039 25.1028C22.9305 23.7124 22.7303 22.2513 22.7303 20.7432C22.7303 19.9392 22.7881 19.149 22.8975 18.3753L28.7054 22.431C29.2824 21.994 29.8867 21.5912 30.5154 21.2256C33.1562 19.6901 36.2252 18.81 39.5 18.81C42.7748 18.81 45.8438 19.6901 48.4846 21.2256C49.1133 21.5912 49.7176 21.994 50.2947 22.431L56.1025 18.3753C56.2118 19.149 56.2697 19.9392 56.2697 20.7432C56.2697 22.2513 56.0694 23.7124 55.6961 25.1027C55.4743 25.9288 55.191 26.7297 54.8513 27.5002C55.284 28.2198 55.6681 28.9719 55.9978 29.7528C56.3512 30.5898 56.6418 31.4595 56.8658 32.3558C55.95 34.1427 54.7658 35.7692 53.3675 37.1835ZM58.0642 29.4588C57.7818 28.7365 57.4581 28.0352 57.0967 27.3568C57.8704 25.2994 58.2948 23.071 58.2948 20.7431C58.2948 19.5107 58.1749 18.3065 57.9484 17.1403C57.9453 17.1244 57.9424 17.1085 57.9393 17.0926C57.7989 16.3798 57.6183 15.6814 57.3998 15L50.2957 19.9609C47.1849 17.9517 43.4789 16.7849 39.5001 16.7849C35.5212 16.7849 31.8152 17.9517 28.7043 19.9609L21.6003 15C21.3818 15.6814 21.2011 16.3798 21.0607 17.0926C21.0576 17.1085 21.0547 17.1245 21.0516 17.1404C20.8251 18.3066 20.7052 19.5107 20.7052 20.7431C20.7052 23.071 21.1296 25.2994 21.9033 27.3568C21.542 28.0352 21.2182 28.7365 20.9358 29.4588C20.5413 30.4684 20.2269 31.5181 20.0001 32.6C20.4738 33.6107 21.0227 34.5792 21.6417 35.4967C22.3293 36.5161 23.1023 37.4733 23.9498 38.3585C24.4263 38.8562 24.9265 39.331 25.4486 39.7813L27.4415 38.3896L27.2853 41.1995C27.9158 41.6348 28.5699 42.0385 29.2467 42.4058C32.2951 44.0602 35.7879 45 39.5001 45C43.2129 45 46.7063 44.0599 49.755 42.405C50.4318 42.0376 51.0859 41.6338 51.7164 41.1984L51.5604 38.3908L53.5515 39.7813C54.0735 39.331 54.5737 38.8562 55.0503 38.3585C55.8978 37.4734 56.6707 36.5162 57.3584 35.4967C57.9774 34.5792 58.5262 33.6107 59.0001 32.6C58.7731 31.5181 58.4588 30.4684 58.0642 29.4588Z" fill="white"/>
</svg>