<svg width="186" height="30" viewBox="0 0 186 30" fill="none" xmlns="http://www.w3.org/2000/svg">
<path fill-rule="evenodd" clip-rule="evenodd" d="M116.757 12.0125C116.136 12.0125 115.677 12.1969 115.379 12.5671C115.08 12.9386 114.901 13.4339 114.841 14.0531H118.235C118.284 13.3969 118.184 12.8927 117.934 12.5397C117.685 12.188 117.293 12.0125 116.757 12.0125ZM120.152 18.7006C119.786 18.9923 119.29 19.2387 118.663 19.4397C118.038 19.6395 117.371 19.7404 116.665 19.7404C115.193 19.7404 114.116 19.3121 113.435 18.4555C112.753 17.5982 112.412 16.4219 112.412 14.9282C112.412 13.3248 112.796 12.121 113.563 11.3193C114.329 10.517 115.406 10.1155 116.794 10.1155C117.255 10.1155 117.705 10.1774 118.144 10.298C118.582 10.4199 118.972 10.621 119.312 10.8993C119.653 11.1802 119.927 11.5555 120.134 12.0291C120.341 12.504 120.444 13.0938 120.444 13.7972C120.444 14.0531 120.428 14.3263 120.398 14.6187C120.367 14.9104 120.322 15.2136 120.261 15.5302H114.786C114.822 16.2948 115.02 16.8725 115.379 17.2612C115.737 17.6493 116.318 17.8453 117.121 17.8453C117.621 17.8453 118.068 17.7687 118.463 17.6168C118.859 17.4642 119.16 17.3097 119.367 17.1521L120.152 18.7006ZM105.532 10.3719H106.791V8.65744L109.163 7.9834V10.3719H111.39V12.3755H109.163V15.8766C109.163 16.5072 109.227 16.9604 109.355 17.2336C109.483 17.5074 109.724 17.644 110.077 17.644C110.32 17.644 110.529 17.6191 110.706 17.5706C110.882 17.5221 111.08 17.4494 111.299 17.353L111.719 19.1747C111.39 19.3336 111.007 19.4677 110.569 19.5762C110.131 19.6847 109.687 19.7402 109.237 19.7402C108.397 19.7402 107.78 19.5245 107.384 19.0936C106.988 18.6615 106.791 17.9543 106.791 16.97V12.3755H105.532V10.3719ZM100.384 17.6796C100.859 17.6796 101.236 17.5743 101.516 17.3618C101.796 17.1492 102.003 16.9207 102.137 16.6781V15.4928C101.76 15.4558 101.397 15.4507 101.05 15.4743C100.703 15.4992 100.396 15.5535 100.129 15.639C99.8608 15.7232 99.648 15.8458 99.4895 16.0035C99.3322 16.1611 99.2523 16.3615 99.2523 16.6041C99.2523 16.9443 99.3533 17.2098 99.554 17.3969C99.7541 17.5858 100.031 17.6796 100.384 17.6796ZM97.3732 10.8991C97.8596 10.6808 98.4374 10.5079 99.1066 10.3802C99.7758 10.2532 100.475 10.1887 101.206 10.1887C101.838 10.1887 102.368 10.2653 102.793 10.416C103.22 10.5679 103.558 10.7849 103.806 11.0645C104.056 11.3428 104.232 11.6779 104.336 12.066C104.44 12.4553 104.492 12.8926 104.492 13.3789C104.492 13.9138 104.473 14.4506 104.436 14.9913C104.4 15.5326 104.379 16.0643 104.373 16.5864C104.366 17.1085 104.382 17.6166 104.418 18.1087C104.454 18.6008 104.546 19.0655 104.692 19.5021H102.757L102.373 18.2453H102.283C102.04 18.6219 101.702 18.9474 101.27 19.2206C100.837 19.4938 100.281 19.6304 99.5994 19.6304C99.1737 19.6304 98.7902 19.5672 98.4495 19.4396C98.1089 19.3119 97.8168 19.1294 97.5732 18.8919C97.3303 18.6557 97.1418 18.3755 97.0076 18.0538C96.8733 17.7321 96.8075 17.3696 96.8075 16.97C96.8075 16.4108 96.9315 15.9391 97.1814 15.5574C97.4307 15.1738 97.7899 14.8643 98.2584 14.6268C98.7263 14.3906 99.2862 14.2266 99.9375 14.1353C100.589 14.044 101.315 14.0166 102.118 14.053C102.204 13.3719 102.154 12.8836 101.973 12.5855C101.789 12.2881 101.382 12.1394 100.749 12.1394C100.275 12.1394 99.7726 12.1879 99.2434 12.2855C98.7142 12.3819 98.2789 12.5096 97.9388 12.6679L97.3732 10.8991ZM94.5071 16.4215C94.5071 16.8472 94.5614 17.1568 94.6713 17.3528C94.7813 17.5468 94.9571 17.6438 95.1999 17.6438C95.3463 17.6438 95.4895 17.6323 95.6295 17.6074C95.7694 17.5825 95.9433 17.5289 96.1498 17.4434L96.4048 19.3015C96.2105 19.3985 95.9126 19.4974 95.5112 19.5945C95.1098 19.6915 94.695 19.74 94.2699 19.74C93.5758 19.74 93.0466 19.5785 92.6816 19.2574C92.3166 18.9345 92.1338 18.404 92.1338 17.6623V6.7251H94.5071V16.4215ZM86.2752 12.1208C85.8124 12.1208 85.4506 12.237 85.1892 12.4674C84.9278 12.6985 84.7239 13.0438 84.5782 13.506V17.2974C84.7482 17.4315 84.9335 17.5374 85.1342 17.6166C85.3349 17.6951 85.5996 17.7347 85.9287 17.7347C86.6101 17.7347 87.1208 17.4947 87.4608 17.0153C87.8022 16.5353 87.9728 15.7426 87.9728 14.6357C87.9728 13.8334 87.8386 13.2143 87.5714 12.777C87.3036 12.3404 86.8715 12.1208 86.2752 12.1208ZM82.2049 10.3721H83.9384L84.2126 11.4655H84.2854C84.6025 11.0027 84.9764 10.6631 85.4078 10.4436C85.8406 10.2259 86.366 10.1155 86.9872 10.1155C88.1307 10.1155 88.9891 10.478 89.5606 11.2006C90.1326 11.9225 90.419 13.0874 90.419 14.6908C90.419 15.4695 90.3269 16.1704 90.1448 16.7965C89.962 17.4227 89.6916 17.9544 89.3324 18.391C88.9738 18.8282 88.5353 19.1627 88.0182 19.3938C87.5011 19.6248 86.908 19.7404 86.2388 19.7404C85.8616 19.7404 85.551 19.7123 85.3081 19.6574C85.0646 19.6038 84.8211 19.5151 84.5782 19.3938V23.1304H82.2049V10.3721ZM72.6952 19.4857V14.5268C72.6952 13.688 72.616 13.0938 72.4575 12.7408C72.3002 12.3891 71.9717 12.2116 71.4719 12.2116C71.0583 12.2116 70.724 12.3246 70.4677 12.5493C70.2127 12.7734 70.0184 13.0619 69.8842 13.4148V19.4857H67.5122V10.3721H69.3549L69.6285 11.574H69.7014C69.9813 11.1853 70.338 10.8457 70.7694 10.554C71.2021 10.2616 71.7589 10.1155 72.4402 10.1155C73.0238 10.1155 73.5012 10.2348 73.8726 10.4716C74.2433 10.7091 74.5329 11.1068 74.7393 11.6659C75.0193 11.1923 75.3785 10.8151 75.8163 10.5355C76.2542 10.2559 76.7841 10.1155 77.4041 10.1155C77.9154 10.1155 78.3507 10.1774 78.7092 10.298C79.0685 10.4199 79.3606 10.6287 79.5856 10.9268C79.8105 11.2248 79.978 11.6225 80.0873 12.121C80.1972 12.6182 80.2516 13.2508 80.2516 14.0168V19.4857H77.879V14.3634C77.879 13.6465 77.8029 13.1085 77.6508 12.7497C77.4993 12.3916 77.1612 12.2116 76.6377 12.2116C76.212 12.2116 75.8745 12.3272 75.6246 12.5582C75.3753 12.7893 75.1893 13.1059 75.0679 13.5061V19.4857H72.6952ZM62.1456 12.0125C61.5243 12.0125 61.0654 12.1969 60.7675 12.5671C60.469 12.9386 60.2894 13.4339 60.2287 14.0531H63.6234C63.6719 13.3969 63.5722 12.8927 63.3223 12.5397C63.073 12.188 62.6806 12.0125 62.1456 12.0125ZM65.5403 18.7006C65.1747 18.9923 64.6793 19.2387 64.053 19.4397C63.4266 19.6395 62.7599 19.7404 62.0536 19.7404C60.5816 19.7404 59.5052 19.3121 58.8232 18.4555C58.1419 17.5982 57.8012 16.4219 57.8012 14.9282C57.8012 13.3248 58.1847 12.121 58.9511 11.3193C59.7181 10.517 60.7944 10.1155 62.1821 10.1155C62.6442 10.1155 63.0948 10.1774 63.532 10.298C63.9705 10.4199 64.3598 10.621 64.7004 10.8993C65.0418 11.1802 65.3153 11.5555 65.5218 12.0291C65.7289 12.504 65.8324 13.0938 65.8324 13.7972C65.8324 14.0531 65.8164 14.3263 65.787 14.6187C65.757 14.9104 65.7103 15.2136 65.6496 15.5302H60.1738C60.2109 16.2948 60.4084 16.8725 60.7676 17.2612C61.1262 17.6493 61.7072 17.8453 62.51 17.8453C63.0092 17.8453 63.456 17.7687 63.8523 17.6168C64.2479 17.4642 64.549 17.3097 64.7554 17.1521L65.5403 18.7006ZM58.3017 8.94957H54.5785V19.4853H52.078V8.94957H48.3356V6.7251H58.3017V8.94957Z" fill="white"/>
<path fill-rule="evenodd" clip-rule="evenodd" d="M185.621 12.5947C185.244 12.4613 184.903 12.3942 184.599 12.3942C184.173 12.3942 183.818 12.5066 183.531 12.7319C183.245 12.9572 183.054 13.2451 182.956 13.5974V19.4857H180.583V10.3721H182.427L182.701 11.5734H182.774C182.981 11.1247 183.261 10.7781 183.614 10.5355C183.966 10.293 184.38 10.1704 184.854 10.1704C185.17 10.1704 185.53 10.2381 185.931 10.3721L185.621 12.5947ZM175.217 12.0125C174.596 12.0125 174.137 12.1969 173.839 12.5671C173.541 12.9386 173.362 13.4333 173.301 14.0531H176.696C176.745 13.3969 176.644 12.8927 176.394 12.5397C176.145 12.188 175.753 12.0125 175.217 12.0125ZM178.613 18.7006C178.247 18.9916 177.751 19.2387 177.125 19.4397C176.498 19.6395 175.832 19.7404 175.126 19.7404C173.654 19.7404 172.577 19.3121 171.895 18.4555C171.213 17.5982 170.873 16.4219 170.873 14.9282C170.873 13.3248 171.256 12.121 172.023 11.3193C172.789 10.517 173.866 10.1155 175.254 10.1155C175.716 10.1155 176.167 10.1774 176.604 10.298C177.043 10.4199 177.432 10.621 177.772 10.8993C178.113 11.1802 178.387 11.5555 178.594 12.0291C178.801 12.504 178.904 13.0938 178.904 13.7972C178.904 14.0531 178.889 14.3263 178.858 14.6187C178.828 14.9104 178.783 15.2129 178.722 15.5302H173.246C173.282 16.2948 173.48 16.8725 173.839 17.2612C174.198 17.6493 174.78 17.8453 175.583 17.8453C176.081 17.8453 176.528 17.7687 176.924 17.6168C177.319 17.4642 177.62 17.3097 177.827 17.1521L178.613 18.7006ZM163.992 10.3719H165.251V8.65744L167.624 7.9834V10.3719H169.851V12.3755H167.624V15.8766C167.624 16.5072 167.688 16.9604 167.816 17.2336C167.944 17.5074 168.184 17.644 168.537 17.644C168.78 17.644 168.99 17.6191 169.166 17.5706C169.344 17.5221 169.54 17.4494 169.76 17.353L170.18 19.1747C169.851 19.3336 169.468 19.4677 169.03 19.5762C168.591 19.6847 168.148 19.7402 167.697 19.7402C166.858 19.7402 166.24 19.5245 165.845 19.0936C165.449 18.6615 165.251 17.9536 165.251 16.9694V12.3755H163.992V10.3719ZM161.017 16.9695C161.017 16.727 160.913 16.5323 160.706 16.3868C160.5 16.2399 160.244 16.1072 159.94 15.9846C159.636 15.8634 159.301 15.7402 158.936 15.6112C158.57 15.4836 158.237 15.308 157.932 15.0834C157.628 14.858 157.372 14.5734 157.165 14.2268C156.959 13.8802 156.855 13.4334 156.855 12.8863C156.855 11.9876 157.123 11.3008 157.658 10.8265C158.194 10.3529 158.966 10.1155 159.976 10.1155C160.67 10.1155 161.297 10.1889 161.857 10.3344C162.416 10.4799 162.855 10.6446 163.17 10.8265L162.641 12.5397C162.361 12.4306 162.009 12.3157 161.583 12.1931C161.157 12.0725 160.724 12.0125 160.287 12.0125C159.581 12.0125 159.228 12.2857 159.228 12.8314C159.228 13.0504 159.331 13.2259 159.539 13.3599C159.746 13.494 160.001 13.6185 160.305 13.734C160.609 13.8502 160.944 13.9746 161.308 14.108C161.674 14.2408 162.009 14.4144 162.313 14.627C162.617 14.8395 162.872 15.1159 163.079 15.4561C163.286 15.7976 163.39 16.2348 163.39 16.7685C163.39 17.6927 163.094 18.4185 162.504 18.9476C161.914 19.4748 161.028 19.7404 159.849 19.7404C159.204 19.7404 158.598 19.6574 158.033 19.494C157.467 19.3293 157.007 19.1391 156.654 18.9202L157.312 17.1521C157.591 17.3097 157.962 17.4642 158.425 17.6168C158.887 17.7687 159.362 17.8453 159.849 17.8453C160.201 17.8453 160.485 17.7782 160.697 17.6442C160.91 17.5102 161.017 17.2861 161.017 16.9695ZM152.876 19.4857V14.3078C152.876 13.5674 152.769 13.0325 152.556 12.7038C152.343 12.3757 151.982 12.2116 151.471 12.2116C151.02 12.2116 150.64 12.3425 150.33 12.6042C150.02 12.8653 149.798 13.1908 149.664 13.5795V19.4857H147.291V10.3721H149.171L149.445 11.5734H149.518C149.798 11.1853 150.168 10.8457 150.631 10.554C151.094 10.2616 151.689 10.1155 152.42 10.1155C152.87 10.1155 153.271 10.1774 153.624 10.298C153.978 10.4199 154.276 10.621 154.519 10.8993C154.762 11.1802 154.945 11.5593 155.066 12.0387C155.188 12.5187 155.249 13.1123 155.249 13.8157V19.4857H152.876ZM139.497 14.9281C139.497 15.3283 139.533 15.6998 139.607 16.04C139.68 16.3802 139.789 16.6777 139.935 16.933C140.082 17.1883 140.273 17.3855 140.51 17.5247C140.748 17.6651 141.031 17.7347 141.359 17.7347C141.98 17.7347 142.442 17.51 142.746 17.06C143.05 16.6113 143.202 15.8996 143.202 14.9281C143.202 14.09 143.062 13.4121 142.782 12.8957C142.503 12.3794 142.028 12.1208 141.359 12.1208C140.775 12.1208 140.318 12.3404 139.99 12.777C139.661 13.2143 139.497 13.9311 139.497 14.9281ZM137.051 14.9282C137.051 13.3848 137.428 12.197 138.183 11.3653C138.937 10.5316 139.996 10.1155 141.359 10.1155C142.089 10.1155 142.721 10.231 143.257 10.4621C143.793 10.6925 144.237 11.0187 144.59 11.4368C144.942 11.8574 145.207 12.3642 145.383 12.9597C145.56 13.5546 145.649 14.2102 145.649 14.9282C145.649 16.4704 145.273 17.6589 144.526 18.4906C143.778 19.3242 142.721 19.7404 141.359 19.7404C140.629 19.7404 139.996 19.6248 139.461 19.3938C138.925 19.1627 138.478 18.8372 138.119 18.4185C137.76 18.0004 137.492 17.4923 137.316 16.8961C137.139 16.3019 137.051 15.6451 137.051 14.9282ZM132.854 12.8674L133.127 10.334H133.018L132.232 12.3753L129.513 17.1332H128.71L125.844 12.3587L125.041 10.334H124.95L125.315 12.8489V19.4853H122.942V6.7251H125.224L128.637 12.5579L129.238 14.0157H129.312L129.86 12.5215L133.091 6.7251H135.354V19.4853H132.854V12.8674Z" fill="white"/>
<path fill-rule="evenodd" clip-rule="evenodd" d="M19.5001 18.2247C16.1982 18.2247 13.4983 15.6535 13.2896 12.4043C13.9757 12.5563 14.671 12.6837 15.3746 12.7854C15.7426 14.7293 17.4492 16.1997 19.5001 16.1997C19.9284 16.1997 20.3416 16.1352 20.7308 16.0161L20.5771 13.2513L22.6919 14.7281C23.158 14.1834 23.4869 13.5183 23.6257 12.7854C24.3292 12.6837 25.0246 12.5564 25.7107 12.4043C25.502 15.6535 22.8021 18.2247 19.5001 18.2247ZM27.75 9.75H27.7495C27.6546 9.78097 27.5594 9.81135 27.4641 9.84127C26.8225 10.0428 26.1707 10.2208 25.5091 10.3738C24.8526 10.5258 24.1867 10.6532 23.5125 10.7555C22.2039 10.9538 20.864 11.0568 19.5001 11.0568C18.1361 11.0568 16.7962 10.9538 15.4876 10.7555C14.8135 10.6532 14.1476 10.5258 13.4911 10.3738C12.8295 10.2208 12.1776 10.0428 11.536 9.84127C11.4407 9.81135 11.3455 9.78097 11.2508 9.75H11.25C11.25 9.75 11.2501 11.9575 11.2501 12C11.2501 16.5563 14.9438 20.25 19.5001 20.25C24.0548 20.25 27.7474 16.5589 27.75 12.0047V9.75Z" fill="white"/>
<path fill-rule="evenodd" clip-rule="evenodd" d="M33.3675 22.1835L29.3066 19.3484L29.6292 25.1412C26.677 26.9392 23.2095 27.9751 19.5001 27.9751C15.7913 27.9751 12.3245 26.9395 9.37253 25.1422L9.69525 19.3471L5.63258 22.1835C4.23428 20.7692 3.05003 19.1428 2.13428 17.3558C2.35823 16.4596 2.64885 15.5898 3.00225 14.7528C3.33195 13.972 3.71603 13.2199 4.1487 12.5002C3.80903 11.7297 3.52575 10.9288 3.3039 10.1028C2.93055 8.71244 2.7303 7.25129 2.7303 5.74319C2.7303 4.93927 2.78813 4.14907 2.89755 3.37537L8.7054 7.43099C9.28245 6.99404 9.88673 6.59122 10.5155 6.22567C13.1563 4.69012 16.2252 3.80999 19.5001 3.80999C22.7749 3.80999 25.8439 4.69012 28.4846 6.22567C29.1134 6.59122 29.7176 6.99404 30.2948 7.43099L36.1025 3.37537C36.2119 4.14907 36.2698 4.93927 36.2698 5.74319C36.2698 7.25129 36.0695 8.71244 35.6962 10.1027C35.4743 10.9288 35.1911 11.7297 34.8514 12.5002C35.284 13.2199 35.6681 13.972 35.9978 14.7529C36.3512 15.5898 36.6419 16.4596 36.8658 17.3558C35.9501 19.1428 34.7658 20.7692 33.3675 22.1835ZM38.0642 14.4588C37.7818 13.7366 37.4581 13.0352 37.0967 12.3568C37.8704 10.2994 38.2948 8.07098 38.2948 5.74312C38.2948 4.51073 38.1749 3.30652 37.9484 2.14035C37.9453 2.12445 37.9424 2.10855 37.9393 2.09265C37.7989 1.37978 37.6183 0.68145 37.3998 0L30.2957 4.96088C27.1849 2.9517 23.4789 1.78492 19.5001 1.78492C15.5212 1.78492 11.8152 2.9517 8.70434 4.96088L1.60026 0C1.38179 0.68145 1.20111 1.37978 1.06071 2.09265C1.05764 2.10855 1.05471 2.12453 1.05156 2.14042C0.825136 3.3066 0.705211 4.51073 0.705211 5.74312C0.705211 8.07098 1.12956 10.2994 1.90334 12.3568C1.54199 13.0352 1.21821 13.7366 0.935836 14.4588C0.541261 15.4684 0.226936 16.5181 6.10352e-05 17.6C0.473836 18.6107 1.02269 19.5792 1.64166 20.4967C2.32934 21.5161 3.10229 22.4733 3.94979 23.3585C4.42634 23.8562 4.92651 24.331 5.44859 24.7813L7.44149 23.3896L7.28526 26.1995C7.91579 26.6348 8.56986 27.0385 9.24666 27.4058C12.2951 29.0602 15.7879 30 19.5001 30C23.2129 30 26.7063 29.0599 29.755 27.405C30.4318 27.0376 31.0859 26.6338 31.7164 26.1984L31.5604 23.3909L33.5515 24.7813C34.0735 24.331 34.5737 23.8562 35.0503 23.3585C35.8978 22.4734 36.6707 21.5162 37.3584 20.4967C37.9774 19.5792 38.5262 18.6107 39.0001 17.6C38.7731 16.5181 38.4588 15.4684 38.0642 14.4588Z" fill="white"/>
</svg>
