<svg width="160" height="160" viewBox="0 0 160 160" fill="none" xmlns="http://www.w3.org/2000/svg">
<path fill-rule="evenodd" clip-rule="evenodd" d="M8 157.999C4.692 157.999 2 155.307 2 151.999V12.8732H158V151.999C158 155.307 155.308 157.999 152 157.999H8Z" fill="#FFC108"/>
<mask id="mask0" mask-type="alpha" maskUnits="userSpaceOnUse" x="0" y="0" width="160" height="160">
<path fill-rule="evenodd" clip-rule="evenodd" d="M0 0H160V160H0V0Z" fill="white"/>
</mask>
<g mask="url(#mask0)">
<path fill-rule="evenodd" clip-rule="evenodd" d="M160 10.8724H0V152C0 156.418 3.582 160 8 160H152C156.418 160 160 156.418 160 152V10.8724ZM156 14.8724V152C156 154.206 154.206 156 152 156H8C5.794 156 4 154.206 4 152V14.8724H156Z" fill="#1665C0"/>
</g>
<path fill-rule="evenodd" clip-rule="evenodd" d="M2 18.0382V7.99823C2 4.69023 4.692 1.99823 8 1.99823H152C155.308 1.99823 158 4.69023 158 7.99823V18.0382H2Z" fill="#ECEFF1"/>
<mask id="mask1" mask-type="alpha" maskUnits="userSpaceOnUse" x="0" y="0" width="160" height="160">
<path fill-rule="evenodd" clip-rule="evenodd" d="M0 0H160V160H0" fill="white"/>
</mask>
<g mask="url(#mask1)">
<path fill-rule="evenodd" clip-rule="evenodd" d="M152 0H8.00009C3.58209 0 9.15527e-05 3.582 9.15527e-05 8V20.038H160V8C160 3.582 156.418 0 152 0ZM152 4C154.206 4 156 5.794 156 8V16.038H4.00009V8C4.00009 5.794 5.79409 4 8.00009 4H152Z" fill="#1665C0"/>
</g>
<path fill-rule="evenodd" clip-rule="evenodd" d="M13.2947 10.2382C13.2947 11.6862 12.1207 12.8582 10.6747 12.8582C9.22669 12.8582 8.05469 11.6862 8.05469 10.2382C8.05469 8.79023 9.22669 7.61823 10.6747 7.61823C12.1207 7.61823 13.2947 8.79023 13.2947 10.2382Z" fill="#1665C0"/>
<path fill-rule="evenodd" clip-rule="evenodd" d="M21.8098 10.2382C21.8098 11.6862 20.6358 12.8582 19.1898 12.8582C17.7418 12.8582 16.5698 11.6862 16.5698 10.2382C16.5698 8.79023 17.7418 7.61823 19.1898 7.61823C20.6358 7.61823 21.8098 8.79023 21.8098 10.2382Z" fill="#1665C0"/>
<path fill-rule="evenodd" clip-rule="evenodd" d="M30.325 10.2382C30.325 11.6862 29.151 12.8582 27.705 12.8582C26.257 12.8582 25.085 11.6862 25.085 10.2382C25.085 8.79023 26.257 7.61823 27.705 7.61823C29.151 7.61823 30.325 8.79023 30.325 10.2382Z" fill="#1665C0"/>
<path fill-rule="evenodd" clip-rule="evenodd" d="M0 128.164L80 153.998L160 128.164V144.664L157.662 151.65L152.678 157.414L5.512 156.58L0 145.998V128.164Z" fill="#1665C0"/>
<path fill-rule="evenodd" clip-rule="evenodd" d="M48.4201 129.381L79.6641 83.9106L90.8261 29.8926C60.9941 23.7266 31.8121 42.9126 25.6461 72.7466C21.0161 95.1506 30.6841 117.183 48.4201 129.381Z" fill="#FFECB3"/>
<path fill-rule="evenodd" clip-rule="evenodd" d="M133.415 96.0988L79.6629 83.9108L48.4209 129.381C54.3029 133.427 61.0689 136.393 68.4989 137.929C97.9829 144.021 126.791 125.335 133.415 96.0988Z" fill="#FFE082"/>
<path fill-rule="evenodd" clip-rule="evenodd" d="M133.415 96.0988C133.493 95.7528 133.609 95.4228 133.681 95.0748C139.847 65.2408 120.661 36.0568 90.8271 29.8928L79.6631 83.9108L133.415 96.0988Z" fill="#FFF8E1"/>
<path fill-rule="evenodd" clip-rule="evenodd" d="M138.92 76.8708L125.776 50.6868L37.8796 111.563L22.2756 78.8668L3.99561 88.9748V95.8288L19.6056 87.2028L35.5016 120.507L123.512 59.5548L136.78 85.9808L155.994 71.5488V64.0468L138.92 76.8708Z" fill="#1976D2"/>
<path fill-rule="evenodd" clip-rule="evenodd" d="M26.1069 83.0348C26.1069 85.8888 23.7929 88.2028 20.9389 88.2028C18.0869 88.2028 15.7729 85.8888 15.7729 83.0348C15.7729 80.1808 18.0869 77.8668 20.9389 77.8668C23.7929 77.8668 26.1069 80.1808 26.1069 83.0348Z" fill="white"/>
<path fill-rule="evenodd" clip-rule="evenodd" d="M20.9399 80.8668C19.7439 80.8668 18.7739 81.8388 18.7739 83.0348C18.7739 84.2308 19.7439 85.2028 20.9399 85.2028C22.1359 85.2028 23.1059 84.2308 23.1059 83.0348C23.1059 81.8388 22.1359 80.8668 20.9399 80.8668ZM20.9399 91.2028C16.4379 91.2028 12.7739 87.5388 12.7739 83.0348C12.7739 78.5308 16.4379 74.8668 20.9399 74.8668C25.4419 74.8668 29.1059 78.5308 29.1059 83.0348C29.1059 87.5388 25.4419 91.2028 20.9399 91.2028Z" fill="#1976D2"/>
<path fill-rule="evenodd" clip-rule="evenodd" d="M41.8569 116.035C41.8569 118.889 39.5429 121.203 36.6889 121.203C33.8369 121.203 31.5229 118.889 31.5229 116.035C31.5229 113.181 33.8369 110.867 36.6889 110.867C39.5429 110.867 41.8569 113.181 41.8569 116.035Z" fill="white"/>
<path fill-rule="evenodd" clip-rule="evenodd" d="M36.6899 113.867C35.4939 113.867 34.5239 114.839 34.5239 116.035C34.5239 117.231 35.4939 118.203 36.6899 118.203C37.8859 118.203 38.8559 117.231 38.8559 116.035C38.8559 114.839 37.8859 113.867 36.6899 113.867ZM36.6899 124.203C32.1879 124.203 28.5239 120.539 28.5239 116.035C28.5239 111.531 32.1879 107.867 36.6899 107.867C41.1919 107.867 44.8559 111.531 44.8559 116.035C44.8559 120.539 41.1919 124.203 36.6899 124.203Z" fill="#1976D2"/>
<path fill-rule="evenodd" clip-rule="evenodd" d="M129.811 55.1218C129.811 57.9758 127.497 60.2898 124.643 60.2898C121.791 60.2898 119.477 57.9758 119.477 55.1218C119.477 52.2678 121.791 49.9538 124.643 49.9538C127.497 49.9538 129.811 52.2678 129.811 55.1218Z" fill="white"/>
<path fill-rule="evenodd" clip-rule="evenodd" d="M124.644 52.9548C123.448 52.9548 122.478 53.9248 122.478 55.1208C122.478 56.3168 123.448 57.2888 124.644 57.2888C125.84 57.2888 126.81 56.3168 126.81 55.1208C126.81 53.9248 125.84 52.9548 124.644 52.9548ZM124.644 63.2888C120.142 63.2888 116.478 59.6248 116.478 55.1208C116.478 50.6188 120.142 46.9548 124.644 46.9548C129.146 46.9548 132.81 50.6188 132.81 55.1208C132.81 59.6248 129.146 63.2888 124.644 63.2888Z" fill="#1976D2"/>
<path fill-rule="evenodd" clip-rule="evenodd" d="M141.954 81.4248C141.954 83.6928 140.116 85.5288 137.85 85.5288C135.582 85.5288 133.744 83.6928 133.744 81.4248C133.744 79.1568 135.582 77.3208 137.85 77.3208C140.116 77.3208 141.954 79.1568 141.954 81.4248Z" fill="white"/>
<path fill-rule="evenodd" clip-rule="evenodd" d="M137.849 80.32C137.239 80.32 136.743 80.816 136.743 81.426C136.743 82.034 137.239 82.528 137.849 82.528C138.459 82.528 138.953 82.034 138.953 81.426C138.953 80.816 138.459 80.32 137.849 80.32ZM137.849 88.528C133.931 88.528 130.743 85.342 130.743 81.426C130.743 77.508 133.931 74.32 137.849 74.32C141.765 74.32 144.953 77.508 144.953 81.426C144.953 85.342 141.765 88.528 137.849 88.528Z" fill="#1976D2"/>
<path fill-rule="evenodd" clip-rule="evenodd" d="M109.925 83.9102C109.925 67.1982 96.3768 53.6482 79.6628 53.6482C62.9508 53.6482 49.4028 67.1982 49.4028 83.9102C49.4028 100.622 62.9508 114.172 79.6628 114.172C96.3768 114.172 109.925 100.622 109.925 83.9102Z" fill="#E2F2FD"/>
<path fill-rule="evenodd" clip-rule="evenodd" d="M94.146 107.686L102.614 83.192C104.198 79.232 104.702 76.078 104.678 73.272C104.67 72.252 104.58 71.31 104.468 70.43C106.71 74.35 108.018 78.862 108.06 83.664C108.142 93.862 102.544 102.82 94.146 107.686ZM83.4641 70.914C85.1721 70.812 86.7121 70.622 86.7121 70.622C88.2381 70.43 88.0461 68.246 86.5081 68.344C86.5081 68.344 81.9161 68.736 78.9461 68.762C76.1581 68.786 71.4641 68.474 71.4641 68.474C69.9341 68.404 69.7721 70.682 71.3041 70.756C71.3041 70.756 72.7541 70.92 74.2841 70.994L78.8101 82.76L72.7541 100.96L62.1581 71.098C63.8681 70.998 65.4061 70.806 65.4061 70.806C66.9321 70.618 66.7361 68.432 65.2021 68.532C65.2021 68.532 60.6081 68.922 57.6401 68.948C57.1081 68.952 56.4801 68.942 55.8101 68.93C60.8201 61.378 69.5061 56.348 79.4221 56.262C86.8181 56.198 93.5661 58.892 98.6581 63.354C98.5341 63.348 98.4181 63.332 98.2941 63.334C95.5061 63.358 93.5461 65.738 93.5681 68.286C93.5881 70.562 94.9581 72.478 96.4121 74.746C97.5101 76.578 98.7901 78.938 98.8201 82.352C98.8401 84.714 97.9321 87.47 96.7401 91.308L93.9841 100.548L83.4641 70.914ZM79.9041 111.562C77.1161 111.586 74.4241 111.21 71.8721 110.504L80.1821 86.302L89.1141 109.504C89.1721 109.636 89.2481 109.754 89.3181 109.892C86.3761 110.954 83.2081 111.534 79.9041 111.562ZM51.27 84.156C51.236 80.148 52.084 76.334 53.632 72.882L67.49 108.902C57.98 104.506 51.366 95.1 51.27 84.156ZM79.3758 50.786C61.0838 50.946 46.3818 65.906 46.5398 84.198C46.6998 102.49 61.6598 117.192 79.9518 117.034C98.2398 116.874 112.946 101.91 112.786 83.622C112.628 65.338 97.6678 50.628 79.3758 50.786Z" fill="#1976D2"/>
</svg>
