<svg width="20" height="20" viewBox="0 0 20 20" fill="none" xmlns="http://www.w3.org/2000/svg">
<path fill-rule="evenodd" clip-rule="evenodd" d="M3 0C1.34315 0 0 1.34315 0 3V17C0 18.6569 1.34315 20 3 20H17C18.6569 20 20 18.6569 20 17V3C20 1.34315 18.6569 0 17 0H3ZM4 10.0004C4 6.68667 6.68667 4 10.0004 4L9.99963 4.00075C13.3126 4.00075 16 6.68742 16 10.0011C16 13.3148 13.3126 16.0015 9.99963 16.0015C9.38084 16.0015 8.78455 15.9077 8.22201 15.7337C8.46728 15.3355 8.83255 14.6822 8.96756 14.1609L9.34258 12.7343C9.53835 13.1078 10.1099 13.4243 10.7174 13.4243C12.5273 13.4243 13.8324 11.7592 13.8324 9.69136C13.8324 7.70898 12.2138 6.22614 10.1331 6.22614C7.54322 6.22614 6.16764 7.96325 6.16764 9.85637C6.16764 10.7369 6.63717 11.8327 7.38571 12.1815C7.50047 12.2348 7.56047 12.2108 7.58672 12.1013C7.59308 12.0751 7.6075 12.017 7.62568 11.9436C7.66541 11.7834 7.72311 11.5506 7.75398 11.421C7.76749 11.361 7.76074 11.3085 7.71123 11.2485C7.46372 10.9477 7.26645 10.3949 7.26645 9.87962C7.26645 8.55579 8.26702 7.27545 9.97412 7.27545C11.4487 7.27545 12.4808 8.27977 12.4808 9.71611C12.4808 11.3392 11.6602 12.4628 10.5952 12.4628C10.0064 12.4628 9.56385 11.9767 9.70636 11.379C9.76747 11.1218 9.84906 10.8573 9.92842 10.6001C10.0692 10.1438 10.2029 9.71034 10.2029 9.38084C10.2029 8.92031 9.95612 8.53553 9.44384 8.53553C8.8423 8.53553 8.35777 9.16032 8.35777 9.99287C8.35777 10.5239 8.53778 10.8839 8.53778 10.8839C8.53778 10.8839 7.94375 13.3981 7.83424 13.8669C7.71348 14.3851 7.76074 15.1134 7.81324 15.5882C5.5811 14.7144 4 12.543 4 10.0004Z" fill="#546E7A"/>
</svg>
