<svg width="30" height="30" viewBox="0 0 30 30" fill="none" xmlns="http://www.w3.org/2000/svg">
<path fill-rule="evenodd" clip-rule="evenodd" d="M0 3C0 1.34315 1.34315 0 3 0H27C28.6569 0 30 1.34315 30 3V27C30 28.6569 28.6569 30 27 30H3C1.34315 30 0 28.6569 0 27V3Z" fill="#DDE3E6"/>
<path fill-rule="evenodd" clip-rule="evenodd" d="M10.7617 7.28417L23.7258 20.2475L20.19 23.7833L7.22667 10.8192L10.7617 7.28417ZM10.1725 6.695L8.47833 5L5 8.53583L6.6375 10.2308L10.1725 6.695ZM20.8567 24.2942L25 25L24.235 20.9158L20.8567 24.2942ZM17.0508 11.2158L17.375 10.8925L17.9642 11.4817L18.5533 10.8925L17.9642 10.3033L18.5533 9.71417L19.1425 10.3033L19.7325 9.71333L19.1433 9.125L20.9108 7.3575L22.6783 9.125L18.8192 12.9842L19.98 14.145L25 9.125L20.91 5L15.8725 10.0375L17.0508 11.2158ZM12.9267 18.8767L9.125 22.6775L7.3575 20.91L7.94667 20.32L8.53583 20.9092L9.125 20.32L8.53583 19.7308L9.125 19.1417L9.71417 19.7308L10.3033 19.1417L9.71417 18.5525L10.3033 17.9633L10.8925 18.5525L11.4817 17.9633L10.8925 17.375L11.1583 17.1092L9.97917 15.93L5 20.91L9.125 25L14.0875 20.0375L12.9267 18.8767ZM21.205 9.41917C21.3675 9.25667 21.3675 8.9925 21.205 8.83C21.0425 8.6675 20.7783 8.6675 20.6158 8.83C20.4533 8.9925 20.4533 9.25667 20.6158 9.41917C20.7783 9.58167 21.0425 9.5825 21.205 9.41917Z" fill="#546E7A"/>
</svg>
