<svg width="157" height="40" viewBox="0 0 157 40" fill="none" xmlns="http://www.w3.org/2000/svg">
<rect width="157" height="40" rx="3" fill="url(#paint0_linear)"/>
<path d="M51.19 13.298C51.5447 13.214 51.9273 13.158 52.338 13.13C52.7487 13.102 53.1547 13.088 53.556 13.088C53.9853 13.088 54.4193 13.13 54.858 13.214C55.306 13.298 55.712 13.452 56.076 13.676C56.44 13.9 56.734 14.208 56.958 14.6C57.1913 14.992 57.308 15.4913 57.308 16.098C57.308 16.6953 57.2007 17.1993 56.986 17.61C56.7713 18.0207 56.4867 18.3567 56.132 18.618C55.7773 18.87 55.3713 19.052 54.914 19.164C54.4567 19.276 53.9853 19.332 53.5 19.332C53.4533 19.332 53.374 19.332 53.262 19.332C53.1593 19.332 53.0473 19.332 52.926 19.332C52.814 19.3227 52.702 19.3133 52.59 19.304C52.478 19.2947 52.3987 19.2853 52.352 19.276V23H51.19V13.298ZM53.584 14.096C53.3413 14.096 53.108 14.1007 52.884 14.11C52.66 14.1193 52.4827 14.1427 52.352 14.18V18.24C52.3987 18.2587 52.4733 18.2727 52.576 18.282C52.6787 18.282 52.786 18.2867 52.898 18.296C53.01 18.296 53.1173 18.296 53.22 18.296C53.3227 18.296 53.3973 18.296 53.444 18.296C53.7613 18.296 54.074 18.268 54.382 18.212C54.6993 18.1467 54.984 18.0347 55.236 17.876C55.488 17.7173 55.6887 17.4933 55.838 17.204C55.9967 16.9147 56.076 16.546 56.076 16.098C56.076 15.7153 56.0013 15.398 55.852 15.146C55.712 14.8847 55.5207 14.6793 55.278 14.53C55.0447 14.3713 54.7787 14.2593 54.48 14.194C54.1813 14.1287 53.8827 14.096 53.584 14.096ZM58.0005 19.5C58.0005 18.3147 58.2618 17.4093 58.7845 16.784C59.3165 16.1493 60.0771 15.832 61.0665 15.832C61.5891 15.832 62.0418 15.9207 62.4245 16.098C62.8165 16.266 63.1385 16.5133 63.3905 16.84C63.6425 17.1573 63.8291 17.5447 63.9505 18.002C64.0718 18.45 64.1325 18.9493 64.1325 19.5C64.1325 20.6853 63.8665 21.5953 63.3345 22.23C62.8118 22.8553 62.0558 23.168 61.0665 23.168C60.5438 23.168 60.0865 23.084 59.6945 22.916C59.3118 22.7387 58.9945 22.4913 58.7425 22.174C58.4905 21.8473 58.3038 21.46 58.1825 21.012C58.0611 20.5547 58.0005 20.0507 58.0005 19.5ZM59.1625 19.5C59.1625 19.8547 59.1951 20.1953 59.2605 20.522C59.3351 20.8487 59.4471 21.1333 59.5965 21.376C59.7458 21.6187 59.9418 21.8147 60.1845 21.964C60.4271 22.1133 60.7211 22.188 61.0665 22.188C62.3358 22.1973 62.9705 21.3013 62.9705 19.5C62.9705 19.136 62.9331 18.7907 62.8585 18.464C62.7931 18.1373 62.6858 17.8527 62.5365 17.61C62.3871 17.3673 62.1911 17.176 61.9485 17.036C61.7058 16.8867 61.4118 16.812 61.0665 16.812C59.7971 16.8027 59.1625 17.6987 59.1625 19.5ZM66.5703 19.878V18.968H67.5503C67.7183 18.968 67.8816 18.94 68.0403 18.884C68.2083 18.828 68.3576 18.7533 68.4883 18.66C68.619 18.5573 68.7216 18.4407 68.7963 18.31C68.8803 18.17 68.9223 18.0253 68.9223 17.876C68.9223 17.512 68.7963 17.2553 68.5443 17.106C68.2923 16.9567 67.9143 16.882 67.4103 16.882C67.0463 16.882 66.7103 16.938 66.4023 17.05C66.1036 17.162 65.8703 17.2693 65.7023 17.372L65.3803 16.504C65.6603 16.3453 65.987 16.2053 66.3603 16.084C66.743 15.9627 67.1956 15.902 67.7183 15.902C69.2676 15.902 70.0423 16.476 70.0423 17.624C70.0423 17.9507 69.935 18.2727 69.7203 18.59C69.515 18.898 69.2163 19.1173 68.8243 19.248V19.304C69.375 19.4067 69.7576 19.6027 69.9723 19.892C70.1963 20.1813 70.3083 20.564 70.3083 21.04C70.3083 21.3387 70.2476 21.614 70.1263 21.866C70.005 22.118 69.823 22.3373 69.5803 22.524C69.3376 22.7107 69.0296 22.86 68.6563 22.972C68.2923 23.0747 67.8676 23.126 67.3823 23.126C66.9063 23.126 66.5096 23.084 66.1923 23C65.8843 22.916 65.6043 22.8133 65.3523 22.692L65.6743 21.768C65.889 21.8893 66.1456 21.9827 66.4443 22.048C66.7523 22.1133 67.0836 22.146 67.4383 22.146C68.0076 22.146 68.4416 22.048 68.7403 21.852C69.039 21.656 69.1883 21.3573 69.1883 20.956C69.1883 20.62 69.0483 20.3587 68.7683 20.172C68.4883 19.976 68.0263 19.878 67.3823 19.878H66.5703ZM76.292 16.98H73.198V23H72.078V16H77.412V23H76.292V16.98ZM79.1782 19.5C79.1782 18.3147 79.4395 17.4093 79.9622 16.784C80.4942 16.1493 81.2549 15.832 82.2442 15.832C82.7669 15.832 83.2195 15.9207 83.6022 16.098C83.9942 16.266 84.3162 16.5133 84.5682 16.84C84.8202 17.1573 85.0069 17.5447 85.1282 18.002C85.2495 18.45 85.3102 18.9493 85.3102 19.5C85.3102 20.6853 85.0442 21.5953 84.5122 22.23C83.9895 22.8553 83.2335 23.168 82.2442 23.168C81.7215 23.168 81.2642 23.084 80.8722 22.916C80.4895 22.7387 80.1722 22.4913 79.9202 22.174C79.6682 21.8473 79.4815 21.46 79.3602 21.012C79.2389 20.5547 79.1782 20.0507 79.1782 19.5ZM80.3402 19.5C80.3402 19.8547 80.3729 20.1953 80.4382 20.522C80.5129 20.8487 80.6249 21.1333 80.7742 21.376C80.9235 21.6187 81.1195 21.8147 81.3622 21.964C81.6049 22.1133 81.8989 22.188 82.2442 22.188C83.5135 22.1973 84.1482 21.3013 84.1482 19.5C84.1482 19.136 84.1109 18.7907 84.0362 18.464C83.9709 18.1373 83.8635 17.8527 83.7142 17.61C83.5649 17.3673 83.3689 17.176 83.1262 17.036C82.8835 16.8867 82.5895 16.812 82.2442 16.812C80.9749 16.8027 80.3402 17.6987 80.3402 19.5ZM87.804 16V17.904C87.804 18.156 87.818 18.3847 87.846 18.59C87.874 18.786 87.93 18.9587 88.014 19.108C88.098 19.248 88.2194 19.36 88.378 19.444C88.5367 19.5187 88.7467 19.556 89.008 19.556C89.428 19.556 89.7734 19.5093 90.044 19.416C90.3147 19.3227 90.52 19.22 90.66 19.108V16H91.78V23H90.66V20.06C90.5107 20.1533 90.2867 20.256 89.988 20.368C89.6987 20.48 89.2974 20.536 88.784 20.536C88.4387 20.536 88.1354 20.4987 87.874 20.424C87.6127 20.3493 87.3934 20.2187 87.216 20.032C87.0387 19.8453 86.9034 19.598 86.81 19.29C86.726 18.982 86.684 18.5947 86.684 18.128V16H87.804ZM93.8273 16.518C94.182 16.3033 94.5927 16.1447 95.0593 16.042C95.5353 15.9393 96.03 15.888 96.5433 15.888C97.0287 15.888 97.416 15.9533 97.7053 16.084C98.004 16.2147 98.228 16.3873 98.3773 16.602C98.536 16.8073 98.6387 17.036 98.6853 17.288C98.7413 17.54 98.7693 17.792 98.7693 18.044C98.7693 18.604 98.7553 19.15 98.7273 19.682C98.6993 20.214 98.6853 20.718 98.6853 21.194C98.6853 21.5393 98.6993 21.866 98.7273 22.174C98.7553 22.482 98.8067 22.7667 98.8813 23.028H98.0553L97.7613 22.048H97.6913C97.6073 22.1787 97.5 22.3093 97.3693 22.44C97.248 22.5613 97.0987 22.6733 96.9213 22.776C96.744 22.8693 96.5387 22.9487 96.3053 23.014C96.072 23.0793 95.806 23.112 95.5073 23.112C95.2087 23.112 94.9287 23.0653 94.6673 22.972C94.4153 22.8787 94.196 22.748 94.0093 22.58C93.8227 22.4027 93.6733 22.1927 93.5613 21.95C93.4587 21.7073 93.4073 21.432 93.4073 21.124C93.4073 20.7133 93.4913 20.3727 93.6593 20.102C93.8273 19.822 94.0607 19.6027 94.3593 19.444C94.6673 19.276 95.0313 19.1593 95.4513 19.094C95.8807 19.0193 96.352 18.982 96.8653 18.982C96.996 18.982 97.122 18.982 97.2433 18.982C97.374 18.982 97.5047 18.9913 97.6353 19.01C97.6633 18.73 97.6773 18.478 97.6773 18.254C97.6773 17.7407 97.5747 17.3813 97.3693 17.176C97.164 16.9707 96.7907 16.868 96.2493 16.868C96.0907 16.868 95.918 16.882 95.7313 16.91C95.554 16.9287 95.3673 16.9613 95.1713 17.008C94.9847 17.0453 94.8027 17.0967 94.6253 17.162C94.4573 17.218 94.308 17.2833 94.1773 17.358L93.8273 16.518ZM95.8153 22.132C96.0767 22.132 96.31 22.0993 96.5153 22.034C96.7207 21.9593 96.898 21.8707 97.0473 21.768C97.1967 21.656 97.318 21.5347 97.4113 21.404C97.514 21.2733 97.5887 21.1473 97.6353 21.026V19.864C97.5047 19.8547 97.3693 19.85 97.2293 19.85C97.0987 19.8407 96.968 19.836 96.8373 19.836C96.548 19.836 96.2633 19.8547 95.9833 19.892C95.7127 19.92 95.47 19.9807 95.2553 20.074C95.05 20.158 94.882 20.2793 94.7513 20.438C94.63 20.5873 94.5693 20.7787 94.5693 21.012C94.5693 21.3387 94.686 21.6093 94.9193 21.824C95.1527 22.0293 95.4513 22.132 95.8153 22.132ZM105.337 16.98H103.153V23H102.033V16.98H99.8486V16H105.337V16.98ZM110.817 18.856L110.859 17.988H110.817L110.243 18.884L107.093 23H106.449V16H107.569V20.27L107.527 21.096H107.583L108.129 20.228L111.279 16H111.937V23H110.817V18.856ZM118.552 16V17.904C118.552 18.156 118.566 18.3847 118.594 18.59C118.622 18.786 118.678 18.9587 118.762 19.108C118.846 19.248 118.967 19.36 119.126 19.444C119.285 19.5187 119.495 19.556 119.756 19.556C120.176 19.556 120.521 19.5093 120.792 19.416C121.063 19.3227 121.268 19.22 121.408 19.108V16H122.528V23H121.408V20.06C121.259 20.1533 121.035 20.256 120.736 20.368C120.447 20.48 120.045 20.536 119.532 20.536C119.187 20.536 118.883 20.4987 118.622 20.424C118.361 20.3493 118.141 20.2187 117.964 20.032C117.787 19.8453 117.651 19.598 117.558 19.29C117.474 18.982 117.432 18.5947 117.432 18.128V16H118.552ZM124.575 16.518C124.93 16.3033 125.341 16.1447 125.807 16.042C126.283 15.9393 126.778 15.888 127.291 15.888C127.777 15.888 128.164 15.9533 128.453 16.084C128.752 16.2147 128.976 16.3873 129.125 16.602C129.284 16.8073 129.387 17.036 129.433 17.288C129.489 17.54 129.517 17.792 129.517 18.044C129.517 18.604 129.503 19.15 129.475 19.682C129.447 20.214 129.433 20.718 129.433 21.194C129.433 21.5393 129.447 21.866 129.475 22.174C129.503 22.482 129.555 22.7667 129.629 23.028H128.803L128.509 22.048H128.439C128.355 22.1787 128.248 22.3093 128.117 22.44C127.996 22.5613 127.847 22.6733 127.669 22.776C127.492 22.8693 127.287 22.9487 127.053 23.014C126.82 23.0793 126.554 23.112 126.255 23.112C125.957 23.112 125.677 23.0653 125.415 22.972C125.163 22.8787 124.944 22.748 124.757 22.58C124.571 22.4027 124.421 22.1927 124.309 21.95C124.207 21.7073 124.155 21.432 124.155 21.124C124.155 20.7133 124.239 20.3727 124.407 20.102C124.575 19.822 124.809 19.6027 125.107 19.444C125.415 19.276 125.779 19.1593 126.199 19.094C126.629 19.0193 127.1 18.982 127.613 18.982C127.744 18.982 127.87 18.982 127.991 18.982C128.122 18.982 128.253 18.9913 128.383 19.01C128.411 18.73 128.425 18.478 128.425 18.254C128.425 17.7407 128.323 17.3813 128.117 17.176C127.912 16.9707 127.539 16.868 126.997 16.868C126.839 16.868 126.666 16.882 126.479 16.91C126.302 16.9287 126.115 16.9613 125.919 17.008C125.733 17.0453 125.551 17.0967 125.373 17.162C125.205 17.218 125.056 17.2833 124.925 17.358L124.575 16.518ZM126.563 22.132C126.825 22.132 127.058 22.0993 127.263 22.034C127.469 21.9593 127.646 21.8707 127.795 21.768C127.945 21.656 128.066 21.5347 128.159 21.404C128.262 21.2733 128.337 21.1473 128.383 21.026V19.864C128.253 19.8547 128.117 19.85 127.977 19.85C127.847 19.8407 127.716 19.836 127.585 19.836C127.296 19.836 127.011 19.8547 126.731 19.892C126.461 19.92 126.218 19.9807 126.003 20.074C125.798 20.158 125.63 20.2793 125.499 20.438C125.378 20.5873 125.317 20.7787 125.317 21.012C125.317 21.3387 125.434 21.6093 125.667 21.824C125.901 22.0293 126.199 22.132 126.563 22.132ZM136.085 16.98H133.901V23H132.781V16.98H130.597V16H136.085V16.98Z" fill="white"/>
<path fill-rule="evenodd" clip-rule="evenodd" d="M30 12C24.929 12 21 15.3368 21 19.2512C21 21.2413 22.0006 23.0663 23.6623 24.3955C23.8466 24.5429 23.9027 24.799 23.797 25.0099L22.3017 27.9949L26.4607 26.0592C26.5726 26.0071 26.6997 25.9982 26.8177 26.0343C27.8192 26.3415 28.867 26.5038 30 26.5023C35.071 26.5023 39 23.1648 39 19.2512C39 15.3368 35.071 12 30 12ZM20 19.2512C20 14.604 24.5764 11 30 11C35.4236 11 40 14.604 40 19.2512C40 23.8975 35.4236 27.5023 30 27.5023C28.8598 27.501 27.7335 27.3369 26.7115 27.0454L21.4231 29.5068C21.2302 29.5966 21.0017 29.5545 20.8535 29.4019C20.7053 29.2494 20.6698 29.0197 20.765 28.8296L22.7258 24.9156C21.0505 23.4513 20 21.4622 20 19.2512Z" fill="white"/>
<defs>
<linearGradient id="paint0_linear" x1="157" y1="40" x2="157" y2="0" gradientUnits="userSpaceOnUse">
<stop stop-color="#D84315"/>
<stop offset="1" stop-color="#F4511E"/>
</linearGradient>
</defs>
</svg>
