<svg width="20" height="20" viewBox="0 0 20 20" fill="none" xmlns="http://www.w3.org/2000/svg">
<path fill-rule="evenodd" clip-rule="evenodd" d="M10 1C5.02884 1 1 5.02884 1 10C1 14.9712 5.02884 19 10 19C14.9712 19 19 14.9712 19 10C19 5.02884 14.9712 1 10 1ZM0 10C0 4.47655 4.47655 0 10 0C15.5234 0 20 4.47655 20 10C20 15.5234 15.5234 20 10 20C4.47655 20 0 15.5234 0 10Z" fill="white"/>
<path fill-rule="evenodd" clip-rule="evenodd" d="M6.71132 4.32369C6.87894 4.10424 7.19273 4.06222 7.41217 4.22985L14.4463 9.60272C14.5702 9.69734 14.6428 9.84433 14.6428 10.0002C14.6428 10.1561 14.57 10.303 14.4461 10.3976L7.41194 15.7638C7.19239 15.9313 6.87863 15.8891 6.71114 15.6696C6.54365 15.45 6.58585 15.1363 6.8054 14.9688L13.3188 9.99982L6.80516 5.02454C6.58572 4.85692 6.5437 4.54314 6.71132 4.32369Z" fill="white"/>
</svg>
