<svg width="20" height="20" viewBox="0 0 20 20" fill="none" xmlns="http://www.w3.org/2000/svg">
<path fill-rule="evenodd" clip-rule="evenodd" d="M10 1C7.08251 1 4.71741 3.3651 4.71741 6.28261H3.71741C3.71741 2.81281 6.53022 0 10 0C13.4689 0 16.2826 2.81277 16.2826 6.28261H15.2826C15.2826 3.36515 12.9167 1 10 1Z" fill="#FF8A65"/>
<path fill-rule="evenodd" clip-rule="evenodd" d="M2.15217 9.26074C1.51549 9.26074 1 9.77623 1 10.4129C1 11.0496 1.51549 11.5651 2.15217 11.5651C2.42832 11.5651 2.65217 11.7889 2.65217 12.0651C2.65217 12.3412 2.42832 12.5651 2.15217 12.5651C0.963206 12.5651 0 11.6019 0 10.4129C0 9.22395 0.963206 8.26074 2.15217 8.26074C2.42832 8.26074 2.65217 8.4846 2.65217 8.76074C2.65217 9.03688 2.42832 9.26074 2.15217 9.26074Z" fill="#FF8A65"/>
<path fill-rule="evenodd" clip-rule="evenodd" d="M17.3478 8.76074C17.3478 8.4846 17.5716 8.26074 17.8478 8.26074C19.0367 8.26074 20 9.22395 20 10.4129C20 11.6019 19.0367 12.5651 17.8478 12.5651C17.5716 12.5651 17.3478 12.3412 17.3478 12.0651C17.3478 11.7889 17.5716 11.5651 17.8478 11.5651C18.4845 11.5651 19 11.0496 19 10.4129C19 9.77623 18.4845 9.26074 17.8478 9.26074C17.5716 9.26074 17.3478 9.03688 17.3478 8.76074Z" fill="#FF8A65"/>
<path fill-rule="evenodd" clip-rule="evenodd" d="M3.8044 6.78247C3.16771 6.78247 2.65222 7.29796 2.65222 7.93464V12.8912C2.65222 13.5278 3.16771 14.0433 3.8044 14.0433H4.95657V6.78247H3.8044ZM1.65222 7.93464C1.65222 6.74568 2.61543 5.78247 3.8044 5.78247H5.45657C5.73271 5.78247 5.95657 6.00633 5.95657 6.28247V14.5433C5.95657 14.8195 5.73271 15.0433 5.45657 15.0433H3.8044C2.61543 15.0433 1.65222 14.0801 1.65222 12.8912V7.93464ZM17.1087 14.8408C17.841 14.4974 18.3479 13.7537 18.3479 12.8912V7.93464C18.3479 6.74568 17.3847 5.78247 16.1957 5.78247H14.5435C14.2674 5.78247 14.0435 6.00633 14.0435 6.28247V14.5433C14.0435 14.8195 14.2674 15.0433 14.5435 15.0433H16.1087V15.3697C16.1087 16.0191 15.8524 16.4944 15.4492 16.818C15.0341 17.1512 14.4298 17.3479 13.7174 17.3479H12.0653C11.7891 17.3479 11.5653 17.5718 11.5653 17.8479C11.5653 18.1241 11.7891 18.3479 12.0653 18.3479H13.7174C14.6027 18.3479 15.4441 18.1044 16.0752 17.5979C16.7182 17.0817 17.1087 16.3179 17.1087 15.3697V14.8408ZM16.4642 14.0119C16.378 14.0325 16.2882 14.0433 16.1957 14.0433H15.0435V6.78247H16.1957C16.8324 6.78247 17.3479 7.29796 17.3479 7.93464V12.8912C17.3479 13.4212 16.9906 13.8672 16.5037 14.0018C16.4903 14.0046 16.4771 14.008 16.4642 14.0119Z" fill="white"/>
<path fill-rule="evenodd" clip-rule="evenodd" d="M10.826 17.1086C10.4182 17.1086 10.0869 17.4399 10.0869 17.8478C10.0869 18.2556 10.4182 18.5869 10.826 18.5869C11.2339 18.5869 11.5652 18.2556 11.5652 17.8478C11.5652 17.4399 11.2339 17.1086 10.826 17.1086ZM9.08691 17.8478C9.08691 16.8876 9.8659 16.1086 10.826 16.1086C11.7862 16.1086 12.5652 16.8876 12.5652 17.8478C12.5652 18.8079 11.7862 19.5869 10.826 19.5869C9.8659 19.5869 9.08691 18.8079 9.08691 17.8478Z" fill="white"/>
</svg>
