<svg width="88" height="141" viewBox="0 0 88 141" fill="none" xmlns="http://www.w3.org/2000/svg">
<path fill-rule="evenodd" clip-rule="evenodd" d="M20.888 44.4836C18.1992 44.4836 16.004 42.3272 15.9444 39.6543L14.105 31.6997C14.0892 31.6299 14.0808 31.5601 14.0808 31.4893C14.0808 14.8337 21.8064 7.13413 42.5866 3.08191C51.7046 1.30337 58.3963 0.931091 62.4039 0.931091C66.1517 0.931091 68.0684 1.24566 68.1485 1.25962C68.3981 1.30151 68.6197 1.44297 68.7622 1.65238C71.8217 6.12061 73.31 15.8807 73.3128 31.4893C73.3128 31.5601 73.3044 31.6299 73.2886 31.6997L71.4492 39.6543C71.3896 42.3272 69.1944 44.4836 66.5056 44.4836H20.888Z" fill="#455A64"/>
<path fill-rule="evenodd" clip-rule="evenodd" d="M62.4027 0C58.3551 0 51.6 0.375998 42.4085 2.1685C21.0797 6.32682 13.1492 14.274 13.1492 31.4898C13.1492 31.6304 13.166 31.7709 13.1967 31.9087L15.0166 39.7739C15.1386 42.9047 17.7259 45.4139 20.8878 45.4139H66.5063C69.6682 45.4139 72.2546 42.9047 72.3766 39.7739L74.1964 31.9087C74.2281 31.7709 74.2439 31.6304 74.2439 31.4889C74.2411 15.6868 72.6997 5.75538 69.5313 1.12613C69.2454 0.709185 68.8021 0.425325 68.3028 0.341563C68.22 0.327602 66.2278 0 62.4027 0ZM62.4028 1.86139C66.1161 1.86139 67.9937 2.17689 67.9937 2.17689C71.0988 6.71307 72.3794 17.0716 72.3813 31.4899L70.5186 39.5422C70.5186 41.7572 68.722 43.5525 66.5063 43.5525H20.8879C18.6712 43.5525 16.8747 41.7572 16.8747 39.5422L15.012 31.4899C15.012 15.6588 21.9421 8.05512 42.7653 3.99546C51.6317 2.26624 58.1959 1.86139 62.4028 1.86139Z" fill="#0D47A1"/>
<path fill-rule="evenodd" clip-rule="evenodd" d="M42.4314 7.52639C59.1221 4.27177 67.6598 5.70875 67.6598 5.70875C70.6075 10.015 71.9086 19.5788 72.0352 32.8756L72.3556 31.4898C72.3528 17.0715 71.0722 6.71297 67.968 2.17679C67.968 2.17679 59.4304 0.740737 42.7396 3.99536C22.8926 7.86516 15.6727 14.9589 15.0376 29.3213C16.6898 17.2977 24.2821 11.0649 42.4314 7.52639Z" fill="#546E7A"/>
<path fill-rule="evenodd" clip-rule="evenodd" d="M75.7532 43.8512C75.7532 46.7884 73.3708 49.1691 70.4315 49.1691C67.4921 49.1691 65.1097 46.7884 65.1097 43.8512C65.1097 40.9139 67.4921 38.5332 70.4315 38.5332C73.3708 38.5332 75.7532 40.9139 75.7532 43.8512Z" fill="#FCF5DF"/>
<path fill-rule="evenodd" clip-rule="evenodd" d="M75.7532 43.8512C75.7532 46.7884 73.3708 49.1691 70.4315 49.1691C67.4921 49.1691 65.1097 46.7884 65.1097 43.8512C65.1097 40.9139 67.4921 38.5332 70.4315 38.5332C73.3708 38.5332 75.7532 40.9139 75.7532 43.8512V43.8512Z" stroke="#0D47A1" stroke-width="1.96122" stroke-linejoin="round"/>
<path fill-rule="evenodd" clip-rule="evenodd" d="M22.1387 43.8512C22.1387 46.7884 19.7563 49.1691 16.817 49.1691C13.8776 49.1691 11.4952 46.7884 11.4952 43.8512C11.4952 40.9139 13.8776 38.5332 16.817 38.5332C19.7563 38.5332 22.1387 40.9139 22.1387 43.8512Z" fill="#FCF5DF"/>
<path fill-rule="evenodd" clip-rule="evenodd" d="M22.1387 43.8512C22.1387 46.7884 19.7563 49.1691 16.817 49.1691C13.8776 49.1691 11.4952 46.7884 11.4952 43.8512C11.4952 40.9139 13.8776 38.5332 16.817 38.5332C19.7563 38.5332 22.1387 40.9139 22.1387 43.8512V43.8512Z" stroke="#0D47A1" stroke-width="1.96122" stroke-linejoin="round"/>
<path d="M14.0331 44.2331C14.0331 42.4536 15.4767 41.012 17.2565 41.012" stroke="#0D47A1" stroke-width="1.96122" stroke-linecap="round" stroke-linejoin="round"/>
<path d="M73.1954 44.2331C73.1954 42.4536 71.7518 41.012 69.972 41.012" stroke="#0D47A1" stroke-width="1.96122" stroke-linecap="round" stroke-linejoin="round"/>
<path fill-rule="evenodd" clip-rule="evenodd" d="M38.908 99.6451C37.6274 99.6451 36.5843 98.6036 36.5843 97.3239V91.6272C36.5843 90.8799 35.977 90.273 35.2301 90.273H33.0871C31.8065 90.273 30.7643 89.2316 30.7643 87.9519V82.5288C30.7643 81.2491 31.8065 80.2076 33.0871 80.2076H36.045C36.9457 80.2076 37.6777 79.4752 37.6777 78.5752V73.8371C37.6777 72.5574 38.7199 71.515 40.0014 71.515H46.966C48.2476 71.515 49.2898 72.5574 49.2898 73.8371V78.5752C49.2898 79.4752 50.0227 80.2076 50.9224 80.2076H55.8455C57.1271 80.2076 58.1683 81.2491 58.1683 82.5288V87.9519C58.1683 89.2316 57.1271 90.273 55.8455 90.273H54.6823C51.2847 90.273 48.5205 93.0344 48.5205 96.4305V97.3239C48.541 97.3751 48.7133 97.5762 48.7952 97.6729C49.0187 97.9345 49.4341 98.4231 49.1501 99.0364C49.0448 99.2635 48.7635 99.6451 48.0595 99.6451H38.908Z" fill="#FFF8E1"/>
<path fill-rule="evenodd" clip-rule="evenodd" d="M46.9668 70.5842H40.0012C38.2065 70.5842 36.7471 72.0435 36.7471 73.836V78.576C36.7471 78.9622 36.4314 79.2768 36.0449 79.2768H33.0878C31.2931 79.2768 29.8337 80.7361 29.8337 82.5296V87.9517C29.8337 89.7452 31.2931 91.2036 33.0878 91.2036H35.2309C35.46 91.2036 35.6537 91.3972 35.6537 91.6261V97.3238C35.6537 99.1172 37.114 100.576 38.9078 100.576H48.0602C49.3278 100.576 49.8363 99.7724 49.9955 99.4262C50.5292 98.2731 49.7581 97.3675 49.5047 97.0697C49.4889 97.0511 49.4703 97.0297 49.4516 97.0073V96.4303C49.4516 93.548 51.7977 91.2036 54.6821 91.2036H55.8454C57.6401 91.2036 59.1004 89.7452 59.1004 87.9517V82.5296C59.1004 80.7361 57.6401 79.2768 55.8454 79.2768H50.9232C50.5367 79.2768 50.2209 78.9622 50.2209 78.576V73.836C50.2209 72.0435 48.7615 70.5842 46.9668 70.5842ZM46.9665 72.4455C47.7348 72.4455 48.3579 73.0682 48.3579 73.836V78.576C48.3579 79.9915 49.5063 81.1382 50.9228 81.1382H55.845C56.6143 81.1382 57.2374 81.7608 57.2374 82.5295V87.9517C57.2374 88.7195 56.6143 89.3422 55.845 89.3422H54.6818C50.7803 89.3422 47.5886 92.5316 47.5886 96.4303V97.3238C47.5886 98.0916 48.8282 98.7142 48.0599 98.7142H38.9075C38.1391 98.7142 37.5161 98.0916 37.5161 97.3238V91.6261C37.5161 90.3706 36.4878 89.3422 35.2305 89.3422H33.0875C32.3191 89.3422 31.696 88.7195 31.696 87.9517V82.5295C31.696 81.7608 32.3191 81.1382 33.0875 81.1382H36.0445C37.4611 81.1382 38.6095 79.9915 38.6095 78.576V73.836C38.6095 73.0682 39.2325 72.4455 40.0009 72.4455H46.9665Z" fill="#0D47A1"/>
<path fill-rule="evenodd" clip-rule="evenodd" d="M38.6109 78.6076C38.6109 78.6076 42.8672 79.7942 48.3593 78.6076V76.5712H38.6109V78.6076Z" fill="#FFECB3"/>
<path fill-rule="evenodd" clip-rule="evenodd" d="M18.6829 140V99.5169L17.7534 83.9549C17.7515 81.8673 19.4056 80.2144 21.4387 80.2144H35.7368V81.1451C35.7368 84.5012 40.3666 88.0955 43.6244 88.0955C46.8823 88.0955 51.5111 84.5012 51.5111 81.1451V80.2144H65.8092C67.8423 80.2144 69.4973 81.8673 69.4973 83.8999L68.5641 99.5727L68.566 140H18.6829Z" fill="#76D48F"/>
<path fill-rule="evenodd" clip-rule="evenodd" d="M65.8093 79.2837H52.4426H50.5799V81.1451C50.5799 83.7333 46.6142 87.1657 43.6246 87.1657C40.634 87.1657 36.6683 83.7333 36.6683 81.1451V79.2837H34.8056H21.4389C18.8926 79.2837 16.8203 81.3545 16.8203 83.899V83.9548L16.8231 84.0097L17.7517 99.5718V138.139V140H19.6144H67.6339H69.4966V138.139V99.5718L70.4251 84.0097L70.4279 83.9548V83.899C70.4279 81.3545 68.3566 79.2837 65.8093 79.2837ZM65.8093 81.1451C67.3321 81.1451 68.5652 82.3782 68.5652 83.899L67.6339 99.5169V140H19.6144V99.5169L18.683 83.899C18.683 82.3782 19.9171 81.1451 21.4389 81.1451H34.8056C34.8056 84.9842 39.7828 89.0271 43.6246 89.0271C47.4655 89.0271 52.4426 84.9842 52.4426 81.1451H65.8093Z" fill="#0D47A1"/>
<path fill-rule="evenodd" clip-rule="evenodd" d="M27.043 99.2141H60.1769C61.3994 99.2141 62.3904 100.855 62.3904 102.879V105.974C62.3904 106.926 62.1665 107.843 61.765 108.527L45.2103 136.763C44.3365 138.254 42.8901 138.244 42.0228 136.744L25.4435 108.046C25.0496 107.364 24.8295 106.457 24.8295 105.514V102.879C24.8295 100.855 25.8205 99.2141 27.043 99.2141Z" fill="#48C569"/>
<path d="M43.6243 87.1567L43.543 140" stroke="#0D47A1" stroke-width="1.96122"/>
<path d="M51.3789 93.3444H61.2288" stroke="#0D47A1" stroke-width="1.96122" stroke-linecap="round"/>
<path fill-rule="evenodd" clip-rule="evenodd" d="M43.6244 76.3733C29.4064 76.3733 17.3939 63.7997 17.3939 48.918V27.8788C17.3939 25.7205 19.1504 23.9653 21.3093 23.9653C21.3763 23.9653 21.4443 23.9727 21.5095 23.9876C21.6082 24.009 31.4917 26.1561 44.4505 26.1561C52.0615 26.1561 59.2245 25.4265 65.7393 23.9876C65.8045 23.9727 65.8725 23.9653 65.9396 23.9653C68.1348 23.9653 69.855 25.6843 69.855 27.8788V48.918C69.855 63.7997 57.8424 76.3733 43.6244 76.3733Z" fill="#FFF8E1"/>
<path fill-rule="evenodd" clip-rule="evenodd" d="M65.9396 23.0353C65.8045 23.0353 65.6695 23.0502 65.5372 23.079C59.0886 24.5039 51.9936 25.2252 44.4506 25.2252C31.5784 25.2252 21.8076 23.1004 21.7107 23.079C21.5785 23.0502 21.4443 23.0353 21.3093 23.0353C18.6363 23.0353 16.4626 25.2075 16.4626 27.8777V48.9177C16.4626 64.3048 28.9007 77.3037 43.6244 77.3037C58.3472 77.3037 70.7863 64.3048 70.7863 48.9177V27.8777C70.7863 25.1628 68.6573 23.0353 65.9396 23.0353ZM65.9395 24.8967C67.6494 24.8967 68.9235 26.2313 68.9235 27.8777V48.9177C68.9235 63.5063 57.0265 75.4424 43.6243 75.4424C30.2222 75.4424 18.3251 63.5063 18.3251 48.9177V27.8777C18.3251 26.2313 19.6607 24.8967 21.3092 24.8967C21.3092 24.8967 31.2262 27.0866 44.4504 27.0866C51.0621 27.0866 58.5017 26.5393 65.9395 24.8967Z" fill="#0D47A1"/>
<path fill-rule="evenodd" clip-rule="evenodd" d="M65.9396 24.8967C43.6244 29.8247 21.3093 24.8967 21.3093 24.8967C19.6608 24.8967 18.3252 26.2313 18.3252 27.8777V30.5999C18.3252 28.9535 19.1169 26.3346 21.3093 26.6882C21.3093 26.6882 43.6244 31.6162 65.9396 26.6882C67.7799 26.2182 68.9227 28.9535 68.9227 30.5999V27.8777C68.9227 26.2313 67.6495 24.8967 65.9396 24.8967Z" fill="#FFECB3"/>
<path fill-rule="evenodd" clip-rule="evenodd" d="M43.6247 72.7206C30.2225 72.7206 18.3255 60.7845 18.3255 46.1959V48.9182C18.3255 63.5067 30.2225 75.4428 43.6247 75.4428C57.0268 75.4428 68.9229 63.5067 68.9229 48.9182V46.1959C68.9229 60.7845 57.0268 72.7206 43.6247 72.7206Z" fill="#FFECB3"/>
<path fill-rule="evenodd" clip-rule="evenodd" d="M55.5611 61.6902C55.5611 61.6902 51.5914 65.1015 43.6099 65.1015C35.3356 65.1015 31.6587 61.6902 31.6587 61.6902H55.5611Z" fill="white"/>
<path fill-rule="evenodd" clip-rule="evenodd" d="M55.5215 61.9404C55.5215 61.9404 52.6935 61.9404 44.7482 61.9404C36.5113 61.9404 31.7274 61.9404 31.7274 61.9404H55.5215Z" stroke="#0D47A1" stroke-width="1.96122" stroke-linecap="round" stroke-linejoin="round"/>
<path fill-rule="evenodd" clip-rule="evenodd" d="M30.7696 45.6352C28.3919 45.6352 26.4565 43.7021 26.4565 41.3252C26.4565 38.9482 28.3919 37.0151 30.7696 37.0151C33.1474 37.0151 35.0827 38.9482 35.0827 41.3252C35.0827 43.7021 33.1474 45.6352 30.7696 45.6352Z" fill="white"/>
<path fill-rule="evenodd" clip-rule="evenodd" d="M30.7694 36.0848C27.8776 36.0848 25.525 38.4358 25.525 41.3255C25.525 44.2153 27.8776 46.5653 30.7694 46.5653C33.6612 46.5653 36.0138 44.2153 36.0138 41.3255C36.0138 38.4358 33.6612 36.0848 30.7694 36.0848ZM30.7694 37.9462C32.6368 37.9462 34.1512 39.4586 34.1512 41.3256C34.1512 43.1916 32.6368 44.704 30.7694 44.704C28.9021 44.704 27.3877 43.1916 27.3877 41.3256C27.3877 39.4586 28.9021 37.9462 30.7694 37.9462Z" fill="#0D47A1"/>
<path fill-rule="evenodd" clip-rule="evenodd" d="M30.7693 39.9634C30.7693 39.8061 30.8019 39.6572 30.8559 39.5194C30.8261 39.5176 30.7991 39.5101 30.7693 39.5101C29.7662 39.5101 28.9532 40.3226 28.9532 41.325C28.9532 42.3273 29.7662 43.1398 30.7693 43.1398C31.7724 43.1398 32.5854 42.3273 32.5854 41.325C32.5854 41.2282 32.5714 41.1342 32.5565 41.0411C32.387 41.1305 32.197 41.1854 31.9922 41.1854C31.3169 41.1854 30.7693 40.6381 30.7693 39.9634Z" fill="#0D47A1"/>
<path fill-rule="evenodd" clip-rule="evenodd" d="M56.2528 45.6352C53.8751 45.6352 51.9398 43.7021 51.9398 41.3252C51.9398 38.9482 53.8751 37.0151 56.2528 37.0151C58.6306 37.0151 60.5659 38.9482 60.5659 41.3252C60.5659 43.7021 58.6306 45.6352 56.2528 45.6352Z" fill="white"/>
<path fill-rule="evenodd" clip-rule="evenodd" d="M56.2528 36.0848C53.361 36.0848 51.0084 38.4358 51.0084 41.3255C51.0084 44.2153 53.361 46.5653 56.2528 46.5653C59.1447 46.5653 61.4973 44.2153 61.4973 41.3255C61.4973 38.4358 59.1447 36.0848 56.2528 36.0848ZM56.2527 37.9462C58.12 37.9462 59.6344 39.4586 59.6344 41.3256C59.6344 43.1916 58.12 44.704 56.2527 44.704C54.3853 44.704 52.8709 43.1916 52.8709 41.3256C52.8709 39.4586 54.3853 37.9462 56.2527 37.9462Z" fill="#0D47A1"/>
<path fill-rule="evenodd" clip-rule="evenodd" d="M56.2527 39.9634C56.2527 39.8061 56.2853 39.6572 56.3393 39.5194C56.3095 39.5176 56.2825 39.5101 56.2527 39.5101C55.2497 39.5101 54.4366 40.3226 54.4366 41.325C54.4366 42.3273 55.2497 43.1398 56.2527 43.1398C57.2558 43.1398 58.0688 42.3273 58.0688 41.325C58.0688 41.2282 58.0549 41.1342 58.04 41.0411C57.8705 41.1305 57.6805 41.1854 57.4756 41.1854C56.8004 41.1854 56.2527 40.6381 56.2527 39.9634Z" fill="#0D47A1"/>
<path fill-rule="evenodd" clip-rule="evenodd" d="M26.5854 52.4719C26.5854 49.006 23.7736 46.1962 20.3053 46.1962C19.6124 46.1962 18.9483 46.3116 18.3252 46.5192V48.9176C18.3252 52.3853 19.0042 55.6995 20.2093 58.7428C20.241 58.7438 20.2727 58.7475 20.3053 58.7475C23.7736 58.7475 26.5854 55.9377 26.5854 52.4719Z" fill="#FFCCBC"/>
<path fill-rule="evenodd" clip-rule="evenodd" d="M68.9231 46.519C68.3 46.3124 67.636 46.196 66.9431 46.196C63.4747 46.196 60.663 49.0058 60.663 52.4717C60.663 55.9376 63.4747 58.7482 66.9431 58.7482C66.9757 58.7482 67.0073 58.7436 67.0399 58.7427C68.2442 55.7002 68.9231 52.3851 68.9231 48.9174V46.519Z" fill="#FFCCBC"/>
<path fill-rule="evenodd" clip-rule="evenodd" d="M30.1176 122.133C28.2288 122.133 26.5319 121.067 25.8967 119.479C25.2718 117.919 25.4664 116.167 26.4304 114.673C27.6579 112.77 30.6391 110.434 37.8692 110.11C38.2147 110.094 38.5612 110.088 38.9086 110.088C42.7336 110.088 46.7329 111.016 52.2669 112.303L54.6475 112.853C60.6537 114.233 62.5947 114.583 66.4216 114.583C66.9403 114.583 67.4926 114.576 68.0924 114.564C73.2121 114.468 76.9896 112.888 79.3208 109.868C82.2145 106.12 82.329 101.344 81.4713 98.1226C80.0044 92.6166 74.0317 86.8947 68.1558 85.3675C66.6321 84.9701 65.8674 81.8178 65.9792 80.943C66.0677 80.2524 66.5687 79.9425 67.0251 79.9425L67.1387 79.949C75.4063 80.8602 84.2402 88.5793 86.4288 96.8047C87.9255 102.423 86.7576 108.629 83.3824 113.001C80.9916 116.098 76.4252 119.79 68.2536 119.79L67.5541 119.793C65.8181 119.793 60.5327 119.793 53.4507 117.977C47.517 116.455 43.0941 115.513 39.3854 115.513C38.9803 115.513 38.5817 115.524 38.1896 115.546C35.6237 115.693 34.7576 117.607 33.9938 119.295C33.8364 119.642 33.6902 119.963 33.544 120.237C32.9088 121.424 31.6273 122.133 30.1176 122.133Z" fill="#A8E4BB"/>
<path fill-rule="evenodd" clip-rule="evenodd" d="M67.0248 79.0123H67.0239C66.0013 79.0133 65.1919 79.7587 65.055 80.8262C64.9153 81.9217 65.7349 85.6993 67.9217 86.268C73.5079 87.7208 79.1817 93.1458 80.5704 98.3623C81.3713 101.368 81.2698 105.82 78.5829 109.299C76.4324 112.084 72.8979 113.543 68.0754 113.634C67.4802 113.645 66.9335 113.652 66.4194 113.652C62.6894 113.652 60.7801 113.306 54.8558 111.946C54.025 111.755 53.2306 111.571 52.4669 111.393C46.8769 110.095 42.8376 109.155 38.9083 109.155C38.5469 109.155 38.1865 109.164 37.827 109.18C30.2002 109.521 26.9944 112.082 25.6468 114.169C24.518 115.919 24.2935 117.98 25.0321 119.825C25.8079 121.763 27.8513 123.064 30.1173 123.064C31.9762 123.064 33.5642 122.171 34.3652 120.676C34.5319 120.364 34.6827 120.031 34.8429 119.677C35.6867 117.813 36.3797 116.582 38.2424 116.475C38.614 116.454 38.9996 116.444 39.3879 116.444C42.9978 116.444 47.3566 117.375 53.2194 118.878C58.0624 120.12 62.7499 120.724 67.5492 120.724C67.8099 120.724 68.0502 120.722 68.2691 120.72C76.804 120.721 81.6014 116.831 84.1207 113.568C87.6691 108.973 88.8985 102.457 87.3292 96.5651C85.0511 88.0056 75.8512 79.9728 67.2409 79.0244L67.1384 79.0133L67.0248 79.0123ZM67.0244 80.8737C67.0281 80.8737 67.0318 80.8737 67.0356 80.8746C74.8403 81.7346 83.4376 89.1876 85.5285 97.0435C86.9516 102.388 85.847 108.284 82.645 112.432C80.4125 115.322 76.1535 118.86 68.2538 118.86C68.0396 118.861 67.8039 118.863 67.5487 118.863C64.9028 118.863 60.0449 118.707 53.6819 117.076C47.5545 115.505 43.1753 114.582 39.3875 114.582C38.9628 114.582 38.5474 114.593 38.1358 114.617C34.4094 114.83 33.5805 118.194 32.7228 119.797C32.2087 120.757 31.1851 121.202 30.1169 121.202C28.7422 121.202 27.2939 120.465 26.7612 119.133C25.5896 116.207 27.6627 111.499 37.9104 111.039C38.242 111.024 38.5744 111.017 38.9079 111.017C43.1353 111.017 47.5713 112.183 54.4381 113.76C60.4742 115.146 62.4766 115.513 66.419 115.513C66.9443 115.513 67.5022 115.507 68.1103 115.494C73.324 115.397 77.4881 113.764 80.0577 110.436C83.1582 106.42 83.2848 101.319 82.3702 97.883C80.7674 91.8614 74.4212 86.0344 68.3907 84.4662C67.4416 84.2195 66.5559 80.8737 67.0244 80.8737Z" fill="#0D47A1"/>
<path fill-rule="evenodd" clip-rule="evenodd" d="M30.1171 122.133C28.2283 122.133 26.5314 121.067 25.8962 119.479C25.2722 117.918 25.4659 116.166 26.4308 114.672C27.6583 112.77 30.6396 110.434 37.8687 110.11C38.2143 110.094 38.5598 110.088 38.9072 110.088C39.9903 110.088 41.1182 110.161 42.355 110.313C42.6168 110.344 42.8533 110.486 43.0042 110.703C43.156 110.919 43.2082 111.189 43.1486 111.446C42.9111 112.473 42.7192 113.571 42.5609 114.801C42.5003 115.27 42.1017 115.614 41.6379 115.614C41.6118 115.614 41.5848 115.613 41.5587 115.61C40.7922 115.546 40.0555 115.513 39.3673 115.513C38.9677 115.513 38.5756 115.524 38.1891 115.546C35.6242 115.693 34.758 117.607 33.9943 119.294C33.8369 119.642 33.6898 119.963 33.5445 120.237C32.9084 121.424 31.6268 122.133 30.1171 122.133Z" fill="#FFF8E1"/>
<path fill-rule="evenodd" clip-rule="evenodd" d="M38.901 109.156C38.5425 109.156 38.1848 109.163 37.8272 109.18C30.2004 109.522 26.9937 112.081 25.647 114.169C24.5182 115.918 24.2937 117.981 25.0314 119.825C25.8072 121.762 27.8506 123.064 30.1175 123.064C31.9765 123.064 33.5644 122.171 34.3654 120.675C34.5321 120.363 34.683 120.03 34.8422 119.677C35.687 117.812 36.3789 116.582 38.2426 116.476C38.6077 116.454 38.9877 116.444 39.3714 116.444C40.0345 116.444 40.7442 116.476 41.4809 116.538C41.534 116.543 41.5871 116.545 41.6392 116.545C42.5668 116.545 43.365 115.855 43.4851 114.92C43.6388 113.72 43.8251 112.652 44.0561 111.656C44.1753 111.142 44.07 110.601 43.7673 110.168C43.4647 109.737 42.9925 109.453 42.4681 109.388C41.1903 109.232 40.0233 109.156 38.901 109.156ZM38.9007 111.017C39.9876 111.017 41.0875 111.094 42.2415 111.236C41.976 112.381 41.7851 113.527 41.637 114.683C40.8556 114.617 40.1022 114.583 39.3711 114.583C38.9529 114.583 38.5412 114.594 38.1361 114.617C34.4098 114.83 33.5799 118.195 32.7221 119.797C32.209 120.757 31.1854 121.203 30.1172 121.203C28.7425 121.203 27.2942 120.465 26.7606 119.134C25.5899 116.208 27.6631 111.498 37.9107 111.04C38.2404 111.025 38.5701 111.017 38.9007 111.017Z" fill="#0D47A1"/>
<path fill-rule="evenodd" clip-rule="evenodd" d="M57.8815 122.133C56.3717 122.133 55.0902 121.424 54.455 120.237C54.3088 119.963 54.1626 119.642 54.0052 119.295C53.2415 117.607 52.3753 115.693 49.8095 115.546C49.4174 115.524 49.0187 115.513 48.6136 115.513C44.905 115.513 40.482 116.455 34.5484 117.977C27.4831 119.789 22.207 119.793 20.457 119.793C20.4524 119.793 19.738 119.79 19.738 119.79C11.5747 119.79 7.00834 116.098 4.61663 113.001C1.24142 108.629 0.0735083 102.423 1.57019 96.8047C3.75979 88.5793 12.5936 80.8602 20.8603 79.949L20.9739 79.9425C21.4312 79.9425 21.9314 80.2524 22.0198 80.943C22.1316 81.8178 21.367 84.971 19.8433 85.3675C13.9674 86.8957 7.99464 92.6166 6.52869 98.1226C5.67092 101.344 5.78455 106.12 8.67825 109.867C11.0104 112.888 14.7879 114.468 19.9066 114.564C20.5064 114.576 21.0587 114.583 21.5774 114.583C25.4044 114.583 27.3453 114.233 33.3516 112.853L35.7302 112.303C41.2662 111.016 45.2654 110.088 49.0905 110.088C49.4378 110.088 49.7843 110.094 50.1308 110.11C57.3599 110.434 60.3412 112.77 61.5687 114.672C62.5326 116.167 62.7273 117.918 62.1023 119.479C61.4672 121.067 59.7702 122.133 57.8815 122.133Z" fill="#A8E4BB"/>
<path fill-rule="evenodd" clip-rule="evenodd" d="M20.9753 79.0124H20.8729L20.7602 79.0245C12.1489 79.9729 2.94903 88.0056 0.670949 96.5652C-0.898376 102.457 0.331006 108.973 3.87945 113.569C6.39875 116.831 11.1971 120.721 19.7469 120.721C19.9499 120.722 20.1902 120.724 20.451 120.724C25.2511 120.724 29.9386 120.12 34.7807 118.878C40.6445 117.375 45.0032 116.444 48.6122 116.444C49.0006 116.444 49.3861 116.454 49.7577 116.475C51.6204 116.582 52.3134 117.813 53.1572 119.677C53.3174 120.031 53.4683 120.364 53.635 120.675C54.4359 122.171 56.0239 123.064 57.8828 123.064C60.1488 123.064 62.1931 121.763 62.968 119.825C63.7066 117.98 63.4821 115.919 62.3533 114.169C61.0066 112.082 57.8 109.521 50.1731 109.18C49.8136 109.164 49.4532 109.156 49.0918 109.156C45.1634 109.156 41.1251 110.094 35.5351 111.393C34.7714 111.571 33.9751 111.755 33.1443 111.946C27.22 113.306 25.3107 113.652 21.5807 113.652C21.0666 113.652 20.5199 113.645 19.9247 113.634C15.1022 113.543 11.5677 112.084 9.41726 109.299C6.73124 105.82 6.6288 101.368 7.42976 98.3623C8.8184 93.1458 14.4931 87.7208 20.0784 86.268C22.2662 85.6994 23.0848 81.9217 22.9451 80.8254C22.8082 79.7579 21.9979 79.0124 20.9753 79.0124ZM20.9754 80.8738C21.4439 80.8738 20.5582 84.2196 19.6091 84.4662C13.5786 86.0344 7.23335 91.8615 5.62956 97.883C4.71498 101.319 4.84164 106.42 7.9421 110.436C10.5117 113.764 14.6758 115.397 19.8895 115.494C20.4976 115.507 21.0564 115.513 21.5808 115.513C25.5241 115.513 27.5256 115.146 33.5617 113.76C40.4285 112.183 44.8645 111.017 49.0919 111.017C49.4254 111.017 49.7579 111.024 50.0894 111.039C60.3371 111.499 62.4102 116.207 61.2386 119.133C60.7059 120.465 59.2576 121.202 57.883 121.202C56.8147 121.202 55.7911 120.757 55.277 119.797C54.4193 118.194 53.5904 114.83 49.864 114.617C49.4533 114.594 49.037 114.582 48.6123 114.582C44.8245 114.582 40.4462 115.505 34.3179 117.076C27.955 118.707 23.097 118.863 20.4511 118.863C20.1959 118.863 19.9602 118.861 19.747 118.86C11.8463 118.86 7.58726 115.322 5.35481 112.432C2.15283 108.284 1.04825 102.388 2.47135 97.0436C4.56223 89.1876 13.1595 81.7347 20.9642 80.8747C20.968 80.8738 20.9717 80.8738 20.9754 80.8738Z" fill="#0D47A1"/>
<path fill-rule="evenodd" clip-rule="evenodd" d="M57.8813 122.132C56.3716 122.132 55.09 121.422 54.4549 120.235C54.3086 119.961 54.1624 119.64 54.005 119.292C53.2413 117.605 52.3752 115.691 49.8093 115.545C49.4209 115.523 49.026 115.512 48.6237 115.512C47.9354 115.512 47.2006 115.545 46.4397 115.608C46.4136 115.611 46.3866 115.612 46.3605 115.612C45.8967 115.612 45.4971 115.268 45.4375 114.8C45.2801 113.57 45.0883 112.473 44.8499 111.445C44.7902 111.188 44.8424 110.918 44.9942 110.702C45.146 110.485 45.3817 110.343 45.6443 110.312C46.883 110.159 48.0136 110.086 49.1005 110.086C49.4442 110.086 49.7869 110.092 50.1297 110.108C57.3597 110.433 60.341 112.769 61.5685 114.672C62.5325 116.166 62.7271 117.917 62.1022 119.477C61.467 121.066 59.7701 122.132 57.8813 122.132Z" fill="#FFF8E1"/>
<path fill-rule="evenodd" clip-rule="evenodd" d="M49.0976 109.155C47.9753 109.155 46.8084 109.231 45.5305 109.387C45.0062 109.452 44.534 109.735 44.2313 110.167C43.9277 110.6 43.8234 111.141 43.9426 111.655C44.1736 112.653 44.3608 113.721 44.5135 114.918C44.6337 115.854 45.4318 116.543 46.3594 116.543C46.4116 116.543 46.4647 116.541 46.5178 116.537C47.2545 116.475 47.9632 116.443 48.6254 116.443C49.0101 116.443 49.3901 116.453 49.7561 116.475C51.6188 116.581 52.3117 117.811 53.1555 119.676C53.3157 120.029 53.4666 120.362 53.6333 120.674C54.4333 122.169 56.0222 123.063 57.8812 123.063C60.1472 123.063 62.1915 121.761 62.9663 119.824C63.7049 117.98 63.4805 115.917 62.3507 114.167C61.004 112.08 57.7983 109.52 50.1715 109.179C49.8138 109.162 49.4562 109.155 49.0976 109.155ZM49.0975 111.016C49.4282 111.016 49.7579 111.024 50.0876 111.038C60.3352 111.497 62.4084 116.207 61.2368 119.133C60.704 120.464 59.2558 121.202 57.8811 121.202C56.8128 121.202 55.7893 120.756 55.2752 119.796C54.4174 118.194 53.5885 114.829 49.8622 114.616C49.4561 114.593 49.0445 114.582 48.6253 114.582C47.8952 114.582 47.1417 114.616 46.3612 114.682C46.2131 113.526 46.0222 112.38 45.7568 111.235C46.9098 111.093 48.0107 111.016 49.0975 111.016Z" fill="#0D47A1"/>
<path fill-rule="evenodd" clip-rule="evenodd" d="M18.9194 86.789C16.2753 86.4754 15.8534 81.8964 16.6861 80.8075C17.9238 79.189 23.3992 78.2862 24.447 80.264C25.3821 82.0285 22.0087 87.1557 18.9194 86.789Z" fill="#A8E4BB"/>
<path fill-rule="evenodd" clip-rule="evenodd" d="M18.9194 86.789C16.2753 86.4754 15.8534 81.8964 16.6861 80.8075C17.9238 79.189 23.3992 78.2862 24.447 80.264C25.3821 82.0285 22.0087 87.1557 18.9194 86.789V86.789Z" stroke="#0D47A1" stroke-width="1.96122"/>
<path fill-rule="evenodd" clip-rule="evenodd" d="M68.6266 86.789C71.2707 86.4754 71.6935 81.8964 70.86 80.8075C69.6222 79.189 64.1468 78.2862 63.099 80.264C62.1639 82.0285 65.5373 87.1557 68.6266 86.789Z" fill="#A8E4BB"/>
<path fill-rule="evenodd" clip-rule="evenodd" d="M68.6266 86.789C71.2707 86.4754 71.6935 81.8964 70.86 80.8075C69.6222 79.189 64.1468 78.2862 63.099 80.264C62.1639 82.0285 65.5373 87.1557 68.6266 86.789Z" stroke="#0D47A1" stroke-width="1.96122"/>
</svg>
